<?xml version="1.0" encoding="UTF-8" standalone="no"?>
<!-- Created with Inkscape (http://www.inkscape.org/) -->

<svg
   version="1.1"
   id="svg1309"
   xml:space="preserve"
   width="890"
   height="396.66666"
   viewBox="0 0 889.99999 396.66666"
   sodipodi:docname="mfa-login.svg"
   inkscape:version="1.1.1 (3bf5ae0d25, 2021-09-20)"
   xmlns:inkscape="http://www.inkscape.org/namespaces/inkscape"
   xmlns:sodipodi="http://sodipodi.sourceforge.net/DTD/sodipodi-0.dtd"
   xmlns="http://www.w3.org/2000/svg"
   xmlns:svg="http://www.w3.org/2000/svg"><defs
     id="defs1313" /><sodipodi:namedview
     id="namedview1311"
     pagecolor="#ffffff"
     bordercolor="#666666"
     borderopacity="1.0"
     inkscape:pageshadow="2"
     inkscape:pageopacity="0.0"
     inkscape:pagecheckerboard="0"
     showgrid="false"
     fit-margin-top="0"
     fit-margin-left="0"
     fit-margin-right="0"
     fit-margin-bottom="0"
     inkscape:zoom="0.97426471"
     inkscape:cx="411.07925"
     inkscape:cy="203.7434"
     inkscape:window-width="1920"
     inkscape:window-height="1013"
     inkscape:window-x="-9"
     inkscape:window-y="-9"
     inkscape:window-maximized="1"
     inkscape:current-layer="g1315" /><g
     id="g1315"
     inkscape:groupmode="layer"
     inkscape:label="gs-login"
     transform="matrix(1.3333333,0,0,-1.3333333,-261.99999,611.99998)"><g
       id="g1317"
       transform="translate(-9910.5,-1584)"><path
         d="m 10506.756,1832.7458 c 1.239,0 2.244,-1.0044 2.244,-2.2433 v -18.0403 c 0,-1.239 -1.005,-2.2434 -2.244,-2.2434 h -9.814 c -1.239,0 -2.243,1.0044 -2.243,2.2434 v 18.0403 c 0,1.2389 1.004,2.2433 2.243,2.2433 z m 0,-0.7478 h -9.814 c -0.826,0 -1.495,-0.6696 -1.495,-1.4955 v -18.0403 c 0,-0.826 0.669,-1.4956 1.495,-1.4956 h 9.814 c 0.827,0 1.496,0.6696 1.496,1.4956 v 18.0403 c 0,0.8259 -0.669,1.4955 -1.496,1.4955 z m -10.562,-1.4955 v -18.0403 c 0,-0.413 0.335,-0.7478 0.748,-0.7478 h 9.814 c 0.413,0 0.748,0.3348 0.748,0.7478 v 18.0403 c 0,0.4129 -0.335,0.7477 -0.748,0.7477 h -9.814 c -0.413,0 -0.748,-0.3348 -0.748,-0.7477 z m -0.747,0 c 0,0.8259 0.669,1.4955 1.495,1.4955 h 9.814 c 0.827,0 1.496,-0.6696 1.496,-1.4955 v -18.0403 c 0,-0.826 -0.669,-1.4956 -1.496,-1.4956 h -9.814 c -0.826,0 -1.495,0.6696 -1.495,1.4956 z"
         style="fill:#4c4c4c;fill-opacity:1;fill-rule:nonzero;stroke:none"
         id="path1319" /><path
         d="m 10496.895,1838.0737 h 9.908 v -5.4214 c 0,-0.4959 -0.397,-0.7477 -0.748,-0.7477 -0.35,0 -0.747,0.2518 -0.747,0.7477 v 3.9259 h -6.917 v -3.9259 c 0,-0.4959 -0.397,-0.7477 -0.748,-0.7477 -0.351,0 -0.748,0.2518 -0.748,0.7477 z m 0.748,-0.7477 8.412,-10e-5 z"
         style="fill:#4c4c4c;fill-opacity:1;fill-rule:nonzero;stroke:none"
         id="path1321" /><path
         d="m 10505.962,1823.0246 c 0,-2.2715 -1.841,-4.1128 -4.113,-4.1128 -2.271,0 -4.112,1.8413 -4.112,4.1128 0,2.2714 1.841,4.1128 4.112,4.1128 2.272,0 4.113,-1.8414 4.113,-4.1128 z m -0.748,0 c 0,1.8585 -1.506,3.365 -3.365,3.365 -1.858,0 -3.365,-1.5065 -3.365,-3.365 0,-1.8585 1.507,-3.365 3.365,-3.365 1.859,0 3.365,1.5065 3.365,3.365 z m -5.982,0 c 0,-1.4455 1.172,-2.6172 2.617,-2.6172 1.446,0 2.617,1.1717 2.617,2.6172 0,1.4455 -1.171,2.6172 -2.617,2.6172 -1.445,0 -2.617,-1.1717 -2.617,-2.6172 z m -0.748,0 c 0,1.8585 1.507,3.365 3.365,3.365 1.859,0 3.365,-1.5065 3.365,-3.365 0,-1.8585 -1.506,-3.365 -3.365,-3.365 -1.858,0 -3.365,1.5065 -3.365,3.365 z"
         style="fill:#4c4c4c;fill-opacity:1;fill-rule:nonzero;stroke:none"
         id="path1323" /><path
         d="m 10500.354,1815.5468 c 0,0.826 0.669,1.4955 1.495,1.4955 0.826,0 1.496,-0.6695 1.496,-1.4955 0,-0.826 -0.67,-1.4956 -1.496,-1.4956 -0.826,0 -1.495,0.6696 -1.495,1.4956 z"
         style="fill:#4c4c4c;fill-opacity:1;fill-rule:nonzero;stroke:none"
         id="path1325" /><path
         d="m 10378.5,1839.75 c 0,2.2091 1.791,4 4,4 h 95.5 c 2.209,0 4,-1.7909 4,-4 v -34.5 c 0,-2.2092 -1.791,-4 -4,-4 h -95.5 c -2.209,0 -4,1.7908 -4,4 z"
         style="fill:#231f20;fill-opacity:1;fill-rule:nonzero;stroke:#231f20;stroke-width:1;stroke-linecap:butt;stroke-linejoin:miter;stroke-miterlimit:3.8637;stroke-dasharray:none;stroke-opacity:1"
         id="path1327" /><text
         transform="matrix(1,0,0,-1,10403,1816.7999)"
         style="font-variant:normal;font-weight:normal;font-size:18px;font-family:Arial;-inkscape-font-specification:Arial;writing-mode:lr-tb;fill:#ffffff;fill-opacity:1;fill-rule:nonzero;stroke:none"
         id="text1331"><tspan
           x="0 12.006 16.002001 26.01 36.018002 41.021999 46.026001"
           y="0"
           sodipodi:role="line"
           id="tspan1329">Sign In</tspan></text><path
         d="m 10630,2043 v -285 h -377 v 285"
         style="fill:none;stroke:#231f20;stroke-width:1;stroke-linecap:butt;stroke-linejoin:miter;stroke-miterlimit:3.8637;stroke-dasharray:none;stroke-opacity:1"
         id="path1333" /><path
         d="m 10640,2043 v -287 c 0,-5.523 -4.477,-10 -10,-10 h -379 c -5.523,0 -10,4.477 -10,10 v 287"
         style="fill:none;stroke:#231f20;stroke-width:1;stroke-linecap:butt;stroke-linejoin:miter;stroke-miterlimit:3.8637;stroke-dasharray:none;stroke-opacity:1"
         id="path1335" /><text
         transform="matrix(1,0,0,-1,10280,2007.3999)"
         style="font-variant:normal;font-weight:normal;font-size:16px;font-family:Arial;-inkscape-font-specification:Arial;writing-mode:lr-tb;fill:#231f20;fill-opacity:1;fill-rule:nonzero;stroke:none"
         id="text1339"><tspan
           x="0 11.552 19.552 28.448 33.776001 42.672001 51.568001 64.896004 73.792"
           y="0"
           sodipodi:role="line"
           id="tspan1337">Username:</tspan></text><text
         transform="matrix(1,0,0,-1,10280,1921.8569)"
         style="font-variant:normal;font-weight:normal;font-size:16px;font-family:Arial;-inkscape-font-specification:Arial;writing-mode:lr-tb;fill:#231f20;fill-opacity:1;fill-rule:nonzero;stroke:none"
         id="text1343"><tspan
           x="0 10.672 19.568001 27.568001 35.568001 47.119999 56.015999 61.344002 70.239998"
           y="0"
           sodipodi:role="line"
           id="tspan1341">Password:</tspan></text><path
         d="m 10279,1993 c 0,2.2091 1.791,4 4,4 h 316 c 2.209,0 4,-1.7909 4,-4 v -33 c 0,-2.2092 -1.791,-4 -4,-4 h -316 c -2.209,0 -4,1.7908 -4,4 z"
         style="fill:none;stroke:#231f20;stroke-width:2;stroke-linecap:butt;stroke-linejoin:miter;stroke-miterlimit:3.8636;stroke-dasharray:none;stroke-opacity:1"
         id="path1345" /><path
         d="m 10279,1906.6567 c 0,2.2092 1.791,4 4,4 h 316 c 2.209,0 4,-1.7908 4,-4 v -33 c 0,-2.2091 -1.791,-4 -4,-4 h -316 c -2.209,0 -4,1.7909 -4,4 z"
         style="fill:none;stroke:#231f20;stroke-width:1;stroke-linecap:butt;stroke-linejoin:miter;stroke-miterlimit:3.8637;stroke-dasharray:none;stroke-opacity:1"
         id="path1347" /><text
         transform="matrix(1,0,0,-1,10290,1969)"
         style="font-variant:normal;font-weight:normal;font-size:24px;font-family:Arial;-inkscape-font-specification:Arial;writing-mode:lr-tb;fill:#231f20;fill-opacity:1;fill-rule:nonzero;stroke:none"
         id="text1351"><tspan
           x="0 13.344 26.688"
           y="0"
           sodipodi:role="line"
           id="tspan1349">bob</tspan></text><path
         d="m 10331,1991 v -28"
         style="fill:none;stroke:#231f20;stroke-width:0.5;stroke-linecap:butt;stroke-linejoin:miter;stroke-miterlimit:3.8636;stroke-dasharray:none;stroke-opacity:1"
         id="path1353" /><path
         d="m 10574.656,1893.3747 c 0,0 -1.406,-1.2187 -1.781,-1.9687 -0.375,-0.75 -0.375,-0.8437 -0.375,-0.8437 0,0 3.104,-4.5119 5.437,-5.7187 2.719,-1.4062 7.968,-0.75 7.968,-0.75"
         style="fill:none;stroke:#666666;stroke-width:2;stroke-linecap:butt;stroke-linejoin:miter;stroke-miterlimit:3.8636;stroke-dasharray:none;stroke-opacity:1"
         id="path1355" /><path
         d="m 10578.5,1889.4373 c 1.359,-1.3593 2.109,-2.2734 3.937,-2.7187"
         style="fill:none;stroke:#666666;stroke-width:2;stroke-linecap:butt;stroke-linejoin:miter;stroke-miterlimit:3.8636;stroke-dasharray:none;stroke-opacity:1"
         id="path1357" /><path
         d="m 10579.437,1893.3747 c 0.492,0.6563 1.781,1.4063 3.726,1.2188 1.89,-0.1822 3.117,-1.8516 3.117,-3.75 0,-0.7734 -0.281,-1.5937 -1.031,-2.2499"
         style="fill:none;stroke:#666666;stroke-width:2;stroke-linecap:butt;stroke-linejoin:miter;stroke-miterlimit:3.8636;stroke-dasharray:none;stroke-opacity:1"
         id="path1359" /><path
         d="m 10576.343,1895.3435 c 0,0 3.755,2.6798 6.281,2.5312 6.375,-0.375 9.187,-6.7499 9.187,-6.7499 0,0 -1.312,-2.9062 -1.968,-3.6562 -0.657,-0.75 -1.5,-1.5 -1.5,-1.5"
         style="fill:none;stroke:#666666;stroke-width:2;stroke-linecap:butt;stroke-linejoin:miter;stroke-miterlimit:3.8636;stroke-dasharray:none;stroke-opacity:1"
         id="path1361" /><path
         d="m 10571.75,1898.9996 21.28,-16.8747"
         style="fill:none;stroke:#666666;stroke-width:2;stroke-linecap:butt;stroke-linejoin:miter;stroke-miterlimit:3.8636;stroke-dasharray:none;stroke-opacity:1"
         id="path1363" /><path
         d="m 10581.687,1894.4997 v -2.7187 c -0.164,0 -0.211,-0.1875 -0.375,-0.1875 -0.867,0 -0.984,0.9844 -1.594,1.5937 0.656,0.4922 1.172,1.0781 1.969,1.3125 z"
         style="fill:#666666;fill-opacity:1;fill-rule:evenodd;stroke:none"
         id="path1365" /></g></g></svg>
