<?xml version="1.0" encoding="UTF-8" standalone="no"?>
<!-- Created with Inkscape (http://www.inkscape.org/) -->

<svg
   version="1.1"
   id="svg824"
   xml:space="preserve"
   width="780"
   height="369.33331"
   viewBox="0 0 780 369.33331"
   sodipodi:docname="yubi-multikey.svg"
   inkscape:version="1.1.1 (3bf5ae0d25, 2021-09-20)"
   xmlns:inkscape="http://www.inkscape.org/namespaces/inkscape"
   xmlns:sodipodi="http://sodipodi.sourceforge.net/DTD/sodipodi-0.dtd"
   xmlns="http://www.w3.org/2000/svg"
   xmlns:svg="http://www.w3.org/2000/svg"><defs
     id="defs828"><clipPath
       clipPathUnits="userSpaceOnUse"
       id="clipPath840"><path
         d="m 4227,2240 h 518 v -277 h -518 z"
         clip-rule="evenodd"
         id="path838" /></clipPath></defs><sodipodi:namedview
     id="namedview826"
     pagecolor="#ffffff"
     bordercolor="#666666"
     borderopacity="1.0"
     inkscape:pageshadow="2"
     inkscape:pageopacity="0.0"
     inkscape:pagecheckerboard="0"
     showgrid="false"
     fit-margin-top="0"
     fit-margin-left="0"
     fit-margin-right="1"
     fit-margin-bottom="0"
     inkscape:zoom="0.75284091"
     inkscape:cx="340.70943"
     inkscape:cy="346.02264"
     inkscape:window-width="1920"
     inkscape:window-height="1013"
     inkscape:window-x="-9"
     inkscape:window-y="-9"
     inkscape:window-maximized="1"
     inkscape:current-layer="g830" /><g
     id="g830"
     inkscape:groupmode="layer"
     inkscape:label="yubi-multi"
     transform="matrix(1.3333333,0,0,-1.3333333,-67.999998,874.66664)"><g
       id="g832"
       transform="translate(-4176,-1584)"><g
         id="g834"><g
           id="g836"
           clip-path="url(#clipPath840)"><path
             d="m 4448,2277 -87,-356"
             style="fill:none;stroke:#231f20;stroke-width:1;stroke-linecap:butt;stroke-linejoin:miter;stroke-miterlimit:3.8637;stroke-dasharray:none;stroke-opacity:1"
             id="path842" /><path
             d="m 4370,1929 88,365"
             style="fill:none;stroke:#231f20;stroke-width:1;stroke-linecap:butt;stroke-linejoin:miter;stroke-miterlimit:3.8637;stroke-dasharray:none;stroke-opacity:1"
             id="path844" /><path
             d="m 4227,2232 119.5,-25.5 c 0,0 8,-1.25 3.5,-19.5 -6.1023,-24.7481 -72,-295 -72,-295"
             style="fill:none;stroke:#231f20;stroke-width:1;stroke-linecap:butt;stroke-linejoin:miter;stroke-miterlimit:3.8637;stroke-dasharray:none;stroke-opacity:1"
             id="path846" /><path
             d="m 4222,2220 39,-8 c 0,0 7.5,-0.5 2,-15 -4.4859,-11.8265 -7,-15.5 -19.5,-13.5 -13.1722,2.1075 -42.5,8.5 -42.5,8.5"
             style="fill:none;stroke:#231f20;stroke-width:1;stroke-linecap:butt;stroke-linejoin:miter;stroke-miterlimit:3.8637;stroke-dasharray:none;stroke-opacity:1"
             id="path848" /><path
             d="m 4239.6199,2215.8681 27,-5 c 0,0 7.5,-0.5 2,-15 -4.4858,-11.8265 -7.1199,-19.3681 -16.1199,-17.3681 -13.0217,2.8936 -47.5,9 -47.5,9"
             style="fill:none;stroke:#231f20;stroke-width:1;stroke-linecap:butt;stroke-linejoin:miter;stroke-miterlimit:3.8637;stroke-dasharray:none;stroke-opacity:1"
             id="path850" /><path
             d="m 4281.8948,2238.6081 c 0.6294,3.4763 4.4256,5.6078 8.4791,4.7609 l 52.4246,-10.9536 c 4.0535,-0.8469 6.8292,-4.3515 6.1998,-7.8278 v -10e-5 c -0.6294,-3.4764 -4.4256,-5.6078 -8.4791,-4.7609 l -52.4246,10.9535 c -4.0536,0.847 -6.8293,4.3515 -6.1998,7.8279 z"
             style="fill:none;stroke:#231f20;stroke-width:1;stroke-linecap:butt;stroke-linejoin:miter;stroke-miterlimit:3.8637;stroke-dasharray:none;stroke-opacity:1"
             id="path852" /><path
             d="m 4331,2195.5 c 0,0 7.5,-0.5 5.5,-7.5 -2.4341,-8.5194 -5,-16.25 -5,-16.25 0,0 -2,-5.5 -8.75,-4.25 -6.75,1.25 -36,7 -38.5,7.5 -2.5,0.5 -9.25,3.25 -7.75,9.25 1.5,6 3.75,16.25 4.75,18.25 1,2 2,4 6.5,3 4.5,-1 43.25,-10 43.25,-10 z"
             style="fill:none;stroke:#231f20;stroke-width:1;stroke-linecap:butt;stroke-linejoin:miter;stroke-miterlimit:3.8637;stroke-dasharray:none;stroke-opacity:1"
             id="path854" /><path
             d="m 4292,2206 46.25,-9 c 0,0 5.25,-0.75 4.5,-4.75 -0.75,-4 -4.75,-23.5 -7,-25.75 -2.25,-2.25 -7.75,-4 -13,-3 -5.25,1 -35.25,7.25 -37.5,8 -2.25,0.75 -4.75,2.25 -5,3.75"
             style="fill:none;stroke:#231f20;stroke-width:1;stroke-linecap:butt;stroke-linejoin:miter;stroke-miterlimit:3.8637;stroke-dasharray:none;stroke-opacity:1"
             id="path856" /><path
             d="m 4223.75,2174 99,-22.25 c 0,0 2.75,-0.75 1.75,-5.5 -1,-4.75 -9.25,-41.25 -11.25,-44.5 -2,-3.25 -5.25,-5 -11.25,-4.75 -6,0.25 -35,4.5 -44.75,6.5 -9.75,2 -25.75,6.25 -25.75,6.25"
             style="fill:none;stroke:#231f20;stroke-width:1;stroke-linecap:butt;stroke-linejoin:miter;stroke-miterlimit:3.8637;stroke-dasharray:none;stroke-opacity:1"
             id="path858" /><path
             d="m 4227.5,2174.25 c 0,0 97.75,-20.5 100,-21 2.25,-0.5 4.75,-2.75 3.25,-8.75 -1.5,-6 -10.25,-41.25 -11.75,-44.5 -1.5,-3.25 -4.25,-7.5 -17,-6 -12.75,1.5 -45.75,8 -53.75,9.75 -8,1.75 -23.25,5.75 -23.25,5.75"
             style="fill:none;stroke:#231f20;stroke-width:1;stroke-linecap:butt;stroke-linejoin:miter;stroke-miterlimit:3.8637;stroke-dasharray:none;stroke-opacity:1"
             id="path860" /><path
             d="m 4239.5,2093.25 c 0,0 61.25,-14.25 63.75,-15.25 2.5,-1 4.25,-2 3,-8.5 -1.25,-6.5 -27.5,-115 -28.75,-118 -1.25,-3 -2,-5.25 -4.75,-6 -2.75,-0.75 -44.25,9.25 -44.25,9.25"
             style="fill:none;stroke:#231f20;stroke-width:1;stroke-linecap:butt;stroke-linejoin:miter;stroke-miterlimit:3.8637;stroke-dasharray:none;stroke-opacity:1"
             id="path862" /><path
             d="m 4240.25,2095.5 c 0,0 63,-13 66.25,-14.25 3.25,-1.25 8,-1.5 5.75,-11.75 -2.25,-10.25 -28,-118.5 -28.75,-120 -0.75,-1.5 -3,-4.25 -5.75,-4.75 -2.75,-0.5 -25.25,3.75 -25.25,3.75"
             style="fill:none;stroke:#231f20;stroke-width:1;stroke-linecap:butt;stroke-linejoin:miter;stroke-miterlimit:3.8637;stroke-dasharray:none;stroke-opacity:1"
             id="path864" /><path
             d="m 4287.7985,2051.2703 -1.3749,-5.8944 -14.179,3.24 0.5237,2.2455 11.9104,-2.7216 0.8511,3.6488 z"
             style="fill:#231f20;fill-opacity:1;fill-rule:nonzero;stroke:none"
             id="path866" /><path
             d="m 4272.0982,2044.7268 -5.5081,6.6594 7.9,3.5955 -1.196,-5.1274 z"
             style="fill:#231f20;fill-opacity:1;fill-rule:evenodd;stroke:#231f20;stroke-width:1;stroke-linecap:butt;stroke-linejoin:miter;stroke-miterlimit:3.8637;stroke-dasharray:none;stroke-opacity:1"
             id="path868" /><path
             d="m 4294.0738,2134.5062 14.2483,-3.6769 -2.7067,-11.2354 -14.2484,3.6768 -4.4138,7.106 z"
             style="fill:none;stroke:#231f20;stroke-width:1;stroke-linecap:butt;stroke-linejoin:miter;stroke-miterlimit:3.8637;stroke-dasharray:none;stroke-opacity:1"
             id="path870" /><path
             d="m 4295.9424,2131.4106 6.3647,-7.9823"
             style="fill:none;stroke:#231f20;stroke-width:1;stroke-linecap:butt;stroke-linejoin:miter;stroke-miterlimit:3.8637;stroke-dasharray:none;stroke-opacity:1"
             id="path872" /><path
             d="m 4303.745,2129.3971 -9.2406,-3.9553"
             style="fill:none;stroke:#231f20;stroke-width:1;stroke-linecap:butt;stroke-linejoin:miter;stroke-miterlimit:3.8637;stroke-dasharray:none;stroke-opacity:1"
             id="path874" /><path
             d="m 4287.9035,2186.1758 1.9353,9.1045 3.1366,-0.6667 c 0.708,-0.1505 1.2391,-0.3088 1.5934,-0.4749 0.4962,-0.2311 0.8951,-0.543 1.1968,-0.9359 0.394,-0.508 0.6429,-1.1029 0.7468,-1.7849 0.1039,-0.682 0.07,-1.4288 -0.1029,-2.2403 -0.147,-0.6914 -0.358,-1.287 -0.633,-1.7868 -0.275,-0.4999 -0.576,-0.8978 -0.9029,-1.194 -0.327,-0.2961 -0.6619,-0.5126 -1.0048,-0.6496 -0.3429,-0.137 -0.7375,-0.2122 -1.1839,-0.2254 -0.4464,-0.013 -0.945,0.038 -1.4957,0.1556 z m 1.4351,0.8114 1.9413,-0.4127 c 0.5996,-0.1275 1.0819,-0.1714 1.4469,-0.132 0.3649,0.039 0.6702,0.1393 0.916,0.2994 0.3461,0.2257 0.6502,0.5631 0.9121,1.0125 0.2619,0.4493 0.466,1.0183 0.6124,1.7068 0.2028,0.954 0.2025,1.7204 -8e-4,2.299 -0.2033,0.5785 -0.5097,1.0024 -0.9192,1.2716 -0.296,0.193 -0.8018,0.3655 -1.5172,0.5175 l -1.9104,0.4061 z"
             style="fill:#231f20;fill-opacity:1;fill-rule:evenodd;stroke:none"
             id="path876" /><path
             d="m 4301.9093,2185.4315 1.1251,-0.3987 c -0.3248,-0.6341 -0.7723,-1.0846 -1.3428,-1.3517 -0.5704,-0.267 -1.2377,-0.3192 -2.0019,-0.1568 -0.9623,0.2045 -1.6623,0.6632 -2.1001,1.3759 -0.4377,0.7127 -0.5429,1.6041 -0.3154,2.6742 0.2354,1.1074 0.703,1.9062 1.403,2.3965 0.6999,0.4904 1.5043,0.639 2.4131,0.4458 0.8797,-0.187 1.5347,-0.6394 1.9649,-1.3572 0.4302,-0.7177 0.5298,-1.6201 0.2987,-2.707 -0.014,-0.066 -0.037,-0.165 -0.069,-0.2963 l -4.9149,1.0447 c -0.1124,-0.732 -0.025,-1.3293 0.2606,-1.7919 0.2861,-0.4625 0.7041,-0.7523 1.254,-0.8691 0.4091,-0.087 0.7814,-0.053 1.1167,0.1018 0.3354,0.1548 0.6381,0.4514 0.9084,0.8898 z m -3.2815,2.5714 3.6749,-0.7811 c 0.068,0.5655 0.016,1.0115 -0.156,1.3381 -0.2637,0.5062 -0.6785,0.8195 -1.2445,0.9399 -0.5124,0.1088 -0.9796,0.028 -1.4018,-0.241 -0.4221,-0.2695 -0.713,-0.6881 -0.8726,-1.2559 z"
             style="fill:#231f20;fill-opacity:1;fill-rule:evenodd;stroke:none"
             id="path878" /><path
             d="m 4304.0076,2182.7526 1.9353,9.1046 1.119,-0.2379 -1.9353,-9.1045 z"
             style="fill:#231f20;fill-opacity:1;fill-rule:evenodd;stroke:none"
             id="path880" /><path
             d="m 4311.8208,2183.3246 1.1251,-0.3986 c -0.3247,-0.6341 -0.7723,-1.0847 -1.3428,-1.3517 -0.5704,-0.267 -1.2377,-0.3193 -2.0018,-0.1569 -0.9623,0.2046 -1.6624,0.6632 -2.1001,1.3759 -0.4378,0.7127 -0.543,1.6042 -0.3155,2.6743 0.2354,1.1073 0.7031,1.9062 1.403,2.3965 0.6999,0.4903 1.5043,0.6389 2.4131,0.4457 0.8798,-0.187 1.5347,-0.6393 1.9649,-1.3571 0.4302,-0.7178 0.5298,-1.6201 0.2988,-2.7071 -0.014,-0.066 -0.037,-0.165 -0.07,-0.2963 l -4.9148,1.0448 c -0.1124,-0.732 -0.026,-1.3294 0.2606,-1.7919 0.2861,-0.4626 0.7041,-0.7523 1.2539,-0.8692 0.4091,-0.087 0.7814,-0.053 1.1167,0.1019 0.3354,0.1548 0.6382,0.4514 0.9084,0.8897 z m -3.2814,2.5715 3.6748,-0.7812 c 0.068,0.5655 0.016,1.0116 -0.156,1.3381 -0.2637,0.5063 -0.6785,0.8196 -1.2445,0.9399 -0.5123,0.1089 -0.9796,0.029 -1.4017,-0.2409 -0.4222,-0.2696 -0.7131,-0.6882 -0.8726,-1.2559 z"
             style="fill:#231f20;fill-opacity:1;fill-rule:evenodd;stroke:none"
             id="path882" /><path
             d="m 4316.5854,2181.1217 -0.057,-1.0197 c -0.3278,5e-4 -0.6156,0.027 -0.8633,0.08 -0.4047,0.086 -0.7048,0.217 -0.9004,0.393 -0.1956,0.176 -0.3165,0.3784 -0.3629,0.6072 -0.046,0.2288 0,0.6792 0.1448,1.3511 l 0.8081,3.8017 -0.8266,0.1757 0.1838,0.8646 0.8266,-0.1756 0.3471,1.6327 1.2615,0.4327 -0.4896,-2.3033 1.119,-0.2379 -0.1839,-0.8646 -1.1189,0.2378 -0.8218,-3.866 c -0.068,-0.3196 -0.092,-0.5292 -0.072,-0.6288 0.02,-0.099 0.068,-0.1858 0.1453,-0.2586 0.077,-0.073 0.1982,-0.1267 0.3631,-0.1618 0.1236,-0.026 0.2895,-0.046 0.4977,-0.06 z"
             style="fill:#231f20;fill-opacity:1;fill-rule:evenodd;stroke:none"
             id="path884" /><path
             d="m 4322.4264,2181.0702 1.1251,-0.3986 c -0.3247,-0.6341 -0.7723,-1.0847 -1.3428,-1.3517 -0.5704,-0.267 -1.2377,-0.3193 -2.0019,-0.1568 -0.9622,0.2045 -1.6623,0.6631 -2.1001,1.3759 -0.4377,0.7127 -0.5429,1.6041 -0.3154,2.6742 0.2354,1.1074 0.703,1.9062 1.403,2.3965 0.6999,0.4903 1.5043,0.6389 2.4131,0.4457 0.8797,-0.187 1.5347,-0.6393 1.9649,-1.3571 0.4302,-0.7178 0.5298,-1.6201 0.2987,-2.707 -0.014,-0.066 -0.037,-0.165 -0.069,-0.2963 l -4.9148,1.0447 c -0.1125,-0.732 -0.026,-1.3293 0.2605,-1.7919 0.2862,-0.4626 0.7041,-0.7523 1.2539,-0.8692 0.4092,-0.087 0.7815,-0.053 1.1168,0.1019 0.3354,0.1548 0.6381,0.4514 0.9084,0.8897 z m -3.2815,2.5715 3.6749,-0.7812 c 0.068,0.5656 0.016,1.0116 -0.156,1.3381 -0.2637,0.5063 -0.6785,0.8196 -1.2445,0.9399 -0.5124,0.1089 -0.9796,0.029 -1.4017,-0.2409 -0.4222,-0.2695 -0.7131,-0.6882 -0.8727,-1.2559 z"
             style="fill:#231f20;fill-opacity:1;fill-rule:evenodd;stroke:none"
             id="path886" /><path
             d="m 4221.1171,2199.7913 1.9353,9.1046 1.208,-0.2568 -1.9353,-9.1045 z"
             style="fill:#231f20;fill-opacity:1;fill-rule:evenodd;stroke:none"
             id="path888" /><path
             d="m 4224.2996,2199.1148 1.4029,6.5995 1.0045,-0.2135 -0.1993,-0.9376 c 0.6366,0.6155 1.4119,0.826 2.326,0.6317 0.3969,-0.084 0.7467,-0.2333 1.0493,-0.4468 0.3026,-0.2135 0.512,-0.4536 0.6282,-0.7205 0.1162,-0.2668 0.1735,-0.5665 0.1721,-0.8992 0,-0.2156 -0.059,-0.582 -0.1689,-1.0991 l -0.8614,-4.0524 -1.119,0.2378 0.8524,4.0101 c 0.097,0.4553 0.1258,0.8049 0.087,1.0488 -0.039,0.2439 -0.1543,0.4566 -0.3466,0.6381 -0.1924,0.1815 -0.4372,0.3038 -0.7344,0.367 -0.4748,0.1009 -0.9168,0.037 -1.3258,-0.1918 -0.409,-0.2288 -0.7032,-0.7653 -0.8826,-1.6096 l -0.7653,-3.6003 z"
             style="fill:#231f20;fill-opacity:1;fill-rule:evenodd;stroke:none"
             id="path890" /><path
             d="m 4231.3533,2199.6755 1.1441,-0.057 c -0.032,-0.4566 0.069,-0.8331 0.303,-1.1297 0.234,-0.2965 0.6061,-0.499 1.1163,-0.6074 0.5145,-0.1094 0.9184,-0.086 1.2117,0.07 0.2934,0.156 0.47,0.3746 0.5298,0.6559 0.054,0.2524 -0.016,0.4748 -0.2084,0.667 -0.1348,0.1324 -0.4894,0.3396 -1.0637,0.6217 -0.7735,0.3803 -1.3025,0.6795 -1.587,0.8975 -0.2846,0.2181 -0.4802,0.4778 -0.587,0.779 -0.1069,0.3011 -0.126,0.6128 -0.057,0.9349 0.062,0.2933 0.1872,0.5506 0.3747,0.772 0.1875,0.2214 0.4146,0.39 0.6812,0.506 0.2009,0.091 0.4606,0.1493 0.7792,0.1744 0.3186,0.025 0.6494,0 0.9926,-0.072 0.5168,-0.1099 0.9545,-0.2811 1.3135,-0.5137 0.3588,-0.2326 0.6042,-0.4963 0.7359,-0.7912 0.1318,-0.295 0.1873,-0.6638 0.1667,-1.1066 l -1.126,0.08 c 0.024,0.3541 -0.063,0.6527 -0.2593,0.8959 -0.1964,0.2432 -0.5114,0.4109 -0.9449,0.503 -0.512,0.1089 -0.8954,0.1017 -1.1502,-0.021 -0.2549,-0.1231 -0.4065,-0.2984 -0.4549,-0.526 -0.031,-0.1448 -0.013,-0.2848 0.053,-0.42 0.065,-0.1393 0.1865,-0.2688 0.3639,-0.3886 0.1027,-0.065 0.4107,-0.2301 0.9239,-0.4948 0.7438,-0.3784 1.2583,-0.668 1.5437,-0.869 0.2854,-0.201 0.4902,-0.4485 0.6145,-0.7426 0.1244,-0.2941 0.1461,-0.6312 0.065,-1.0112 -0.079,-0.3718 -0.2622,-0.6988 -0.5495,-0.981 -0.2873,-0.2822 -0.6551,-0.4695 -1.1033,-0.562 -0.4483,-0.093 -0.9313,-0.084 -1.4491,0.026 -0.8576,0.1823 -1.4733,0.4986 -1.8474,0.9491 -0.374,0.4505 -0.549,1.0376 -0.525,1.7614 z"
             style="fill:#231f20;fill-opacity:1;fill-rule:evenodd;stroke:none"
             id="path892" /><path
             d="m 4242.6931,2197.4378 1.1251,-0.3986 c -0.3247,-0.6342 -0.7723,-1.0847 -1.3427,-1.3517 -0.5704,-0.267 -1.2377,-0.3193 -2.0019,-0.1569 -0.9623,0.2046 -1.6623,0.6632 -2.1001,1.3759 -0.4378,0.7127 -0.5429,1.6042 -0.3155,2.6743 0.2354,1.1073 0.7031,1.9062 1.403,2.3965 0.7,0.4903 1.5043,0.6389 2.4131,0.4457 0.8798,-0.187 1.5348,-0.6394 1.965,-1.3571 0.4302,-0.7178 0.5297,-1.6201 0.2987,-2.7071 -0.014,-0.066 -0.037,-0.165 -0.069,-0.2963 l -4.9149,1.0447 c -0.1124,-0.732 -0.026,-1.3293 0.2606,-1.7918 0.2861,-0.4626 0.7041,-0.7523 1.2539,-0.8692 0.4092,-0.087 0.7814,-0.053 1.1168,0.1018 0.3353,0.1549 0.6381,0.4515 0.9083,0.8898 z m -3.2814,2.5714 3.6749,-0.7811 c 0.068,0.5655 0.016,1.0116 -0.156,1.3381 -0.2637,0.5063 -0.6786,0.8196 -1.2445,0.9399 -0.5124,0.1089 -0.9796,0.029 -1.4018,-0.241 -0.4221,-0.2695 -0.713,-0.6881 -0.8726,-1.2559 z"
             style="fill:#231f20;fill-opacity:1;fill-rule:evenodd;stroke:none"
             id="path894" /><path
             d="m 4244.8042,2194.7563 1.4029,6.5995 1.0045,-0.2136 -0.2149,-1.0109 c 0.3568,0.414 0.6598,0.6725 0.9092,0.7755 0.2494,0.103 0.5048,0.1267 0.766,0.071 0.3774,-0.08 0.7359,-0.2795 1.0756,-0.598 l -0.6187,-0.9482 c -0.2389,0.2106 -0.494,0.3447 -0.7653,0.4023 -0.2425,0.052 -0.476,0.024 -0.7005,-0.081 -0.2244,-0.1057 -0.4056,-0.2801 -0.5437,-0.523 -0.2085,-0.3706 -0.3628,-0.7916 -0.463,-1.263 l -0.7331,-3.4486 -1.119,0.2379 z"
             style="fill:#231f20;fill-opacity:1;fill-rule:evenodd;stroke:none"
             id="path896" /><path
             d="m 4251.7056,2194.332 -0.057,-1.0197 c -0.3278,4e-4 -0.6156,0.027 -0.8633,0.08 -0.4047,0.086 -0.7048,0.2171 -0.9004,0.3931 -0.1956,0.176 -0.3165,0.3783 -0.3629,0.6072 -0.046,0.2287 0,0.6791 0.1448,1.3511 l 0.8081,3.8016 -0.8265,0.1757 0.1838,0.8647 0.8265,-0.1757 0.347,1.6328 1.2616,0.4327 -0.4896,-2.3034 1.119,-0.2378 -0.1838,-0.8647 -1.119,0.2378 -0.8218,-3.866 c -0.068,-0.3196 -0.092,-0.5292 -0.072,-0.6288 0.02,-0.099 0.068,-0.1858 0.1453,-0.2585 0.077,-0.073 0.1982,-0.1268 0.3631,-0.1619 0.1235,-0.026 0.2895,-0.046 0.4977,-0.06 z"
             style="fill:#231f20;fill-opacity:1;fill-rule:evenodd;stroke:none"
             id="path898" /><path
             d="m 4420.6542,2145.5109 c 1.0688,4.2869 5.4102,6.8954 9.6971,5.8264 l 143.5963,-35.8076 c 4.2868,-1.069 6.8956,-5.4107 5.8269,-9.6975 l -16.2061,-65.0065 c -1.0688,-4.2868 -5.4102,-6.8954 -9.6971,-5.8264 l -143.5963,35.8076 c -4.2868,1.069 -6.8956,5.4107 -5.8269,9.6976 z"
             style="fill:none;stroke:#231f20;stroke-width:1;stroke-linecap:butt;stroke-linejoin:miter;stroke-miterlimit:3.8637;stroke-dasharray:none;stroke-opacity:1"
             id="path900" /><path
             d="m 4420.1114,2143.839 c 1.0687,4.2868 5.4102,6.8954 9.697,5.8264 l 143.5964,-35.8076 c 4.2868,-1.069 6.8956,-5.4107 5.8269,-9.6975 l -16.2062,-65.0065 c -1.0687,-4.2869 -5.4101,-6.8954 -9.697,-5.8264 l -143.5963,35.8076 c -4.2869,1.069 -6.8956,5.4107 -5.8269,9.6975 z"
             style="fill:none;stroke:#231f20;stroke-width:1;stroke-linecap:butt;stroke-linejoin:miter;stroke-miterlimit:3.8637;stroke-dasharray:none;stroke-opacity:1"
             id="path902" /><path
             d="m 4458.7601,2099.939 c 2.939,11.7889 14.878,18.9624 26.6668,16.0227 11.7889,-2.9397 18.963,-14.8793 16.024,-26.6682 -2.9389,-11.7889 -14.8779,-18.9623 -26.6668,-16.0226 -11.7889,2.9397 -18.9629,14.8792 -16.024,26.6681 z"
             style="fill:none;stroke:#231f20;stroke-width:1;stroke-linecap:butt;stroke-linejoin:miter;stroke-miterlimit:3.8637;stroke-dasharray:none;stroke-opacity:1"
             id="path904" /><path
             d="m 4461.249,2098.0264 c 2.939,11.7889 14.8779,18.9624 26.6668,16.0226 11.7889,-2.9397 18.9629,-14.8793 16.024,-26.6681 -2.939,-11.7889 -14.878,-18.9624 -26.6668,-16.0227 -11.7889,2.9398 -18.963,14.8793 -16.024,26.6682 z"
             style="fill:none;stroke:#231f20;stroke-width:1;stroke-linecap:butt;stroke-linejoin:miter;stroke-miterlimit:3.8637;stroke-dasharray:none;stroke-opacity:1"
             id="path906" /><path
             d="m 4536.3798,2080.5835 c 1.603,6.4303 8.1152,10.3432 14.5455,8.7397 6.4303,-1.6035 10.3434,-8.116 8.7403,-14.5463 -1.603,-6.4303 -8.1152,-10.3431 -14.5455,-8.7396 -6.4303,1.6035 -10.3434,8.1159 -8.7403,14.5462 z"
             style="fill:none;stroke:#231f20;stroke-width:1;stroke-linecap:butt;stroke-linejoin:miter;stroke-miterlimit:3.8637;stroke-dasharray:none;stroke-opacity:1"
             id="path908" /><path
             d="m 4537.8984,2078.9129 c 1.603,6.4303 8.1152,10.3431 14.5455,8.7396 6.4303,-1.6035 10.3434,-8.116 8.7404,-14.5463 -1.6031,-6.4303 -8.1153,-10.3431 -14.5456,-8.7396 -6.4303,1.6035 -10.3434,8.1159 -8.7403,14.5463 z"
             style="fill:none;stroke:#231f20;stroke-width:1;stroke-linecap:butt;stroke-linejoin:miter;stroke-miterlimit:3.8637;stroke-dasharray:none;stroke-opacity:1"
             id="path910" /><path
             d="m 4491.9259,2089.9308 c 1.9164,-2.7731 1.2598,-6.7065 -1.4666,-8.7857 -2.7264,-2.0792 -6.49,-1.5167 -8.4064,1.2563 -1.9164,2.7731 -1.2598,6.7065 1.4666,8.7857 2.7264,2.0792 6.49,1.5167 8.4064,-1.2563 z m -1.0213,-0.7789 c -1.52,2.1993 -4.5049,2.6454 -6.6672,0.9964 -2.1623,-1.649 -2.683,-4.7687 -1.1631,-6.968 1.5198,-2.1993 4.5048,-2.6454 6.6671,-0.9964 2.1623,1.649 2.6831,4.7686 1.1632,6.968 z"
             style="fill:#231f20;fill-opacity:1;fill-rule:nonzero;stroke:none"
             id="path912" /><path
             d="m 4483.0274,2090.0186 -11.0079,15.9288 c -0.4787,0.6925 0.5427,1.4714 1.0213,0.7789 l 11.0079,-15.9288 c 0.4786,-0.6925 -0.5427,-1.4714 -1.0213,-0.7789 z"
             style="fill:#231f20;fill-opacity:1;fill-rule:nonzero;stroke:none"
             id="path914" /><path
             d="m 4475.7607,2101.662 -6.1281,-4.6733 c -0.6809,-0.5193 -1.3988,0.5196 -0.7179,1.0388 l 6.809,5.1927 c 0.6809,0.5192 0.7179,-1.0389 0.037,-1.5582 z"
             style="fill:#231f20;fill-opacity:1;fill-rule:nonzero;stroke:none"
             id="path916" /><path
             d="m 4478.6324,2097.5067 -4.0855,-3.1156 c -0.6809,-0.5192 -1.3987,0.5196 -0.7178,1.0389 l 4.0853,3.1156 c 0.6809,0.5192 1.3988,-0.5196 0.718,-1.0389 z"
             style="fill:#231f20;fill-opacity:1;fill-rule:nonzero;stroke:none"
             id="path918" /><path
             d="m 4441.942,2236.6748 c 1.0688,4.2869 5.4102,6.8954 9.6971,5.8264 l 143.5963,-35.8076 c 4.2868,-1.069 6.8956,-5.4106 5.8269,-9.6975 l -16.2061,-65.0064 c -1.0688,-4.2869 -5.4102,-6.8954 -9.6971,-5.8265 l -143.5963,35.8077 c -4.2868,1.069 -6.8956,5.4106 -5.8269,9.6975 z"
             style="fill:none;stroke:#231f20;stroke-width:1;stroke-linecap:butt;stroke-linejoin:miter;stroke-miterlimit:3.8637;stroke-dasharray:none;stroke-opacity:1"
             id="path920" /><path
             d="m 4441.3992,2235.0029 c 1.0687,4.2869 5.4102,6.8954 9.697,5.8264 l 143.5963,-35.8076 c 4.2869,-1.069 6.8957,-5.4107 5.827,-9.6975 l -16.2062,-65.0065 c -1.0687,-4.2868 -5.4101,-6.8954 -9.697,-5.8264 l -143.5963,35.8076 c -4.2869,1.069 -6.8956,5.4107 -5.8269,9.6976 z"
             style="fill:none;stroke:#231f20;stroke-width:1;stroke-linecap:butt;stroke-linejoin:miter;stroke-miterlimit:3.8637;stroke-dasharray:none;stroke-opacity:1"
             id="path922" /><path
             d="m 4480.0479,2191.1029 c 2.939,11.7889 14.878,18.9624 26.6668,16.0227 11.7889,-2.9397 18.963,-14.8793 16.024,-26.6682 -2.9389,-11.7889 -14.8779,-18.9623 -26.6668,-16.0226 -11.7889,2.9397 -18.9629,14.8792 -16.024,26.6681 z"
             style="fill:none;stroke:#231f20;stroke-width:1;stroke-linecap:butt;stroke-linejoin:miter;stroke-miterlimit:3.8637;stroke-dasharray:none;stroke-opacity:1"
             id="path924" /><path
             d="m 4482.5368,2189.1903 c 2.9389,11.7889 14.8779,18.9624 26.6668,16.0227 11.7889,-2.9397 18.9629,-14.8793 16.024,-26.6682 -2.939,-11.7889 -14.878,-18.9623 -26.6668,-16.0226 -11.7889,2.9397 -18.963,14.8792 -16.024,26.6681 z"
             style="fill:none;stroke:#231f20;stroke-width:1;stroke-linecap:butt;stroke-linejoin:miter;stroke-miterlimit:3.8637;stroke-dasharray:none;stroke-opacity:1"
             id="path926" /><path
             d="m 4557.6676,2171.7475 c 1.603,6.4303 8.1152,10.3431 14.5455,8.7396 6.4303,-1.6035 10.3434,-8.116 8.7403,-14.5463 -1.603,-6.4303 -8.1152,-10.3431 -14.5455,-8.7396 -6.4303,1.6035 -10.3434,8.116 -8.7403,14.5463 z"
             style="fill:none;stroke:#231f20;stroke-width:1;stroke-linecap:butt;stroke-linejoin:miter;stroke-miterlimit:3.8637;stroke-dasharray:none;stroke-opacity:1"
             id="path928" /><path
             d="m 4559.1862,2170.0768 c 1.603,6.4303 8.1152,10.3431 14.5455,8.7396 6.4303,-1.6035 10.3434,-8.116 8.7404,-14.5463 -1.6031,-6.4303 -8.1153,-10.3431 -14.5456,-8.7396 -6.4303,1.6035 -10.3434,8.116 -8.7403,14.5463 z"
             style="fill:none;stroke:#231f20;stroke-width:1;stroke-linecap:butt;stroke-linejoin:miter;stroke-miterlimit:3.8637;stroke-dasharray:none;stroke-opacity:1"
             id="path930" /><path
             d="m 4513.2137,2181.0947 c 1.9164,-2.7731 1.2598,-6.7065 -1.4666,-8.7857 -2.7264,-2.0792 -6.49,-1.5167 -8.4064,1.2563 -1.9164,2.7731 -1.2598,6.7065 1.4666,8.7858 2.7264,2.0791 6.49,1.5166 8.4064,-1.2564 z m -1.0213,-0.7789 c -1.52,2.1993 -4.5049,2.6454 -6.6672,0.9964 -2.1623,-1.649 -2.683,-4.7686 -1.1631,-6.968 1.5198,-2.1993 4.5048,-2.6454 6.6671,-0.9964 2.1623,1.649 2.6831,4.7687 1.1632,6.968 z"
             style="fill:#231f20;fill-opacity:1;fill-rule:nonzero;stroke:none"
             id="path932" /><path
             d="m 4504.3152,2181.1825 -11.008,15.9288 c -0.4786,0.6926 0.5428,1.4714 1.0214,0.7789 l 11.0079,-15.9287 c 0.4786,-0.6926 -0.5427,-1.4715 -1.0213,-0.779 z"
             style="fill:#231f20;fill-opacity:1;fill-rule:nonzero;stroke:none"
             id="path934" /><path
             d="m 4497.0485,2192.826 -6.1281,-4.6734 c -0.6809,-0.5192 -1.3988,0.5196 -0.7179,1.0389 l 6.809,5.1926 c 0.6809,0.5193 0.7179,-1.0389 0.037,-1.5581 z"
             style="fill:#231f20;fill-opacity:1;fill-rule:nonzero;stroke:none"
             id="path936" /><path
             d="m 4499.9201,2188.6707 -4.0854,-3.1156 c -0.6809,-0.5193 -1.3987,0.5196 -0.7179,1.0388 l 4.0854,3.1156 c 0.6809,0.5192 1.3988,-0.5196 0.7179,-1.0388 z"
             style="fill:#231f20;fill-opacity:1;fill-rule:nonzero;stroke:none"
             id="path938" /></g></g><path
         d="m 4512.3613,2172.4031 c -3.1663,-2.4148 -7.5849,-1.7737 -9.8354,1.483 -2.2285,3.2247 -1.4562,7.7554 1.6829,10.1493 3.1663,2.4147 7.5848,1.7736 9.8354,-1.483 2.2285,-3.2247 1.4563,-7.7554 -1.6829,-10.1493 z m -1.2128,1.5903 c 2.3137,1.7644 2.8546,5.1006 1.2504,7.422 -1.5822,2.2895 -4.6909,2.7733 -6.9773,1.0297 -2.3137,-1.7644 -2.8546,-5.1005 -1.2504,-7.422 1.5822,-2.2895 4.6909,-2.7733 6.9773,-1.0297 z m -5.009,7.4129 c -1.7496,-1.3343 -2.1547,-3.8567 -0.9469,-5.6043 1.1856,-1.7157 3.5158,-2.0832 5.238,-0.7698 1.7496,1.3343 2.1547,3.8566 0.9469,5.6043 -1.1857,1.7157 -3.5157,2.0832 -5.238,0.7698 z m -1.2128,1.5903 c 2.6023,1.9846 6.2421,1.4598 8.0962,-1.223 1.832,-2.651 1.1955,-6.3679 -1.3795,-8.3317 -2.6022,-1.9845 -6.2421,-1.4599 -8.0962,1.2231 -1.832,2.6509 -1.1956,6.3678 1.3795,8.3316 z"
         style="fill:#6b9cff;fill-opacity:1;fill-rule:nonzero;stroke:none"
         id="path940" /><path
         d="m 4492.4924,2197.432 c -1.2254,1.7733 1.4368,3.6956 2.6667,1.9159 l 11.0079,-15.9287 c 1.2255,-1.7734 -1.4368,-3.6955 -2.6667,-1.916 z m 1.6454,1.137 11.0078,-15.9287 c -0.1756,0.1014 -0.2434,0.1217 -0.307,0.1599 -0.072,-0.055 -0.1648,-0.071 -0.2524,-0.063 -0.016,-0.07 -0.052,-0.1354 -0.1078,-0.178 0.011,-0.056 0.01,-0.1103 0,-0.1618 l -10.9626,15.8138 c 0.1758,-0.1015 0.2435,-0.1218 0.3072,-0.1599 0.072,0.055 0.1647,0.071 0.2523,0.063 0.016,0.07 0.052,0.1354 0.1079,0.178 -0.011,0.056 -0.01,0.1103 0,0.1618 l -0.045,0.115 z"
         style="fill:#6b9cff;fill-opacity:1;fill-rule:nonzero;stroke:none"
         id="path942" /><path
         d="m 4491.5347,2188.2467 c -1.7308,-1.3198 -3.6567,1.3129 -1.9307,2.6292 l 6.8089,5.1926 c 1.858,1.4169 3.0402,-1.783 1.2499,-3.1485 z m -1.2128,1.5903 6.128,4.6734 c 0.087,0.1937 0.1003,0.2904 0.099,0.3496 0.064,-0.058 0.1804,-0.1352 0.1838,-0.2753 0.3907,0.298 0.6898,0.08 0.8931,-0.1065 l -6.7404,-5.11 c 0.01,0.051 0.021,0.101 0.048,0.1489 -0.044,0.063 -0.061,0.144 -0.052,0.2232 -0.095,0.02 -0.1842,0.069 -0.2399,0.1499 -0.071,-0.017 -0.139,-0.016 -0.2034,0 -0.038,-0.029 -0.079,-0.042 -0.1161,-0.051 z"
         style="fill:#6b9cff;fill-opacity:1;fill-rule:nonzero;stroke:none"
         id="path944" /><path
         d="m 4496.449,2185.6491 c -1.7309,-1.3198 -3.6566,1.3131 -1.9307,2.6292 l 4.0854,3.1156 c 1.7307,1.3198 3.6565,-1.3129 1.9307,-2.6292 z m -1.2128,1.5904 4.0169,3.0329 c -0.01,-0.05 -0.021,-0.1011 -0.048,-0.1491 0.044,-0.063 0.061,-0.1439 0.052,-0.2231 0.095,-0.02 0.1841,-0.069 0.2397,-0.1497 0.071,0.017 0.1393,0.016 0.2037,0 0.038,0.029 0.079,0.042 0.1161,0.051 l -4.0169,-3.0329 c 0.01,0.05 0.021,0.101 0.048,0.1489 -0.044,0.063 -0.061,0.144 -0.052,0.2232 -0.095,0.02 -0.184,0.069 -0.2397,0.1498 -0.071,-0.017 -0.1391,-0.016 -0.2036,0 -0.038,-0.029 -0.079,-0.042 -0.1161,-0.051 z"
         style="fill:#6b9cff;fill-opacity:1;fill-rule:nonzero;stroke:none"
         id="path946" /><path
         d="m 4505.2438,2200.182 c 3.8002,-0.9101 7.1663,-3.1426 9.3422,-6.5739 1.5562,-2.454 2.2805,-5.1696 2.3423,-8.0226"
         style="fill:none;stroke:#6b9cff;stroke-width:2;stroke-linecap:butt;stroke-linejoin:miter;stroke-miterlimit:3.8636;stroke-dasharray:none;stroke-opacity:1"
         id="path948" /><path
         d="m 4507.2978,2205.4317 c 4.934,-1.2392 9.2962,-4.1724 12.1314,-8.6434 1.9855,-3.131 2.9553,-6.5951 3.0922,-10.2174"
         style="fill:none;stroke:#6b9cff;stroke-width:2;stroke-linecap:butt;stroke-linejoin:miter;stroke-miterlimit:3.8636;stroke-dasharray:none;stroke-opacity:1"
         id="path950" /><path
         d="m 4508.2343,2210.4249 c 6.3457,-1.3954 11.9857,-5.0494 15.5978,-10.7456 2.4,-3.7845 3.5919,-7.9771 3.7747,-12.3433"
         style="fill:none;stroke:#6b9cff;stroke-width:2;stroke-linecap:butt;stroke-linejoin:miter;stroke-miterlimit:3.8636;stroke-dasharray:none;stroke-opacity:1"
         id="path952" /><path
         d="m 4497.4965,2171.0437 c -3.7509,1.2251 -7.095,3.7544 -9.2868,7.4023 -1.5677,2.609 -2.3213,5.4163 -2.4253,8.3098"
         style="fill:none;stroke:#6b9cff;stroke-width:2;stroke-linecap:butt;stroke-linejoin:miter;stroke-miterlimit:3.8636;stroke-dasharray:none;stroke-opacity:1"
         id="path954" /><path
         d="m 4495.5564,2165.8927 c -4.8709,1.6489 -9.2051,4.9673 -12.0612,9.7205 -2,3.3287 -3.0063,6.9135 -3.196,10.5918"
         style="fill:none;stroke:#6b9cff;stroke-width:2;stroke-linecap:butt;stroke-linejoin:miter;stroke-miterlimit:3.8636;stroke-dasharray:none;stroke-opacity:1"
         id="path956" /><path
         d="m 4494.7113,2160.912 c -6.2615,1.9199 -11.8632,6.0702 -15.5019,12.1261 -2.4176,4.0234 -3.6534,8.3634 -3.8995,12.7986"
         style="fill:none;stroke:#6b9cff;stroke-width:2;stroke-linecap:butt;stroke-linejoin:miter;stroke-miterlimit:3.8636;stroke-dasharray:none;stroke-opacity:1"
         id="path958" /></g></g></svg>
