<?xml version="1.0" encoding="UTF-8" standalone="no"?>
<!-- Created with Inkscape (http://www.inkscape.org/) -->

<svg
   version="1.1"
   id="svg1"
   width="811.29407"
   height="421.19363"
   viewBox="0 0 811.29407 421.19363"
   sodipodi:docname="login_cover.svg"
   inkscape:version="1.3.2 (091e20e, 2023-11-25, custom)"
   xmlns:inkscape="http://www.inkscape.org/namespaces/inkscape"
   xmlns:sodipodi="http://sodipodi.sourceforge.net/DTD/sodipodi-0.dtd"
   xmlns="http://www.w3.org/2000/svg"
   xmlns:svg="http://www.w3.org/2000/svg">
  <defs
     id="defs1" />
  <sodipodi:namedview
     id="namedview1"
     pagecolor="#ffffff"
     bordercolor="#666666"
     borderopacity="1.0"
     inkscape:showpageshadow="2"
     inkscape:pageopacity="0.0"
     inkscape:pagecheckerboard="0"
     inkscape:deskcolor="#d1d1d1"
     showgrid="false"
     inkscape:zoom="0.75662879"
     inkscape:cx="406.40801"
     inkscape:cy="212.12516"
     inkscape:window-width="1920"
     inkscape:window-height="1013"
     inkscape:window-x="-9"
     inkscape:window-y="-9"
     inkscape:window-maximized="1"
     inkscape:current-layer="g1">
    <inkscape:page
       x="0"
       y="0"
       inkscape:label="1"
       id="page1"
       width="811.29407"
       height="421.19363"
       margin="0"
       bleed="0" />
  </sodipodi:namedview>
  <g
     id="g1"
     inkscape:groupmode="layer"
     inkscape:label="1"
     transform="translate(-1.563643,-315.55881)">
    <path
       id="path1"
       d="m 2140.5728,1974.0201 -308.1444,8.6282"
       style="fill:none;stroke:#231f20;stroke-width:1;stroke-linecap:butt;stroke-linejoin:miter;stroke-miterlimit:3.8637;stroke-dasharray:none;stroke-opacity:1"
       transform="matrix(1.3333333,0,0,-1.3333333,-2256,3168)" />
    <path
       id="path2"
       d="m 1815.527,2119.2816 c 0.3474,3.0105 3.0137,5.2901 6.1141,5.2033 l 421.7781,-11.8101 c 3.312,-0.093 5.9221,-2.8527 5.8298,-6.1646 l -2.8863,-103.6451"
       style="fill:none;stroke:#231f20;stroke-width:1;stroke-linecap:butt;stroke-linejoin:miter;stroke-miterlimit:3.8637;stroke-dasharray:none;stroke-opacity:1"
       transform="matrix(1.3333333,0,0,-1.3333333,-2256,3168)" />
    <path
       id="path3"
       d="m 1914.8134,2007.2908 c 0.038,1.1038 0.9646,1.9674 2.0685,1.9288 l 132.415,-4.6279 c 1.1039,-0.038 1.9675,-0.9647 1.929,-2.0685 l -0.6276,-17.9885 c -0.039,-1.1039 -0.9645,-1.9674 -2.0684,-1.9289 l -132.4151,4.6279 c -1.1039,0.039 -1.9675,0.9647 -1.929,2.0686 z"
       style="fill:none;stroke:#231f20;stroke-width:1;stroke-linecap:butt;stroke-linejoin:miter;stroke-miterlimit:3.8637;stroke-dasharray:none;stroke-opacity:1"
       transform="matrix(1.3333333,0,0,-1.3333333,-2256,3168)" />
    <path
       id="path4"
       d="m 1844.0031,2101.6888 c 0.039,1.1039 0.9645,1.9675 2.0684,1.9289 l 14.9904,-0.5239 c 1.1039,-0.039 1.9675,-0.9647 1.929,-2.0686 l -0.523,-14.9904 c -0.039,-1.1039 -0.9646,-1.9674 -2.0684,-1.9288 l -14.9904,0.5239 c -1.1039,0.039 -1.9675,0.9647 -1.929,2.0685 z"
       style="fill:none;stroke:#231f20;stroke-width:1;stroke-linecap:butt;stroke-linejoin:miter;stroke-miterlimit:3.8637;stroke-dasharray:none;stroke-opacity:1"
       transform="matrix(1.3333333,0,0,-1.3333333,-2256,3168)" />
    <path
       id="path5"
       d="m 1867.259,2100.876 c 0.038,1.1039 0.9646,1.9675 2.0684,1.9289 l 14.9904,-0.5239 c 1.1039,-0.039 1.9675,-0.9647 1.929,-2.0686 l -0.523,-14.9904 c -0.038,-1.1039 -0.9646,-1.9674 -2.0684,-1.9288 l -14.9904,0.5239 c -1.1039,0.039 -1.9675,0.9647 -1.929,2.0685 z"
       style="fill:none;stroke:#231f20;stroke-width:1;stroke-linecap:butt;stroke-linejoin:miter;stroke-miterlimit:3.8637;stroke-dasharray:none;stroke-opacity:1"
       transform="matrix(1.3333333,0,0,-1.3333333,-2256,3168)" />
    <path
       id="path6"
       d="m 1823.4212,2104.521 14.5026,-0.5065 c 1.1039,-0.039 1.9675,-0.9646 1.9289,-2.0686 l -0.5235,-14.9907 c -0.038,-1.1039 -0.9646,-1.9675 -2.0685,-1.929 l -3.015,0.1053"
       style="fill:none;stroke:#231f20;stroke-width:1;stroke-linecap:butt;stroke-linejoin:miter;stroke-miterlimit:3.8637;stroke-dasharray:none;stroke-opacity:1"
       transform="matrix(1.3333333,0,0,-1.3333333,-2256,3168)" />
    <path
       id="path7"
       d="m 1890.5149,2100.0632 c 0.039,1.1039 0.9646,1.9675 2.0685,1.9289 l 14.9904,-0.5239 c 1.1038,-0.039 1.9675,-0.9647 1.9289,-2.0686 l -0.523,-14.9904 c -0.039,-1.1038 -0.9645,-1.9674 -2.0684,-1.9288 l -14.9904,0.5239 c -1.1039,0.039 -1.9675,0.9647 -1.929,2.0686 z"
       style="fill:none;stroke:#231f20;stroke-width:1;stroke-linecap:butt;stroke-linejoin:miter;stroke-miterlimit:3.8637;stroke-dasharray:none;stroke-opacity:1"
       transform="matrix(1.3333333,0,0,-1.3333333,-2256,3168)" />
    <path
       id="path8"
       d="m 1913.7708,2099.2505 c 0.039,1.1038 0.9646,1.9674 2.0685,1.9288 l 14.9904,-0.5239 c 1.1039,-0.039 1.9675,-0.9647 1.929,-2.0686 l -0.523,-14.9904 c -0.038,-1.1038 -0.9646,-1.9674 -2.0685,-1.9288 l -14.9904,0.5239 c -1.1039,0.039 -1.9675,0.9647 -1.929,2.0686 z"
       style="fill:none;stroke:#231f20;stroke-width:1;stroke-linecap:butt;stroke-linejoin:miter;stroke-miterlimit:3.8637;stroke-dasharray:none;stroke-opacity:1"
       transform="matrix(1.3333333,0,0,-1.3333333,-2256,3168)" />
    <path
       id="path9"
       d="m 1937.0268,2098.4377 c 0.038,1.1038 0.9645,1.9674 2.0684,1.9288 l 14.9904,-0.5239 c 1.1039,-0.039 1.9675,-0.9647 1.929,-2.0686 l -0.523,-14.9903 c -0.039,-1.1039 -0.9646,-1.9675 -2.0685,-1.9289 l -14.9903,0.5239 c -1.1039,0.039 -1.9675,0.9647 -1.929,2.0686 z"
       style="fill:none;stroke:#231f20;stroke-width:1;stroke-linecap:butt;stroke-linejoin:miter;stroke-miterlimit:3.8637;stroke-dasharray:none;stroke-opacity:1"
       transform="matrix(1.3333333,0,0,-1.3333333,-2256,3168)" />
    <path
       id="path10"
       d="m 1960.2827,2097.6249 c 0.039,1.1039 0.9646,1.9674 2.0684,1.9288 l 14.9904,-0.5239 c 1.1039,-0.038 1.9675,-0.9647 1.929,-2.0685 l -0.523,-14.9904 c -0.038,-1.1039 -0.9646,-1.9675 -2.0684,-1.9289 l -14.9904,0.5239 c -1.1039,0.039 -1.9675,0.9647 -1.929,2.0686 z"
       style="fill:none;stroke:#231f20;stroke-width:1;stroke-linecap:butt;stroke-linejoin:miter;stroke-miterlimit:3.8637;stroke-dasharray:none;stroke-opacity:1"
       transform="matrix(1.3333333,0,0,-1.3333333,-2256,3168)" />
    <path
       id="path11"
       d="m 1983.5386,2096.8121 c 0.038,1.1039 0.9646,1.9674 2.0685,1.9288 l 14.9903,-0.5239 c 1.1039,-0.039 1.9675,-0.9647 1.929,-2.0685 l -0.523,-14.9904 c -0.039,-1.1039 -0.9646,-1.9675 -2.0684,-1.9289 l -14.9904,0.5239 c -1.1039,0.039 -1.9675,0.9647 -1.929,2.0686 z"
       style="fill:none;stroke:#231f20;stroke-width:1;stroke-linecap:butt;stroke-linejoin:miter;stroke-miterlimit:3.8637;stroke-dasharray:none;stroke-opacity:1"
       transform="matrix(1.3333333,0,0,-1.3333333,-2256,3168)" />
    <path
       id="path12"
       d="m 2006.7945,2095.9993 c 0.039,1.1039 0.9646,1.9674 2.0685,1.9289 l 14.9903,-0.524 c 1.1039,-0.039 1.9675,-0.9646 1.929,-2.0685 l -0.523,-14.9904 c -0.038,-1.1039 -0.9645,-1.9675 -2.0684,-1.9289 l -14.9904,0.5239 c -1.1039,0.039 -1.9675,0.9647 -1.929,2.0686 z"
       style="fill:none;stroke:#231f20;stroke-width:1;stroke-linecap:butt;stroke-linejoin:miter;stroke-miterlimit:3.8637;stroke-dasharray:none;stroke-opacity:1"
       transform="matrix(1.3333333,0,0,-1.3333333,-2256,3168)" />
    <path
       id="path13"
       d="m 2030.0504,2095.1865 c 0.039,1.1039 0.9646,1.9675 2.0685,1.9289 l 14.9904,-0.5239 c 1.1039,-0.039 1.9675,-0.9647 1.929,-2.0686 l -0.523,-14.9904 c -0.039,-1.1039 -0.9646,-1.9674 -2.0685,-1.9289 l -14.9904,0.524 c -1.1038,0.039 -1.9675,0.9647 -1.929,2.0685 z"
       style="fill:none;stroke:#231f20;stroke-width:1;stroke-linecap:butt;stroke-linejoin:miter;stroke-miterlimit:3.8637;stroke-dasharray:none;stroke-opacity:1"
       transform="matrix(1.3333333,0,0,-1.3333333,-2256,3168)" />
    <path
       id="path14"
       d="m 2053.3064,2094.3737 c 0.039,1.1039 0.9645,1.9675 2.0684,1.9289 l 14.9904,-0.5239 c 1.1039,-0.039 1.9675,-0.9647 1.929,-2.0686 l -0.523,-14.9904 c -0.039,-1.1039 -0.9646,-1.9674 -2.0685,-1.9288 l -14.9903,0.5239 c -1.1039,0.039 -1.9675,0.9647 -1.929,2.0685 z"
       style="fill:none;stroke:#231f20;stroke-width:1;stroke-linecap:butt;stroke-linejoin:miter;stroke-miterlimit:3.8637;stroke-dasharray:none;stroke-opacity:1"
       transform="matrix(1.3333333,0,0,-1.3333333,-2256,3168)" />
    <path
       id="path15"
       d="m 2076.5623,2093.5609 c 0.039,1.1039 0.9646,1.9675 2.0684,1.9289 l 14.9904,-0.5239 c 1.1039,-0.039 1.9675,-0.9647 1.929,-2.0686 l -0.523,-14.9904 c -0.038,-1.1038 -0.9646,-1.9674 -2.0685,-1.9288 l -14.9903,0.5239 c -1.1039,0.039 -1.9675,0.9647 -1.929,2.0686 z"
       style="fill:none;stroke:#231f20;stroke-width:1;stroke-linecap:butt;stroke-linejoin:miter;stroke-miterlimit:3.8637;stroke-dasharray:none;stroke-opacity:1"
       transform="matrix(1.3333333,0,0,-1.3333333,-2256,3168)" />
    <path
       id="path16"
       d="m 2099.8182,2092.7481 c 0.038,1.1039 0.9646,1.9675 2.0685,1.9289 l 14.9903,-0.5239 c 1.1039,-0.039 1.9675,-0.9647 1.929,-2.0686 l -0.523,-14.9904 c -0.039,-1.1038 -0.9645,-1.9674 -2.0684,-1.9288 l -14.9904,0.5239 c -1.1039,0.039 -1.9675,0.9647 -1.929,2.0686 z"
       style="fill:none;stroke:#231f20;stroke-width:1;stroke-linecap:butt;stroke-linejoin:miter;stroke-miterlimit:3.8637;stroke-dasharray:none;stroke-opacity:1"
       transform="matrix(1.3333333,0,0,-1.3333333,-2256,3168)" />
    <path
       id="path17"
       d="m 1837.0238,2081.2822 11.3491,-0.3963 c 1.1039,-0.039 1.9675,-0.9647 1.929,-2.0686 l -0.5235,-14.9908 c -0.034,-0.981 -0.7695,-1.7722 -1.7076,-1.9092"
       style="fill:none;stroke:#231f20;stroke-width:1;stroke-linecap:butt;stroke-linejoin:miter;stroke-miterlimit:3.8637;stroke-dasharray:none;stroke-opacity:1"
       transform="matrix(1.3333333,0,0,-1.3333333,-2256,3168)" />
    <path
       id="path18"
       d="m 1850.4118,2057.5507 2.8962,-0.1012 c 1.1039,-0.039 1.9675,-0.9647 1.9289,-2.0686 l -0.1684,-4.8227"
       style="fill:none;stroke:#231f20;stroke-width:1;stroke-linecap:butt;stroke-linejoin:miter;stroke-miterlimit:3.8637;stroke-dasharray:none;stroke-opacity:1"
       transform="matrix(1.3333333,0,0,-1.3333333,-2256,3168)" />
    <path
       id="path19"
       d="m 1869.4666,2025.8984 0.2257,6.4641 c 0.039,1.104 0.9647,1.9676 2.0686,1.929 l 14.9908,-0.5235 c 1.1039,-0.039 1.9675,-0.9646 1.9289,-2.0685 l -0.5234,-14.9908 c -0.039,-1.1039 -0.9647,-1.9675 -2.0686,-1.929 l -10.7942,0.377"
       style="fill:none;stroke:#231f20;stroke-width:1;stroke-linecap:butt;stroke-linejoin:miter;stroke-miterlimit:3.8637;stroke-dasharray:none;stroke-opacity:1"
       transform="matrix(1.3333333,0,0,-1.3333333,-2256,3168)" />
    <path
       id="path20"
       d="m 1854.4735,2078.5597 c 0.038,1.1039 0.9646,1.9675 2.0684,1.9289 l 14.9904,-0.5239 c 1.1039,-0.039 1.9675,-0.9647 1.929,-2.0686 l -0.523,-14.9904 c -0.039,-1.1038 -0.9646,-1.9674 -2.0684,-1.9288 l -14.9904,0.5239 c -1.1039,0.039 -1.9675,0.9647 -1.929,2.0685 z"
       style="fill:none;stroke:#231f20;stroke-width:1;stroke-linecap:butt;stroke-linejoin:miter;stroke-miterlimit:3.8637;stroke-dasharray:none;stroke-opacity:1"
       transform="matrix(1.3333333,0,0,-1.3333333,-2256,3168)" />
    <path
       id="path21"
       d="m 1877.7502,2077.7462 c 0.039,1.1039 0.9646,1.9675 2.0685,1.9289 l 14.9904,-0.5239 c 1.1038,-0.039 1.9675,-0.9647 1.9289,-2.0686 l -0.5229,-14.9904 c -0.039,-1.1039 -0.9646,-1.9674 -2.0685,-1.9289 l -14.9904,0.524 c -1.1039,0.039 -1.9675,0.9647 -1.929,2.0685 z"
       style="fill:none;stroke:#231f20;stroke-width:1;stroke-linecap:butt;stroke-linejoin:miter;stroke-miterlimit:3.8637;stroke-dasharray:none;stroke-opacity:1"
       transform="matrix(1.3333333,0,0,-1.3333333,-2256,3168)" />
    <path
       id="path22"
       d="m 1901.027,2076.9327 c 0.038,1.1039 0.9646,1.9674 2.0684,1.9289 l 14.9904,-0.5239 c 1.1039,-0.039 1.9675,-0.9647 1.929,-2.0686 l -0.523,-14.9904 c -0.039,-1.1039 -0.9646,-1.9675 -2.0684,-1.9289 l -14.9904,0.5239 c -1.1039,0.039 -1.9675,0.9648 -1.929,2.0686 z"
       style="fill:none;stroke:#231f20;stroke-width:1;stroke-linecap:butt;stroke-linejoin:miter;stroke-miterlimit:3.8637;stroke-dasharray:none;stroke-opacity:1"
       transform="matrix(1.3333333,0,0,-1.3333333,-2256,3168)" />
    <path
       id="path23"
       d="m 1924.3037,2076.1192 c 0.039,1.1039 0.9646,1.9674 2.0685,1.9288 l 14.9903,-0.5239 c 1.1039,-0.039 1.9675,-0.9647 1.929,-2.0685 l -0.523,-14.9904 c -0.038,-1.1039 -0.9645,-1.9675 -2.0684,-1.9289 l -14.9904,0.5239 c -1.1039,0.039 -1.9675,0.9647 -1.929,2.0686 z"
       style="fill:none;stroke:#231f20;stroke-width:1;stroke-linecap:butt;stroke-linejoin:miter;stroke-miterlimit:3.8637;stroke-dasharray:none;stroke-opacity:1"
       transform="matrix(1.3333333,0,0,-1.3333333,-2256,3168)" />
    <path
       id="path24"
       d="m 1947.5805,2075.3057 c 0.038,1.1039 0.9645,1.9674 2.0684,1.9288 l 14.9904,-0.5239 c 1.1039,-0.039 1.9675,-0.9647 1.929,-2.0685 l -0.523,-14.9904 c -0.038,-1.1039 -0.9646,-1.9675 -2.0685,-1.9289 l -14.9904,0.5239 c -1.1038,0.039 -1.9675,0.9647 -1.9289,2.0686 z"
       style="fill:none;stroke:#231f20;stroke-width:1;stroke-linecap:butt;stroke-linejoin:miter;stroke-miterlimit:3.8637;stroke-dasharray:none;stroke-opacity:1"
       transform="matrix(1.3333333,0,0,-1.3333333,-2256,3168)" />
    <path
       id="path25"
       d="m 1970.8572,2074.4922 c 0.039,1.1038 0.9646,1.9674 2.0684,1.9288 l 14.9904,-0.5239 c 1.1039,-0.039 1.9675,-0.9647 1.929,-2.0686 l -0.523,-14.9904 c -0.038,-1.1038 -0.9646,-1.9674 -2.0684,-1.9288 l -14.9904,0.5239 c -1.1039,0.039 -1.9675,0.9647 -1.929,2.0686 z"
       style="fill:none;stroke:#231f20;stroke-width:1;stroke-linecap:butt;stroke-linejoin:miter;stroke-miterlimit:3.8637;stroke-dasharray:none;stroke-opacity:1"
       transform="matrix(1.3333333,0,0,-1.3333333,-2256,3168)" />
    <path
       id="path26"
       d="m 1994.1339,2073.6786 c 0.038,1.1039 0.9646,1.9675 2.0685,1.9289 l 14.9904,-0.5239 c 1.1038,-0.039 1.9675,-0.9647 1.9289,-2.0686 l -0.5229,-14.9904 c -0.039,-1.1038 -0.9646,-1.9674 -2.0685,-1.9288 l -14.9904,0.5239 c -1.1039,0.039 -1.9675,0.9647 -1.929,2.0685 z"
       style="fill:none;stroke:#231f20;stroke-width:1;stroke-linecap:butt;stroke-linejoin:miter;stroke-miterlimit:3.8637;stroke-dasharray:none;stroke-opacity:1"
       transform="matrix(1.3333333,0,0,-1.3333333,-2256,3168)" />
    <path
       id="path27"
       d="m 2017.4107,2072.8651 c 0.039,1.1039 0.9645,1.9675 2.0684,1.9289 l 14.9904,-0.5239 c 1.1039,-0.039 1.9675,-0.9647 1.929,-2.0686 l -0.523,-14.9904 c -0.039,-1.1039 -0.9646,-1.9674 -2.0685,-1.9288 l -14.9903,0.5239 c -1.1039,0.039 -1.9675,0.9647 -1.929,2.0685 z"
       style="fill:none;stroke:#231f20;stroke-width:1;stroke-linecap:butt;stroke-linejoin:miter;stroke-miterlimit:3.8637;stroke-dasharray:none;stroke-opacity:1"
       transform="matrix(1.3333333,0,0,-1.3333333,-2256,3168)" />
    <path
       id="path28"
       d="m 2040.6874,2072.0516 c 0.038,1.1039 0.9646,1.9674 2.0685,1.9289 l 14.9904,-0.5239 c 1.1038,-0.039 1.9675,-0.9647 1.9289,-2.0686 l -0.523,-14.9904 c -0.039,-1.1039 -0.9645,-1.9674 -2.0684,-1.9289 l -14.9904,0.5239 c -1.1039,0.039 -1.9675,0.9647 -1.929,2.0686 z"
       style="fill:none;stroke:#231f20;stroke-width:1;stroke-linecap:butt;stroke-linejoin:miter;stroke-miterlimit:3.8637;stroke-dasharray:none;stroke-opacity:1"
       transform="matrix(1.3333333,0,0,-1.3333333,-2256,3168)" />
    <path
       id="path29"
       d="m 2063.9641,2071.2381 c 0.039,1.1039 0.9646,1.9674 2.0685,1.9288 l 14.9904,-0.5239 c 1.1039,-0.039 1.9675,-0.9647 1.929,-2.0685 l -0.523,-14.9904 c -0.039,-1.1039 -0.9646,-1.9675 -2.0685,-1.9289 l -14.9904,0.5239 c -1.1038,0.039 -1.9675,0.9647 -1.929,2.0686 z"
       style="fill:none;stroke:#231f20;stroke-width:1;stroke-linecap:butt;stroke-linejoin:miter;stroke-miterlimit:3.8637;stroke-dasharray:none;stroke-opacity:1"
       transform="matrix(1.3333333,0,0,-1.3333333,-2256,3168)" />
    <path
       id="path30"
       d="m 2087.2409,2070.4246 c 0.039,1.1039 0.9646,1.9674 2.0684,1.9288 l 14.9904,-0.5239 c 1.1039,-0.039 1.9675,-0.9647 1.929,-2.0685 l -0.523,-14.9904 c -0.039,-1.1039 -0.9646,-1.9675 -2.0684,-1.9289 l -14.9904,0.5239 c -1.1039,0.039 -1.9675,0.9647 -1.929,2.0686 z"
       style="fill:none;stroke:#231f20;stroke-width:1;stroke-linecap:butt;stroke-linejoin:miter;stroke-miterlimit:3.8637;stroke-dasharray:none;stroke-opacity:1"
       transform="matrix(1.3333333,0,0,-1.3333333,-2256,3168)" />
    <path
       id="path31"
       d="m 2110.5176,2069.611 c 0.038,1.1039 0.9646,1.9675 2.0685,1.9289 l 14.9904,-0.5239 c 1.1039,-0.039 1.9675,-0.9647 1.929,-2.0686 l -0.523,-14.9904 c -0.039,-1.1038 -0.9646,-1.9674 -2.0685,-1.9288 l -14.9904,0.5239 c -1.1039,0.039 -1.9675,0.9647 -1.929,2.0686 z"
       style="fill:none;stroke:#231f20;stroke-width:1;stroke-linecap:butt;stroke-linejoin:miter;stroke-miterlimit:3.8637;stroke-dasharray:none;stroke-opacity:1"
       transform="matrix(1.3333333,0,0,-1.3333333,-2256,3168)" />
    <path
       id="path32"
       d="m 1858.1461,2045.5638 0.3563,10.2034 c 0.038,1.1039 0.9646,1.9675 2.0686,1.929 l 14.9907,-0.5235 c 1.1039,-0.039 1.9676,-0.9647 1.929,-2.0686 l -0.5235,-14.9908 c -0.039,-1.1039 -0.9646,-1.9675 -2.0686,-1.9289 l -13.4701,0.4704"
       style="fill:none;stroke:#231f20;stroke-width:1;stroke-linecap:butt;stroke-linejoin:miter;stroke-miterlimit:3.8637;stroke-dasharray:none;stroke-opacity:1"
       transform="matrix(1.3333333,0,0,-1.3333333,-2256,3168)" />
    <path
       id="path33"
       d="m 1881.8024,2054.8415 c 0.038,1.1038 0.9646,1.9674 2.0684,1.9288 l 14.9904,-0.5239 c 1.1039,-0.039 1.9675,-0.9647 1.929,-2.0686 l -0.523,-14.9903 c -0.039,-1.1039 -0.9646,-1.9675 -2.0684,-1.9289 l -14.9904,0.5239 c -1.1039,0.039 -1.9675,0.9647 -1.929,2.0686 z"
       style="fill:none;stroke:#231f20;stroke-width:1;stroke-linecap:butt;stroke-linejoin:miter;stroke-miterlimit:3.8637;stroke-dasharray:none;stroke-opacity:1"
       transform="matrix(1.3333333,0,0,-1.3333333,-2256,3168)" />
    <path
       id="path34"
       d="m 1905.2192,2054.0231 c 0.039,1.1038 0.9646,1.9674 2.0685,1.9288 l 14.9903,-0.5239 c 1.1039,-0.039 1.9675,-0.9647 1.929,-2.0686 l -0.523,-14.9904 c -0.038,-1.1038 -0.9646,-1.9674 -2.0684,-1.9288 l -14.9904,0.5239 c -1.1039,0.039 -1.9675,0.9647 -1.929,2.0686 z"
       style="fill:none;stroke:#231f20;stroke-width:1;stroke-linecap:butt;stroke-linejoin:miter;stroke-miterlimit:3.8637;stroke-dasharray:none;stroke-opacity:1"
       transform="matrix(1.3333333,0,0,-1.3333333,-2256,3168)" />
    <path
       id="path35"
       d="m 1928.636,2053.2046 c 0.039,1.1039 0.9646,1.9675 2.0684,1.9289 l 14.9904,-0.5239 c 1.1039,-0.039 1.9675,-0.9647 1.929,-2.0686 l -0.523,-14.9904 c -0.038,-1.1039 -0.9646,-1.9674 -2.0684,-1.9288 l -14.9904,0.5239 c -1.1039,0.039 -1.9675,0.9647 -1.929,2.0685 z"
       style="fill:none;stroke:#231f20;stroke-width:1;stroke-linecap:butt;stroke-linejoin:miter;stroke-miterlimit:3.8637;stroke-dasharray:none;stroke-opacity:1"
       transform="matrix(1.3333333,0,0,-1.3333333,-2256,3168)" />
    <path
       id="path36"
       d="m 1952.0528,2052.3862 c 0.039,1.1039 0.9646,1.9675 2.0684,1.9289 l 14.9904,-0.5239 c 1.1039,-0.039 1.9675,-0.9647 1.929,-2.0686 l -0.523,-14.9904 c -0.038,-1.1039 -0.9645,-1.9674 -2.0684,-1.9288 l -14.9904,0.5239 c -1.1039,0.039 -1.9675,0.9647 -1.929,2.0685 z"
       style="fill:none;stroke:#231f20;stroke-width:1;stroke-linecap:butt;stroke-linejoin:miter;stroke-miterlimit:3.8637;stroke-dasharray:none;stroke-opacity:1"
       transform="matrix(1.3333333,0,0,-1.3333333,-2256,3168)" />
    <path
       id="path37"
       d="m 1975.4696,2051.5678 c 0.039,1.1039 0.9646,1.9675 2.0685,1.9289 l 14.9903,-0.5239 c 1.1039,-0.039 1.9675,-0.9647 1.929,-2.0686 l -0.523,-14.9904 c -0.039,-1.1039 -0.9645,-1.9674 -2.0684,-1.9288 l -14.9904,0.5239 c -1.1039,0.038 -1.9675,0.9647 -1.929,2.0685 z"
       style="fill:none;stroke:#231f20;stroke-width:1;stroke-linecap:butt;stroke-linejoin:miter;stroke-miterlimit:3.8637;stroke-dasharray:none;stroke-opacity:1"
       transform="matrix(1.3333333,0,0,-1.3333333,-2256,3168)" />
    <path
       id="path38"
       d="m 1998.8864,2050.7494 c 0.038,1.1039 0.9646,1.9675 2.0684,1.9289 l 14.9904,-0.5239 c 1.1039,-0.039 1.9675,-0.9647 1.929,-2.0686 l -0.523,-14.9904 c -0.039,-1.1039 -0.9645,-1.9674 -2.0684,-1.9289 l -14.9904,0.5239 c -1.1039,0.039 -1.9675,0.9647 -1.929,2.0686 z"
       style="fill:none;stroke:#231f20;stroke-width:1;stroke-linecap:butt;stroke-linejoin:miter;stroke-miterlimit:3.8637;stroke-dasharray:none;stroke-opacity:1"
       transform="matrix(1.3333333,0,0,-1.3333333,-2256,3168)" />
    <path
       id="path39"
       d="m 2022.3032,2049.931 c 0.038,1.1039 0.9646,1.9674 2.0685,1.9289 l 14.9903,-0.524 c 1.1039,-0.039 1.9675,-0.9646 1.929,-2.0685 l -0.523,-14.9904 c -0.039,-1.1039 -0.9645,-1.9675 -2.0684,-1.9289 l -14.9904,0.5239 c -1.1039,0.039 -1.9675,0.9647 -1.929,2.0686 z"
       style="fill:none;stroke:#231f20;stroke-width:1;stroke-linecap:butt;stroke-linejoin:miter;stroke-miterlimit:3.8637;stroke-dasharray:none;stroke-opacity:1"
       transform="matrix(1.3333333,0,0,-1.3333333,-2256,3168)" />
    <path
       id="path40"
       d="m 2045.72,2049.1126 c 0.038,1.1039 0.9646,1.9674 2.0685,1.9288 l 14.9904,-0.5239 c 1.1038,-0.039 1.9674,-0.9647 1.9289,-2.0685 l -0.523,-14.9904 c -0.039,-1.1039 -0.9645,-1.9675 -2.0684,-1.9289 l -14.9904,0.5239 c -1.1039,0.039 -1.9675,0.9647 -1.929,2.0686 z"
       style="fill:none;stroke:#231f20;stroke-width:1;stroke-linecap:butt;stroke-linejoin:miter;stroke-miterlimit:3.8637;stroke-dasharray:none;stroke-opacity:1"
       transform="matrix(1.3333333,0,0,-1.3333333,-2256,3168)" />
    <path
       id="path41"
       d="m 2069.1368,2048.2942 c 0.038,1.1039 0.9646,1.9674 2.0685,1.9288 l 14.9903,-0.5239 c 1.1039,-0.039 1.9675,-0.9647 1.929,-2.0686 l -0.523,-14.9903 c -0.039,-1.1039 -0.9645,-1.9675 -2.0684,-1.9289 l -14.9904,0.5239 c -1.1039,0.039 -1.9675,0.9647 -1.929,2.0686 z"
       style="fill:none;stroke:#231f20;stroke-width:1;stroke-linecap:butt;stroke-linejoin:miter;stroke-miterlimit:3.8637;stroke-dasharray:none;stroke-opacity:1"
       transform="matrix(1.3333333,0,0,-1.3333333,-2256,3168)" />
    <path
       id="path42"
       d="m 2092.5536,2047.4757 c 0.038,1.1039 0.9646,1.9675 2.0685,1.9289 l 14.9904,-0.5239 c 1.1038,-0.039 1.9675,-0.9647 1.9289,-2.0686 l -0.523,-14.9904 c -0.039,-1.1038 -0.9645,-1.9674 -2.0684,-1.9288 l -14.9904,0.5239 c -1.1039,0.039 -1.9675,0.9647 -1.929,2.0686 z"
       style="fill:none;stroke:#231f20;stroke-width:1;stroke-linecap:butt;stroke-linejoin:miter;stroke-miterlimit:3.8637;stroke-dasharray:none;stroke-opacity:1"
       transform="matrix(1.3333333,0,0,-1.3333333,-2256,3168)" />
    <path
       id="path43"
       d="m 2115.9704,2046.6573 c 0.038,1.1039 0.9646,1.9675 2.0685,1.9289 l 14.9903,-0.5239 c 1.1039,-0.039 1.9675,-0.9647 1.929,-2.0686 l -0.523,-14.9904 c -0.039,-1.1038 -0.9645,-1.9674 -2.0684,-1.9288 l -14.9904,0.5239 c -1.1039,0.039 -1.9675,0.9647 -1.929,2.0686 z"
       style="fill:none;stroke:#231f20;stroke-width:1;stroke-linecap:butt;stroke-linejoin:miter;stroke-miterlimit:3.8637;stroke-dasharray:none;stroke-opacity:1"
       transform="matrix(1.3333333,0,0,-1.3333333,-2256,3168)" />
    <path
       id="path44"
       d="m 1892.9499,2031.4386 c 0.038,1.1039 0.9646,1.9674 2.0684,1.9288 l 14.9904,-0.5239 c 1.1039,-0.039 1.9675,-0.9647 1.929,-2.0685 l -0.523,-14.9904 c -0.039,-1.1039 -0.9646,-1.9675 -2.0684,-1.9289 l -14.9904,0.5239 c -1.1039,0.039 -1.9675,0.9647 -1.929,2.0686 z"
       style="fill:none;stroke:#231f20;stroke-width:1;stroke-linecap:butt;stroke-linejoin:miter;stroke-miterlimit:3.8637;stroke-dasharray:none;stroke-opacity:1"
       transform="matrix(1.3333333,0,0,-1.3333333,-2256,3168)" />
    <path
       id="path45"
       d="m 1916.3238,2030.6217 c 0.039,1.1038 0.9646,1.9674 2.0684,1.9288 l 14.9904,-0.5239 c 1.1039,-0.039 1.9675,-0.9647 1.929,-2.0686 l -0.523,-14.9904 c -0.039,-1.1038 -0.9646,-1.9674 -2.0685,-1.9288 l -14.9903,0.5239 c -1.1039,0.039 -1.9675,0.9647 -1.929,2.0686 z"
       style="fill:none;stroke:#231f20;stroke-width:1;stroke-linecap:butt;stroke-linejoin:miter;stroke-miterlimit:3.8637;stroke-dasharray:none;stroke-opacity:1"
       transform="matrix(1.3333333,0,0,-1.3333333,-2256,3168)" />
    <path
       id="path46"
       d="m 1939.6977,2029.8047 c 0.039,1.1039 0.9645,1.9675 2.0684,1.9289 l 14.9904,-0.5239 c 1.1039,-0.039 1.9675,-0.9647 1.929,-2.0686 l -0.523,-14.9904 c -0.038,-1.1038 -0.9646,-1.9674 -2.0684,-1.9288 l -14.9904,0.5239 c -1.1039,0.039 -1.9675,0.9647 -1.929,2.0686 z"
       style="fill:none;stroke:#231f20;stroke-width:1;stroke-linecap:butt;stroke-linejoin:miter;stroke-miterlimit:3.8637;stroke-dasharray:none;stroke-opacity:1"
       transform="matrix(1.3333333,0,0,-1.3333333,-2256,3168)" />
    <path
       id="path47"
       d="m 1963.0716,2028.9878 c 0.039,1.1039 0.9645,1.9675 2.0684,1.9289 l 14.9904,-0.5239 c 1.1039,-0.039 1.9675,-0.9647 1.929,-2.0686 l -0.523,-14.9904 c -0.038,-1.1039 -0.9646,-1.9674 -2.0684,-1.9288 l -14.9904,0.5239 c -1.1039,0.038 -1.9675,0.9647 -1.929,2.0685 z"
       style="fill:none;stroke:#231f20;stroke-width:1;stroke-linecap:butt;stroke-linejoin:miter;stroke-miterlimit:3.8637;stroke-dasharray:none;stroke-opacity:1"
       transform="matrix(1.3333333,0,0,-1.3333333,-2256,3168)" />
    <path
       id="path48"
       d="m 1986.4455,2028.1709 c 0.038,1.1039 0.9646,1.9675 2.0684,1.9289 l 14.9904,-0.5239 c 1.1039,-0.039 1.9675,-0.9647 1.929,-2.0686 l -0.523,-14.9904 c -0.039,-1.1039 -0.9646,-1.9674 -2.0684,-1.9288 l -14.9904,0.5239 c -1.1039,0.038 -1.9675,0.9647 -1.929,2.0685 z"
       style="fill:none;stroke:#231f20;stroke-width:1;stroke-linecap:butt;stroke-linejoin:miter;stroke-miterlimit:3.8637;stroke-dasharray:none;stroke-opacity:1"
       transform="matrix(1.3333333,0,0,-1.3333333,-2256,3168)" />
    <path
       id="path49"
       d="m 2009.8194,2027.354 c 0.038,1.1039 0.9645,1.9675 2.0684,1.9289 l 14.9904,-0.5239 c 1.1039,-0.039 1.9675,-0.9647 1.929,-2.0686 l -0.523,-14.9904 c -0.039,-1.1039 -0.9646,-1.9674 -2.0684,-1.9289 l -14.9904,0.524 c -1.1039,0.038 -1.9675,0.9646 -1.929,2.0685 z"
       style="fill:none;stroke:#231f20;stroke-width:1;stroke-linecap:butt;stroke-linejoin:miter;stroke-miterlimit:3.8637;stroke-dasharray:none;stroke-opacity:1"
       transform="matrix(1.3333333,0,0,-1.3333333,-2256,3168)" />
    <path
       id="path50"
       d="m 2033.1933,2026.5371 c 0.039,1.1039 0.9645,1.9674 2.0684,1.9289 l 14.9904,-0.5239 c 1.1039,-0.039 1.9675,-0.9647 1.929,-2.0686 l -0.523,-14.9904 c -0.039,-1.1039 -0.9646,-1.9675 -2.0684,-1.9289 l -14.9904,0.5239 c -1.1039,0.039 -1.9675,0.9647 -1.929,2.0686 z"
       style="fill:none;stroke:#231f20;stroke-width:1;stroke-linecap:butt;stroke-linejoin:miter;stroke-miterlimit:3.8637;stroke-dasharray:none;stroke-opacity:1"
       transform="matrix(1.3333333,0,0,-1.3333333,-2256,3168)" />
    <path
       id="path51"
       d="m 2056.5672,2025.7202 c 0.039,1.1039 0.9645,1.9674 2.0684,1.9288 l 14.9904,-0.5239 c 1.1039,-0.038 1.9675,-0.9647 1.929,-2.0685 l -0.523,-14.9904 c -0.039,-1.1039 -0.9646,-1.9675 -2.0685,-1.9289 l -14.9903,0.5239 c -1.1039,0.039 -1.9675,0.9647 -1.929,2.0686 z"
       style="fill:none;stroke:#231f20;stroke-width:1;stroke-linecap:butt;stroke-linejoin:miter;stroke-miterlimit:3.8637;stroke-dasharray:none;stroke-opacity:1"
       transform="matrix(1.3333333,0,0,-1.3333333,-2256,3168)" />
    <path
       id="path52"
       d="m 2079.9411,2024.9033 c 0.039,1.1039 0.9646,1.9674 2.0684,1.9288 l 14.9904,-0.5239 c 1.1039,-0.039 1.9675,-0.9647 1.929,-2.0685 l -0.523,-14.9904 c -0.039,-1.1039 -0.9646,-1.9675 -2.0684,-1.9289 l -14.9904,0.5239 c -1.1039,0.039 -1.9675,0.9647 -1.929,2.0686 z"
       style="fill:none;stroke:#231f20;stroke-width:1;stroke-linecap:butt;stroke-linejoin:miter;stroke-miterlimit:3.8637;stroke-dasharray:none;stroke-opacity:1"
       transform="matrix(1.3333333,0,0,-1.3333333,-2256,3168)" />
    <path
       id="path53"
       d="m 1879.2542,2008.5335 c 0.038,1.1039 0.9646,1.9675 2.0685,1.9289 l 27.8139,-0.9721 c 1.1039,-0.039 1.9675,-0.9647 1.929,-2.0686 l -0.6276,-17.9884 c -0.039,-1.1039 -0.9646,-1.9675 -2.0684,-1.9289 l -27.814,0.9721 c -1.1039,0.039 -1.9675,0.9647 -1.929,2.0686 z"
       style="fill:none;stroke:#231f20;stroke-width:1;stroke-linecap:butt;stroke-linejoin:miter;stroke-miterlimit:3.8637;stroke-dasharray:none;stroke-opacity:1"
       transform="matrix(1.3333333,0,0,-1.3333333,-2256,3168)" />
    <path
       id="path54"
       d="m 2055.4752,2002.3746 c 0.039,1.1039 0.9646,1.9675 2.0685,1.9289 l 27.8139,-0.9721 c 1.1039,-0.039 1.9675,-0.9647 1.929,-2.0686 l -0.6276,-17.9884 c -0.039,-1.1039 -0.9646,-1.9675 -2.0684,-1.9289 l -27.814,0.9721 c -1.1039,0.039 -1.9675,0.9647 -1.929,2.0686 z"
       style="fill:none;stroke:#231f20;stroke-width:1;stroke-linecap:butt;stroke-linejoin:miter;stroke-miterlimit:3.8637;stroke-dasharray:none;stroke-opacity:1"
       transform="matrix(1.3333333,0,0,-1.3333333,-2256,3168)" />
    <path
       id="path55"
       d="m 2090.4528,2001.1522 c 0.039,1.1039 0.9645,1.9674 2.0684,1.9289 l 22.2335,-0.7771 c 1.1038,-0.039 1.9675,-0.9647 1.929,-2.0686 l -0.6276,-17.9884 c -0.039,-1.1039 -0.9646,-1.9675 -2.0685,-1.9289 l -22.2334,0.777 c -1.1039,0.039 -1.9675,0.9647 -1.929,2.0686 z"
       style="fill:none;stroke:#231f20;stroke-width:1;stroke-linecap:butt;stroke-linejoin:miter;stroke-miterlimit:3.8637;stroke-dasharray:none;stroke-opacity:1"
       transform="matrix(1.3333333,0,0,-1.3333333,-2256,3168)" />
    <path
       id="path56"
       d="m 2120.184,2000.1131 c 0.038,1.1039 0.9646,1.9674 2.0685,1.9289 l 27.8139,-0.9721 c 1.1039,-0.039 1.9675,-0.9647 1.929,-2.0686 l -0.6276,-17.9885 c -0.039,-1.1039 -0.9645,-1.9674 -2.0684,-1.9288 l -27.814,0.9721 c -1.1039,0.038 -1.9675,0.9646 -1.929,2.0685 z"
       style="fill:none;stroke:#231f20;stroke-width:1;stroke-linecap:butt;stroke-linejoin:miter;stroke-miterlimit:3.8637;stroke-dasharray:none;stroke-opacity:1"
       transform="matrix(1.3333333,0,0,-1.3333333,-2256,3168)" />
    <path
       id="path57"
       d="m 2102.6763,2024.1087 c 0.039,1.1039 0.9646,1.9674 2.0684,1.9288 l 46.0523,-1.6095 c 1.1039,-0.039 1.9675,-0.9647 1.929,-2.0685 l -0.523,-14.9904 c -0.039,-1.1039 -0.9646,-1.9675 -2.0685,-1.9289 l -46.0522,1.6095 c -1.1039,0.039 -1.9675,0.9647 -1.929,2.0686 z"
       style="fill:none;stroke:#231f20;stroke-width:1;stroke-linecap:butt;stroke-linejoin:miter;stroke-miterlimit:3.8637;stroke-dasharray:none;stroke-opacity:1"
       transform="matrix(1.3333333,0,0,-1.3333333,-2256,3168)" />
    <path
       id="path58"
       d="m 2122.5534,2091.9535 c 0.039,1.1039 0.9646,1.9675 2.0685,1.9289 l 28.0638,-0.9808 c 1.1038,-0.039 1.9675,-0.9647 1.929,-2.0686 l -0.523,-14.9904 c -0.039,-1.1038 -0.9646,-1.9674 -2.0685,-1.9288 l -28.0638,0.9808 c -1.1039,0.039 -1.9675,0.9647 -1.929,2.0686 z"
       style="fill:none;stroke:#231f20;stroke-width:1;stroke-linecap:butt;stroke-linejoin:miter;stroke-miterlimit:3.8637;stroke-dasharray:none;stroke-opacity:1"
       transform="matrix(1.3333333,0,0,-1.3333333,-2256,3168)" />
    <path
       id="path59"
       d="m 2134.1319,2069.0357 c 0.039,1.1039 0.9646,1.9675 2.0685,1.929 l 15.8221,-0.5525 c 1.1039,-0.039 1.9675,-0.9647 1.929,-2.0686 l -0.445,-12.7422 -0.079,-2.2486 -0.7985,-22.8657 c -0.039,-1.1039 -0.9647,-1.9676 -2.0686,-1.929 l -9.8257,0.3431 c -1.1039,0.039 -1.9675,0.9647 -1.929,2.0686 l 0.7287,20.8669 -3.9976,0.1396 c -1.1039,0.039 -1.9675,0.9647 -1.9289,2.0686 l 0.5235,14.9908 z"
       style="fill:none;stroke:#231f20;stroke-width:1;stroke-linecap:butt;stroke-linejoin:miter;stroke-miterlimit:3.8637;stroke-dasharray:none;stroke-opacity:1"
       transform="matrix(1.3333333,0,0,-1.3333333,-2256,3168)" />
    <path
       id="path60"
       d="m 1844.9001,2116.416 c 0.038,1.1039 0.9646,1.9674 2.0685,1.9288 l 15.9897,-0.5588 c 1.1039,-0.039 1.9675,-0.9647 1.929,-2.0686 l -0.2789,-7.9948 c -0.039,-1.1039 -0.9646,-1.9675 -2.0685,-1.9289 l -15.9897,0.5588 c -1.1039,0.039 -1.9675,0.9647 -1.929,2.0686 z"
       style="fill:none;stroke:#231f20;stroke-width:0.5;stroke-linecap:butt;stroke-linejoin:miter;stroke-miterlimit:3.8636;stroke-dasharray:none;stroke-opacity:1"
       transform="matrix(1.3333333,0,0,-1.3333333,-2256,3168)" />
    <path
       id="path61"
       d="m 1820.7618,2117.2596 c 0.039,1.1039 0.9645,1.9675 2.0684,1.9289 l 15.9898,-0.5589 c 1.1038,-0.039 1.9675,-0.9647 1.9289,-2.0685 l -0.2789,-7.9949 c -0.039,-1.1039 -0.9646,-1.9674 -2.0684,-1.9289 l -15.9898,0.5589 c -1.1039,0.039 -1.9675,0.9647 -1.929,2.0685 z"
       style="fill:none;stroke:#231f20;stroke-width:1;stroke-linecap:butt;stroke-linejoin:miter;stroke-miterlimit:3.8637;stroke-dasharray:none;stroke-opacity:1"
       transform="matrix(1.3333333,0,0,-1.3333333,-2256,3168)" />
    <path
       id="path62"
       d="m 1869.0385,2115.5724 c 0.038,1.1038 0.9646,1.9674 2.0684,1.9288 l 15.9898,-0.5588 c 1.1039,-0.039 1.9675,-0.9647 1.929,-2.0686 l -0.279,-7.9949 c -0.038,-1.1038 -0.9645,-1.9674 -2.0684,-1.9288 l -15.9898,0.5588 c -1.1038,0.039 -1.9675,0.9647 -1.9289,2.0686 z"
       style="fill:none;stroke:#231f20;stroke-width:1;stroke-linecap:butt;stroke-linejoin:miter;stroke-miterlimit:3.8637;stroke-dasharray:none;stroke-opacity:1"
       transform="matrix(1.3333333,0,0,-1.3333333,-2256,3168)" />
    <path
       id="path63"
       d="m 1893.1769,2114.7287 c 0.039,1.1039 0.9645,1.9675 2.0684,1.9289 l 15.9898,-0.5588 c 1.1038,-0.039 1.9675,-0.9647 1.9289,-2.0686 l -0.2789,-7.9949 c -0.038,-1.1039 -0.9646,-1.9674 -2.0684,-1.9289 l -15.9898,0.5589 c -1.1039,0.039 -1.9675,0.9647 -1.929,2.0686 z"
       style="fill:none;stroke:#231f20;stroke-width:1;stroke-linecap:butt;stroke-linejoin:miter;stroke-miterlimit:3.8637;stroke-dasharray:none;stroke-opacity:1"
       transform="matrix(1.3333333,0,0,-1.3333333,-2256,3168)" />
    <path
       id="path64"
       d="m 1917.3152,2113.8851 c 0.038,1.1039 0.9646,1.9674 2.0685,1.9289 l 15.9897,-0.5589 c 1.1039,-0.039 1.9675,-0.9647 1.929,-2.0686 l -0.2789,-7.9948 c -0.039,-1.1039 -0.9646,-1.9675 -2.0685,-1.9289 l -15.9897,0.5589 c -1.1039,0.039 -1.9675,0.9647 -1.929,2.0685 z"
       style="fill:none;stroke:#231f20;stroke-width:1;stroke-linecap:butt;stroke-linejoin:miter;stroke-miterlimit:3.8637;stroke-dasharray:none;stroke-opacity:1"
       transform="matrix(1.3333333,0,0,-1.3333333,-2256,3168)" />
    <path
       id="path65"
       d="m 1941.4536,2113.0415 c 0.038,1.1039 0.9646,1.9674 2.0684,1.9288 l 15.9898,-0.5588 c 1.1039,-0.039 1.9675,-0.9647 1.929,-2.0686 l -0.279,-7.9949 c -0.039,-1.1038 -0.9645,-1.9674 -2.0684,-1.9288 l -15.9898,0.5588 c -1.1038,0.039 -1.9675,0.9647 -1.9289,2.0686 z"
       style="fill:none;stroke:#231f20;stroke-width:1;stroke-linecap:butt;stroke-linejoin:miter;stroke-miterlimit:3.8637;stroke-dasharray:none;stroke-opacity:1"
       transform="matrix(1.3333333,0,0,-1.3333333,-2256,3168)" />
    <path
       id="path66"
       d="m 1965.592,2112.1978 c 0.038,1.1039 0.9645,1.9675 2.0684,1.9289 l 15.9898,-0.5588 c 1.1038,-0.039 1.9675,-0.9647 1.9289,-2.0686 l -0.2789,-7.9949 c -0.038,-1.1038 -0.9646,-1.9674 -2.0684,-1.9288 l -15.9898,0.5588 c -1.1039,0.039 -1.9675,0.9647 -1.929,2.0686 z"
       style="fill:none;stroke:#231f20;stroke-width:1;stroke-linecap:butt;stroke-linejoin:miter;stroke-miterlimit:3.8637;stroke-dasharray:none;stroke-opacity:1"
       transform="matrix(1.3333333,0,0,-1.3333333,-2256,3168)" />
    <path
       id="path67"
       d="m 1989.7303,2111.3542 c 0.039,1.1039 0.9646,1.9675 2.0685,1.9289 l 15.9897,-0.5589 c 1.1039,-0.039 1.9675,-0.9647 1.929,-2.0685 l -0.2789,-7.9949 c -0.038,-1.1039 -0.9646,-1.9675 -2.0685,-1.9289 l -15.9897,0.5589 c -1.1039,0.038 -1.9675,0.9647 -1.929,2.0685 z"
       style="fill:none;stroke:#231f20;stroke-width:1;stroke-linecap:butt;stroke-linejoin:miter;stroke-miterlimit:3.8637;stroke-dasharray:none;stroke-opacity:1"
       transform="matrix(1.3333333,0,0,-1.3333333,-2256,3168)" />
    <path
       id="path68"
       d="m 2013.8687,2110.5106 c 0.039,1.1039 0.9646,1.9674 2.0684,1.9288 l 15.9898,-0.5588 c 1.1039,-0.039 1.9675,-0.9647 1.929,-2.0686 l -0.279,-7.9949 c -0.039,-1.1038 -0.9645,-1.9674 -2.0684,-1.9288 l -15.9898,0.5588 c -1.1038,0.039 -1.9674,0.9647 -1.9289,2.0686 z"
       style="fill:none;stroke:#231f20;stroke-width:1;stroke-linecap:butt;stroke-linejoin:miter;stroke-miterlimit:3.8637;stroke-dasharray:none;stroke-opacity:1"
       transform="matrix(1.3333333,0,0,-1.3333333,-2256,3168)" />
    <path
       id="path69"
       d="m 2038.0071,2109.6669 c 0.038,1.1039 0.9645,1.9675 2.0684,1.9289 l 15.9898,-0.5588 c 1.1038,-0.039 1.9675,-0.9647 1.9289,-2.0686 l -0.2789,-7.9949 c -0.038,-1.1038 -0.9646,-1.9674 -2.0684,-1.9288 l -15.9898,0.5588 c -1.1039,0.039 -1.9675,0.9647 -1.929,2.0686 z"
       style="fill:none;stroke:#231f20;stroke-width:1;stroke-linecap:butt;stroke-linejoin:miter;stroke-miterlimit:3.8637;stroke-dasharray:none;stroke-opacity:1"
       transform="matrix(1.3333333,0,0,-1.3333333,-2256,3168)" />
    <path
       id="path70"
       d="m 2062.1454,2108.8233 c 0.039,1.1039 0.9646,1.9675 2.0685,1.9289 l 15.9897,-0.5589 c 1.1039,-0.039 1.9675,-0.9647 1.929,-2.0685 l -0.2789,-7.9949 c -0.039,-1.1039 -0.9646,-1.9674 -2.0685,-1.9289 l -15.9897,0.5589 c -1.1039,0.039 -1.9675,0.9647 -1.929,2.0685 z"
       style="fill:none;stroke:#231f20;stroke-width:1;stroke-linecap:butt;stroke-linejoin:miter;stroke-miterlimit:3.8637;stroke-dasharray:none;stroke-opacity:1"
       transform="matrix(1.3333333,0,0,-1.3333333,-2256,3168)" />
    <path
       id="path71"
       d="m 2086.2838,2107.9797 c 0.038,1.1039 0.9646,1.9674 2.0684,1.9288 l 15.9898,-0.5588 c 1.1039,-0.039 1.9675,-0.9647 1.929,-2.0686 l -0.279,-7.9948 c -0.039,-1.1039 -0.9645,-1.9675 -2.0684,-1.9289 l -15.9898,0.5588 c -1.1038,0.039 -1.9674,0.9647 -1.9289,2.0686 z"
       style="fill:none;stroke:#231f20;stroke-width:1;stroke-linecap:butt;stroke-linejoin:miter;stroke-miterlimit:3.8637;stroke-dasharray:none;stroke-opacity:1"
       transform="matrix(1.3333333,0,0,-1.3333333,-2256,3168)" />
    <path
       id="path72"
       d="m 2110.4222,2107.1361 c 0.039,1.1038 0.9645,1.9674 2.0684,1.9288 l 15.9898,-0.5588 c 1.1038,-0.039 1.9675,-0.9647 1.9289,-2.0686 l -0.2789,-7.9949 c -0.039,-1.1038 -0.9646,-1.9674 -2.0684,-1.9288 l -15.9898,0.5588 c -1.1039,0.039 -1.9675,0.9647 -1.929,2.0686 z"
       style="fill:none;stroke:#231f20;stroke-width:1;stroke-linecap:butt;stroke-linejoin:miter;stroke-miterlimit:3.8637;stroke-dasharray:none;stroke-opacity:1"
       transform="matrix(1.3333333,0,0,-1.3333333,-2256,3168)" />
    <path
       id="path73"
       d="m 2134.5605,2106.2924 c 0.039,1.1039 0.9646,1.9675 2.0685,1.9289 l 15.9897,-0.5589 c 1.1039,-0.039 1.9675,-0.9647 1.929,-2.0685 l -0.2789,-7.9949 c -0.038,-1.1039 -0.9646,-1.9674 -2.0685,-1.9289 l -15.9897,0.5589 c -1.1039,0.039 -1.9675,0.9647 -1.929,2.0685 z"
       style="fill:none;stroke:#231f20;stroke-width:1;stroke-linecap:butt;stroke-linejoin:miter;stroke-miterlimit:3.8637;stroke-dasharray:none;stroke-opacity:1"
       transform="matrix(1.3333333,0,0,-1.3333333,-2256,3168)" />
    <path
       id="path74"
       d="m 2168.3412,2106.6127 c 0.039,1.1038 0.9646,1.9674 2.0685,1.9288 l 15.9897,-0.5588 c 1.1039,-0.039 1.9675,-0.9647 1.929,-2.0686 l -0.2789,-7.9949 c -0.039,-1.1038 -0.9646,-1.9674 -2.0685,-1.9288 l -15.9897,0.5588 c -1.1039,0.039 -1.9675,0.9647 -1.929,2.0686 z"
       style="fill:none;stroke:#231f20;stroke-width:1;stroke-linecap:butt;stroke-linejoin:miter;stroke-miterlimit:3.8637;stroke-dasharray:none;stroke-opacity:1"
       transform="matrix(1.3333333,0,0,-1.3333333,-2256,3168)" />
    <path
       id="path75"
       d="m 2191.8262,2105.7919 c 0.039,1.1038 0.9645,1.9674 2.0684,1.9288 l 15.9897,-0.5588 c 1.1039,-0.039 1.9675,-0.9647 1.929,-2.0686 l -0.2789,-7.9949 c -0.039,-1.1038 -0.9646,-1.9674 -2.0684,-1.9288 l -15.9898,0.5588 c -1.1039,0.039 -1.9675,0.9647 -1.929,2.0686 z"
       style="fill:none;stroke:#231f20;stroke-width:1;stroke-linecap:butt;stroke-linejoin:miter;stroke-miterlimit:3.8637;stroke-dasharray:none;stroke-opacity:1"
       transform="matrix(1.3333333,0,0,-1.3333333,-2256,3168)" />
    <path
       id="path76"
       d="m 2215.3111,2104.9711 c 0.039,1.1039 0.9646,1.9674 2.0684,1.9288 l 15.9898,-0.5588 c 1.1039,-0.039 1.9675,-0.9647 1.929,-2.0686 l -0.279,-7.9948 c -0.039,-1.1039 -0.9645,-1.9675 -2.0684,-1.9289 l -15.9898,0.5588 c -1.1038,0.039 -1.9675,0.9647 -1.9289,2.0686 z"
       style="fill:none;stroke:#231f20;stroke-width:1;stroke-linecap:butt;stroke-linejoin:miter;stroke-miterlimit:3.8637;stroke-dasharray:none;stroke-opacity:1"
       transform="matrix(1.3333333,0,0,-1.3333333,-2256,3168)" />
    <path
       id="path77"
       d="m 2168.2915,2090.8551 c 0.039,1.1039 0.9646,1.9675 2.0685,1.9289 l 15.9897,-0.5588 c 1.1039,-0.039 1.9675,-0.9647 1.929,-2.0686 l -0.5578,-15.9898 c -0.039,-1.1038 -0.9646,-1.9674 -2.0685,-1.9288 l -15.9897,0.5588 c -1.1039,0.039 -1.9675,0.9647 -1.929,2.0686 z"
       style="fill:none;stroke:#231f20;stroke-width:1;stroke-linecap:butt;stroke-linejoin:miter;stroke-miterlimit:3.8637;stroke-dasharray:none;stroke-opacity:1"
       transform="matrix(1.3333333,0,0,-1.3333333,-2256,3168)" />
    <path
       id="path78"
       d="m 2191.6517,2090.0387 c 0.039,1.1039 0.9645,1.9674 2.0684,1.9289 l 15.9897,-0.5589 c 1.1039,-0.039 1.9675,-0.9647 1.929,-2.0686 l -0.5578,-15.9897 c -0.039,-1.1039 -0.9646,-1.9674 -2.0685,-1.9289 l -15.9897,0.5589 c -1.1039,0.039 -1.9675,0.9647 -1.929,2.0685 z"
       style="fill:none;stroke:#231f20;stroke-width:1;stroke-linecap:butt;stroke-linejoin:miter;stroke-miterlimit:3.8637;stroke-dasharray:none;stroke-opacity:1"
       transform="matrix(1.3333333,0,0,-1.3333333,-2256,3168)" />
    <path
       id="path79"
       d="m 2215.0118,2089.2223 c 0.038,1.1038 0.9646,1.9674 2.0684,1.9288 l 15.9898,-0.5588 c 1.1039,-0.039 1.9675,-0.9647 1.929,-2.0686 l -0.5579,-15.9897 c -0.039,-1.1039 -0.9646,-1.9675 -2.0685,-1.9289 l -15.9897,0.5588 c -1.1039,0.039 -1.9675,0.9647 -1.929,2.0686 z"
       style="fill:none;stroke:#231f20;stroke-width:1;stroke-linecap:butt;stroke-linejoin:miter;stroke-miterlimit:3.8637;stroke-dasharray:none;stroke-opacity:1"
       transform="matrix(1.3333333,0,0,-1.3333333,-2256,3168)" />
    <path
       id="path80"
       d="m 2167.3822,2068.3741 c 0.039,1.1039 0.9646,1.9674 2.0685,1.9289 l 15.9897,-0.5589 c 1.1039,-0.039 1.9675,-0.9647 1.929,-2.0686 l -0.5579,-15.9897 c -0.038,-1.1039 -0.9645,-1.9675 -2.0684,-1.9289 l -15.9898,0.5589 c -1.1038,0.039 -1.9675,0.9647 -1.9289,2.0685 z"
       style="fill:none;stroke:#231f20;stroke-width:1;stroke-linecap:butt;stroke-linejoin:miter;stroke-miterlimit:3.8637;stroke-dasharray:none;stroke-opacity:1"
       transform="matrix(1.3333333,0,0,-1.3333333,-2256,3168)" />
    <path
       id="path81"
       d="m 2190.7423,2067.5577 c 0.039,1.1038 0.9646,1.9674 2.0685,1.9288 l 15.9897,-0.5588 c 1.1039,-0.039 1.9675,-0.9647 1.929,-2.0686 l -0.5578,-15.9897 c -0.039,-1.1039 -0.9646,-1.9675 -2.0685,-1.9289 l -15.9897,0.5588 c -1.1039,0.039 -1.9675,0.9647 -1.929,2.0686 z"
       style="fill:none;stroke:#231f20;stroke-width:1;stroke-linecap:butt;stroke-linejoin:miter;stroke-miterlimit:3.8637;stroke-dasharray:none;stroke-opacity:1"
       transform="matrix(1.3333333,0,0,-1.3333333,-2256,3168)" />
    <path
       id="path82"
       d="m 2214.1025,2066.7412 c 0.039,1.1039 0.9645,1.9675 2.0684,1.9289 l 15.9898,-0.5589 c 1.1038,-0.038 1.9675,-0.9646 1.929,-2.0685 l -0.5579,-15.9898 c -0.039,-1.1039 -0.9646,-1.9674 -2.0685,-1.9288 l -15.9897,0.5588 c -1.1039,0.039 -1.9675,0.9647 -1.929,2.0686 z"
       style="fill:none;stroke:#231f20;stroke-width:1;stroke-linecap:butt;stroke-linejoin:miter;stroke-miterlimit:3.8637;stroke-dasharray:none;stroke-opacity:1"
       transform="matrix(1.3333333,0,0,-1.3333333,-2256,3168)" />
    <path
       id="path83"
       d="m 2164.9926,1980.2669 c -0.037,0.1637 -0.053,0.3348 -0.047,0.5103 l 0.5584,15.9902 c 0.039,1.1039 0.9646,1.9675 2.0685,1.929 l 15.9902,-0.5584 c 1.1039,-0.039 1.9675,-0.9646 1.929,-2.0686 l -0.375,-10.7374"
       style="fill:none;stroke:#231f20;stroke-width:1;stroke-linecap:butt;stroke-linejoin:miter;stroke-miterlimit:3.8637;stroke-dasharray:none;stroke-opacity:1"
       transform="matrix(1.3333333,0,0,-1.3333333,-2256,3168)" />
    <path
       id="path84"
       d="m 2188.5626,1987.3122 0.3017,8.6394 c 0.039,1.1039 0.9647,1.9676 2.0686,1.929 l 15.9901,-0.5584 c 1.1039,-0.039 1.9676,-0.9646 1.929,-2.0685 l -0.1225,-3.5072"
       style="fill:none;stroke:#231f20;stroke-width:1;stroke-linecap:butt;stroke-linejoin:miter;stroke-miterlimit:3.8637;stroke-dasharray:none;stroke-opacity:1"
       transform="matrix(1.3333333,0,0,-1.3333333,-2256,3168)" />
    <path
       id="path85"
       d="m 2212.1445,1992.8298 0.081,2.3061 c 0.039,1.1039 0.9646,1.9675 2.0685,1.9289 l 10.8688,-0.3795"
       style="fill:none;stroke:#231f20;stroke-width:1;stroke-linecap:butt;stroke-linejoin:miter;stroke-miterlimit:3.8637;stroke-dasharray:none;stroke-opacity:1"
       transform="matrix(1.3333333,0,0,-1.3333333,-2256,3168)" />
    <path
       id="path86"
       d="m 2189.2925,2018.8302 c 0.039,1.1038 0.9645,1.9674 2.0684,1.9288 l 15.9898,-0.5588 c 1.1038,-0.039 1.9675,-0.9647 1.9289,-2.0686 l -0.5578,-15.9897 c -0.038,-1.1039 -0.9646,-1.9675 -2.0685,-1.9289 l -15.9897,0.5588 c -1.1039,0.039 -1.9675,0.9648 -1.929,2.0686 z"
       style="fill:none;stroke:#231f20;stroke-width:1;stroke-linecap:butt;stroke-linejoin:miter;stroke-miterlimit:3.8637;stroke-dasharray:none;stroke-opacity:1"
       transform="matrix(1.3333333,0,0,-1.3333333,-2256,3168)" />
    <path
       id="path87"
       d="m 2001.4285,1848.6873 6.1416,-25.1329"
       style="fill:none;stroke:#231f20;stroke-width:1;stroke-linecap:butt;stroke-linejoin:miter;stroke-miterlimit:3.8637;stroke-dasharray:none;stroke-opacity:1"
       transform="matrix(1.3333333,0,0,-1.3333333,-2256,3168)" />
    <path
       id="path88"
       d="m 2301.5131,2017.413 -279.1429,-75.2997"
       style="fill:none;stroke:#231f20;stroke-width:1;stroke-linecap:butt;stroke-linejoin:miter;stroke-miterlimit:3.8637;stroke-dasharray:none;stroke-opacity:1"
       transform="matrix(1.3333333,0,0,-1.3333333,-2256,3168)" />
    <path
       id="path89"
       d="m 2076.6316,2117.8219 c 1.5315,5.356 5.4514,7.4705 10.4764,9.8903 4.2936,2.0702 7.0786,2.1293 11.6282,3.4713"
       style="fill:none;stroke:#231f20;stroke-width:1;stroke-linecap:butt;stroke-linejoin:miter;stroke-miterlimit:3.8637;stroke-dasharray:none;stroke-opacity:1"
       transform="matrix(1.3333333,0,0,-1.3333333,-2256,3168)" />
    <path
       id="path90"
       d="m 2080.3793,2117.691 c 1.1596,1.8669 1.5224,4.1994 2.548,4.9141 3.47,2.418 6.3479,3.5931 10.2802,4.2688 6.4168,1.0892 9.2708,1.3335 15.5051,3.4609"
       style="fill:none;stroke:#231f20;stroke-width:1;stroke-linecap:butt;stroke-linejoin:miter;stroke-miterlimit:3.8637;stroke-dasharray:none;stroke-opacity:1"
       transform="matrix(1.3333333,0,0,-1.3333333,-2256,3168)" />
    <path
       id="path91"
       d="m 1722.7981,1913.0773 -12.0487,-7.6145 -2.7364,7.6"
       style="fill:none;stroke:#231f20;stroke-width:1;stroke-linecap:butt;stroke-linejoin:miter;stroke-miterlimit:3.8637;stroke-dasharray:none;stroke-opacity:1"
       transform="matrix(1.3333333,0,0,-1.3333333,-2256,3168)" />
    <path
       id="path92"
       d="m 1803.4337,2138.3688 74.6065,-127.1806 -119.5664,-75.5643"
       style="fill:none;stroke:#231f20;stroke-width:1;stroke-linecap:butt;stroke-linejoin:miter;stroke-miterlimit:3.8637;stroke-dasharray:none;stroke-opacity:1"
       transform="matrix(1.3333333,0,0,-1.3333333,-2256,3168)" />
    <path
       id="path93"
       d="m 1875.7336,2009.8896 c 0.1558,-0.3255 0.3191,-0.7175 0.3046,-1.133 l -0.6281,-17.9889 c -0.039,-1.1039 -0.9647,-1.9675 -2.0686,-1.929 l -27.8147,0.9713 c -0.512,0.018 -0.9723,0.2267 -1.3149,0.5556"
       style="fill:none;stroke:#231f20;stroke-width:1;stroke-linecap:butt;stroke-linejoin:miter;stroke-miterlimit:3.8637;stroke-dasharray:none;stroke-opacity:1"
       transform="matrix(1.3333333,0,0,-1.3333333,-2256,3168)" />
    <path
       id="path94"
       d="m 1760.1071,1943.5132 111.4633,68.6514 -74.9088,125.6902"
       style="fill:none;stroke:#231f20;stroke-width:1;stroke-linecap:butt;stroke-linejoin:miter;stroke-miterlimit:3.8637;stroke-dasharray:none;stroke-opacity:1"
       transform="matrix(1.3333333,0,0,-1.3333333,-2256,3168)" />
    <path
       id="path95"
       d="m 1794.6542,2137.6747 69.5635,-113.9965 -103.0556,-71.4466"
       style="fill:none;stroke:#231f20;stroke-width:1;stroke-linecap:butt;stroke-linejoin:miter;stroke-miterlimit:3.8637;stroke-dasharray:none;stroke-opacity:1"
       transform="matrix(1.3333333,0,0,-1.3333333,-2256,3168)" />
    <path
       id="path96"
       d="m 1762.2279,2056.1415 9.1176,73.0916 8.1489,-3.0362 -5.893,-52.6788"
       style="fill:none;stroke:#231f20;stroke-width:1;stroke-linecap:butt;stroke-linejoin:miter;stroke-miterlimit:3.8637;stroke-dasharray:none;stroke-opacity:1"
       transform="matrix(1.3333333,0,0,-1.3333333,-2256,3168)" />
    <path
       id="path97"
       d="m 1766.6721,2011.4943 -10.453,-93.3607 -11.6238,-3.3464 13.1364,105.3102"
       style="fill:none;stroke:#231f20;stroke-width:1;stroke-linecap:butt;stroke-linejoin:miter;stroke-miterlimit:3.8637;stroke-dasharray:none;stroke-opacity:1"
       transform="matrix(1.3333333,0,0,-1.3333333,-2256,3168)" />
    <path
       id="path98"
       d="m 1768.0975,2024.2094 -0.8761,-7.815"
       style="fill:none;stroke:#231f20;stroke-width:1;stroke-linecap:butt;stroke-linejoin:miter;stroke-miterlimit:3.8637;stroke-dasharray:none;stroke-opacity:1"
       transform="matrix(1.3333333,0,0,-1.3333333,-2256,3168)" />
    <path
       id="path99"
       d="m 1771.5175,2054.6746 -2.0655,-18.3901"
       style="fill:none;stroke:#231f20;stroke-width:1;stroke-linecap:butt;stroke-linejoin:miter;stroke-miterlimit:3.8637;stroke-dasharray:none;stroke-opacity:1"
       transform="matrix(1.3333333,0,0,-1.3333333,-2256,3168)" />
    <path
       id="path100"
       d="m 1763.2048,2055.135 9.3288,72.3055 -34.1472,10.6982"
       style="fill:none;stroke:#231f20;stroke-width:1;stroke-linecap:butt;stroke-linejoin:miter;stroke-miterlimit:3.8637;stroke-dasharray:none;stroke-opacity:1"
       transform="matrix(1.3333333,0,0,-1.3333333,-2256,3168)" />
    <path
       id="path101"
       d="m 1693.2142,1919.0829 51.8808,-4.3132 13.8275,107.1733"
       style="fill:none;stroke:#231f20;stroke-width:1;stroke-linecap:butt;stroke-linejoin:miter;stroke-miterlimit:3.8637;stroke-dasharray:none;stroke-opacity:1"
       transform="matrix(1.3333333,0,0,-1.3333333,-2256,3168)" />
    <path
       id="path102"
       d="m 1693.3332,1915.3265 52.8801,-4.3481 1.8973,4.1863"
       style="fill:none;stroke:#231f20;stroke-width:1;stroke-linecap:butt;stroke-linejoin:miter;stroke-miterlimit:3.8637;stroke-dasharray:none;stroke-opacity:1"
       transform="matrix(1.3333333,0,0,-1.3333333,-2256,3168)" />
    <path
       id="path103"
       d="m 1767.1663,2088.3543 c 0,0 10.9718,-29.6509 12.5201,-35.4584 1.5482,-5.8075 1.9654,-36.8408 -1.3436,-38.4763 -3.3091,-1.6355 -11.7079,1.4094 -14.1279,3.7453 -2.4199,2.3358 -2.876,3.6025 -2.876,3.6025"
       style="fill:none;stroke:#231f20;stroke-width:1;stroke-linecap:butt;stroke-linejoin:miter;stroke-miterlimit:3.8637;stroke-dasharray:none;stroke-opacity:1"
       transform="matrix(1.3333333,0,0,-1.3333333,-2256,3168)" />
    <path
       id="path104"
       d="m 1765.6173,2072.6489 c 0,0 11.7356,-36.4316 11.5437,-41.9282 -0.192,-5.4967 -1.4008,-11.4581 -3.4781,-13.6369 -2.0773,-2.1788 -5.7147,-6.0542 -8.678,-4.9501 -2.9632,1.1041 -7.1146,4.0007 -7.1146,4.0007"
       style="fill:none;stroke:#231f20;stroke-width:1;stroke-linecap:butt;stroke-linejoin:miter;stroke-miterlimit:3.8637;stroke-dasharray:none;stroke-opacity:1"
       transform="matrix(1.3333333,0,0,-1.3333333,-2256,3168)" />
    <path
       id="path105"
       d="m 1737.9129,2138.9057 33.3882,-111.2324 c 0,0 1.1707,-2.2922 -5.921,-4.7962 -7.0917,-2.504 -69.7024,-26.0832 -69.7024,-26.0832"
       style="fill:none;stroke:#231f20;stroke-width:1;stroke-linecap:butt;stroke-linejoin:miter;stroke-miterlimit:3.8637;stroke-dasharray:none;stroke-opacity:1"
       transform="matrix(1.3333333,0,0,-1.3333333,-2256,3168)" />
    <path
       id="path106"
       d="m 1695.5064,1999.0513 74.2083,26.1759 c 0,0 1.7751,0.6885 0.8979,4.2212 -0.8772,3.5328 -32.9409,109.7159 -32.9409,109.7159"
       style="fill:none;stroke:#231f20;stroke-width:1;stroke-linecap:butt;stroke-linejoin:miter;stroke-miterlimit:3.8637;stroke-dasharray:none;stroke-opacity:1"
       transform="matrix(1.3333333,0,0,-1.3333333,-2256,3168)" />
    <path
       id="path107"
       d="m 1729.9178,2139.1849 31.4275,-102.9089 c 0,0 4.529,-6.4119 -6.3802,-10.7839 -10.9092,-4.3719 -59.0692,-22.452 -59.0692,-22.452"
       style="fill:none;stroke:#231f20;stroke-width:1;stroke-linecap:butt;stroke-linejoin:miter;stroke-miterlimit:3.8637;stroke-dasharray:none;stroke-opacity:1"
       transform="matrix(1.3333333,0,0,-1.3333333,-2256,3168)" />
    <path
       id="path108"
       d="m 2029.3001,1893.3382 c -6.7804,-32.4665 -36.0496,-56.2759 -70.2462,-55.0817 -38.2227,1.3347 -68.1255,33.4015 -66.7907,71.6242 1.3348,38.2227 33.4015,68.1254 71.6242,66.7907 38.1916,-1.3337 68.0143,-33.3472 66.7938,-71.531"
       style="fill:none;stroke:#231f20;stroke-width:1;stroke-linecap:butt;stroke-linejoin:miter;stroke-miterlimit:3.8637;stroke-dasharray:none;stroke-opacity:1"
       transform="matrix(1.3333333,0,0,-1.3333333,-2256,3168)" />
    <path
       id="path109"
       d="m 2030.3596,1893.95 c -6.1783,-33.2468 -35.8209,-57.813 -70.5437,-56.6005 -38.2227,1.3348 -68.1255,33.4015 -66.7907,71.6242 1.3348,38.2227 33.4015,68.1255 71.6242,66.7907 38.1854,-1.3334 68.0045,-33.3367 66.7945,-71.5122"
       style="fill:none;stroke:#231f20;stroke-width:1;stroke-linecap:butt;stroke-linejoin:miter;stroke-miterlimit:3.8637;stroke-dasharray:none;stroke-opacity:1"
       transform="matrix(1.3333333,0,0,-1.3333333,-2256,3168)" />
    <path
       id="path110"
       d="m 1945.4776,1871.8223 c -1.6084,-1.7123 -3.446,-4.5578 -4.4959,-6.6688 -1.3452,-2.7047 -7.1417,-18.2618 12.4336,-16.4439 19.5752,1.8179 24.642,3.6422 28.8751,10.2484 4.2331,6.6063 2.3652,10.4238 9.3117,15.9347 6.9465,5.5109 26.3013,15.3414 34.9182,18.5426 8.617,3.2012 38.8111,15.4048 38.8111,15.4048 0,0 7.1876,5.2523 6.8101,8.7676 -0.3776,3.5153 -5.4034,8.0581 -11.121,3.8905 -9.4973,-6.9228 -63.3578,-37.8117 -63.3578,-37.8117 0,0 -4.8605,-3.0822 -7.3852,-3.7445 -0.7324,-0.1922 -2.2178,-0.2527 -4.0518,-0.2814"
       style="fill:none;stroke:#231f20;stroke-width:1;stroke-linecap:butt;stroke-linejoin:miter;stroke-miterlimit:3.8637;stroke-dasharray:none;stroke-opacity:1"
       transform="matrix(1.3333333,0,0,-1.3333333,-2256,3168)" />
    <path
       id="path111"
       d="m 1939.857,1854.4362 c 0,0 3.7183,-8.1346 13.5496,-5.9765 9.8312,2.1582 17.8612,2.8784 22.4893,6.4691 4.6281,3.5906 9.4656,13.1776 10.7847,15.1327 1.319,1.9552 13.2394,13.7963 20.3485,16.8 7.1092,3.0037 44.061,22.4759 44.061,22.4759 l 18.1143,10.1239 c 0,0 -2.1614,2.577 -4.4362,1.906 -2.2748,-0.671 -35.2378,-20.5326 -35.2378,-20.5326"
       style="fill:none;stroke:#231f20;stroke-width:1;stroke-linecap:butt;stroke-linejoin:miter;stroke-miterlimit:3.8637;stroke-dasharray:none;stroke-opacity:1"
       transform="matrix(1.3333333,0,0,-1.3333333,-2256,3168)" />
    <path
       id="path112"
       d="m 1941.1792,1863.6457 c 0,0 3.1202,3.3931 6.6443,4.0205 3.524,0.6274 5.7814,0.7987 5.7814,0.7987"
       style="fill:none;stroke:#231f20;stroke-width:1;stroke-linecap:butt;stroke-linejoin:miter;stroke-miterlimit:3.8637;stroke-dasharray:none;stroke-opacity:1"
       transform="matrix(1.3333333,0,0,-1.3333333,-2256,3168)" />
    <path
       id="path113"
       d="m 1940.4875,1858.1665 c 0,0 0.3633,3.2392 2.086,2.4286 1.7228,-0.8106 1.162,-2.5421 1.5745,-5.058 0.4124,-2.5159 1.1009,-4.291 3.5819,-4.8779 2.481,-0.587 11.9926,-0.4188 14.7758,0.4846 2.7832,0.9034 14.4507,5.499 14.4507,5.499"
       style="fill:none;stroke:#231f20;stroke-width:1;stroke-linecap:butt;stroke-linejoin:miter;stroke-miterlimit:3.8637;stroke-dasharray:none;stroke-opacity:1"
       transform="matrix(1.3333333,0,0,-1.3333333,-2256,3168)" />
    <path
       id="path114"
       d="m 1949.0751,1853.3639 c 0,0 5.2119,-1.1826 10.7434,-0.3752 5.5315,0.8075 9.6163,3.1663 12.9254,4.8018 3.3091,1.6355 6.929,5.0112 7.2749,7.7508"
       style="fill:none;stroke:#231f20;stroke-width:1;stroke-linecap:butt;stroke-linejoin:miter;stroke-miterlimit:3.8637;stroke-dasharray:none;stroke-opacity:1"
       transform="matrix(1.3333333,0,0,-1.3333333,-2256,3168)" />
    <path
       id="path115"
       d="m 1916.1203,1915.6922 c 0.8039,23.0434 20.3592,41.0626 43.6785,40.2476 23.3194,-0.815 41.5713,-20.1555 40.7673,-43.1989 -0.8039,-23.0435 -20.3592,-41.0626 -43.6786,-40.2476 -23.3194,0.815 -41.5712,20.1555 -40.7672,43.1989 z"
       style="fill:none;stroke:#231f20;stroke-width:1;stroke-linecap:butt;stroke-linejoin:miter;stroke-miterlimit:3.8637;stroke-dasharray:none;stroke-opacity:1"
       transform="matrix(1.3333333,0,0,-1.3333333,-2256,3168)" />
    <path
       id="path116"
       d="m 1914.8553,1914.0455 c 0.8244,23.6285 20.9458,42.1028 44.9432,41.2641 23.9973,-0.8387 42.7822,-20.6727 41.9579,-44.3012 -0.8244,-23.6285 -20.9458,-42.1028 -44.9432,-41.2641 -23.9973,0.8387 -42.7823,20.6727 -41.9579,44.3012 z"
       style="fill:none;stroke:#231f20;stroke-width:1;stroke-linecap:butt;stroke-linejoin:miter;stroke-miterlimit:3.8637;stroke-dasharray:none;stroke-opacity:1"
       transform="matrix(1.3333333,0,0,-1.3333333,-2256,3168)" />
    <path
       id="path117"
       d="m 1917.8229,1913.0663 c 0.7931,22.7316 20.218,40.5023 43.3875,39.6925 23.1694,-0.8097 41.3085,-19.8933 40.5155,-42.6249 -0.7931,-22.7316 -20.218,-40.5023 -43.3875,-39.6925 -23.1694,0.8098 -41.3086,19.8933 -40.5155,42.6249 z"
       style="fill:none;stroke:#231f20;stroke-width:1;stroke-linecap:butt;stroke-linejoin:miter;stroke-miterlimit:3.8637;stroke-dasharray:none;stroke-opacity:1"
       transform="matrix(1.3333333,0,0,-1.3333333,-2256,3168)" />
    <path
       id="path118"
       d="m 1931.9008,1909.1372 c 0.5633,16.1442 14.1628,28.7719 30.376,28.2053 16.2132,-0.5667 28.8996,-14.1131 28.3364,-30.2573 -0.5633,-16.1441 -14.1629,-28.7719 -30.3761,-28.2052 -16.2131,0.5666 -28.8995,14.113 -28.3363,30.2572 z"
       style="fill:none;stroke:#231f20;stroke-width:1;stroke-linecap:butt;stroke-linejoin:miter;stroke-miterlimit:3.8637;stroke-dasharray:none;stroke-opacity:1"
       transform="matrix(1.3333333,0,0,-1.3333333,-2256,3168)" />
    <path
       id="path119"
       d="m 1935.4336,1905.1966 c 0.485,13.9006 13.0328,24.7442 28.0266,24.2202 14.9939,-0.5241 26.7554,-12.2172 26.2704,-26.1178 -0.485,-13.9006 -13.0327,-24.7442 -28.0266,-24.2201 -14.9938,0.524 -26.7553,12.2171 -26.2704,26.1177 z"
       style="fill:none;stroke:#231f20;stroke-width:1;stroke-linecap:butt;stroke-linejoin:miter;stroke-miterlimit:3.8637;stroke-dasharray:none;stroke-opacity:1"
       transform="matrix(1.3333333,0,0,-1.3333333,-2256,3168)" />
    <path
       id="path120"
       d="m 1935.0654,1910.6374 c 0,0 4.9859,13.8343 13.138,18.0524 8.1521,4.218 13.7098,5.775 17.9485,5.3768 4.2386,-0.3981 7.7016,-1.5197 7.7016,-1.5197 0,0 -6.0978,4.4655 -10.8449,4.6313 -4.7471,0.1658 -16.888,-3.6628 -18.7068,-5.6005 -1.8187,-1.9377 -4.9565,-5.8306 -7.1559,-11.5072 -2.1994,-5.6767 -2.0805,-9.4331 -2.0805,-9.4331 z"
       style="fill:none;stroke:#231f20;stroke-width:1;stroke-linecap:butt;stroke-linejoin:miter;stroke-miterlimit:3.8637;stroke-dasharray:none;stroke-opacity:1"
       transform="matrix(1.3333333,0,0,-1.3333333,-2256,3168)" />
  </g>
</svg>
