<?xml version="1.0" encoding="UTF-8" standalone="no"?>
<!-- Created with Inkscape (http://www.inkscape.org/) -->

<svg
   version="1.1"
   id="svg1536"
   xml:space="preserve"
   width="920"
   height="330.42038"
   viewBox="0 0 920 330.42038"
   sodipodi:docname="yubi-pin.svg"
   inkscape:version="1.1.1 (3bf5ae0d25, 2021-09-20)"
   xmlns:inkscape="http://www.inkscape.org/namespaces/inkscape"
   xmlns:sodipodi="http://sodipodi.sourceforge.net/DTD/sodipodi-0.dtd"
   xmlns="http://www.w3.org/2000/svg"
   xmlns:svg="http://www.w3.org/2000/svg"><defs
     id="defs1540" /><sodipodi:namedview
     id="namedview1538"
     pagecolor="#ffffff"
     bordercolor="#666666"
     borderopacity="1.0"
     inkscape:pageshadow="2"
     inkscape:pageopacity="0.0"
     inkscape:pagecheckerboard="0"
     showgrid="false"
     fit-margin-top="0"
     fit-margin-left="0"
     fit-margin-right="0"
     fit-margin-bottom="0"
     inkscape:zoom="0.97426471"
     inkscape:cx="392.60377"
     inkscape:cy="372.07547"
     inkscape:window-width="1920"
     inkscape:window-height="1013"
     inkscape:window-x="-9"
     inkscape:window-y="-9"
     inkscape:window-maximized="1"
     inkscape:current-layer="g1542" /><g
     id="g1542"
     inkscape:groupmode="layer"
     inkscape:label="yubi-auth"
     transform="matrix(1.3333333,0,0,-1.3333333,-245.95066,779.87678)"><g
       id="g1842"
       transform="translate(130.5)"><path
         d="M 184.963,584.4076 H 607.0369 V 337.5923 H 184.963 Z"
         style="fill:none;stroke:#231f20;stroke-width:1;stroke-linecap:butt;stroke-linejoin:miter;stroke-miterlimit:3.8637;stroke-dasharray:none;stroke-opacity:1"
         id="path1546" /><text
         transform="scale(1,-1)"
         style="font-variant:normal;font-weight:normal;font-size:10px;font-family:Arial;-inkscape-font-specification:Arial;writing-mode:lr-tb;fill:#231f20;fill-opacity:1;fill-rule:nonzero;stroke:none"
         id="text1550"
         x="196.14771"
         y="-570.93988"><tspan
           x="196.14771 205.58769 207.80769 213.36771 218.9277 224.4877 231.7077 236.7077 239.4877 246.1577 251.7177 256.71771 262.27771 265.6077 267.8277 270.6077"
           y="-570.93988"
           sodipodi:role="line"
           id="tspan1548">Windows Security</tspan></text><text
         transform="scale(1,-1)"
         style="font-variant:normal;font-weight:normal;font-size:15px;font-family:Arial;-inkscape-font-specification:Arial;writing-mode:lr-tb;fill:#231f20;fill-opacity:1;fill-rule:nonzero;stroke:none"
         id="text1554"
         x="196.07381"
         y="-549.6814"><tspan
           x="196.07381 208.5688 216.9088 224.4088 227.7388 236.0788 244.41881 248.58881 256.08881 264.4288 269.4238 277.76379 281.93381 285.26379 289.43381 292.52393 300.02393 304.19394 311.69394 320.03394"
           y="-549.6814"
           sodipodi:role="line"
           id="tspan1552">Making sure it’s you</tspan></text><text
         transform="scale(1,-1)"
         style="font-variant:normal;font-weight:normal;font-size:18px;font-family:Arial;-inkscape-font-specification:Arial;writing-mode:lr-tb;fill:#231f20;fill-opacity:1;fill-rule:nonzero;stroke:none"
         id="text1558"
         x="247.38139"
         y="-456.4292"><tspan
           x="247.38139 259.38739 263.38339 273.39139 283.39941 292.39941 302.40741 307.41141 317.4194 327.4274 332.4314 342.43939 348.43341 353.43741 362.43741 372.4454 382.4534 388.44739 393.45142 402.45142 412.45941 421.45941 431.46741 437.4614 441.4574 446.4614 455.4614 460.46539 469.46539 479.47339 488.47339 493.47739 505.4834 510.4874 523.4834"
           y="-456.4292"
           sodipodi:role="line"
           id="tspan1556">Please enter your security key PIN.</tspan></text><path
         d="m 223.4445,376.963 h 168 v -22.0738 h -168 z"
         style="fill:none;stroke:#231f20;stroke-width:1;stroke-linecap:butt;stroke-linejoin:miter;stroke-miterlimit:3.8637;stroke-dasharray:none;stroke-opacity:1"
         id="path1560" /><path
         d="m 400.5553,376.963 h 168 v -22.0738 h -168 z"
         style="fill:none;stroke:#231f20;stroke-width:1;stroke-linecap:butt;stroke-linejoin:miter;stroke-miterlimit:3.8637;stroke-dasharray:none;stroke-opacity:1"
         id="path1562" /><text
         transform="scale(1,-1)"
         style="font-variant:normal;font-weight:normal;font-size:14px;font-family:Arial;-inkscape-font-specification:Arial;writing-mode:lr-tb;fill:#231f20;fill-opacity:1;fill-rule:nonzero;stroke:none"
         id="text1566"
         x="292.9631"
         y="-360.2262"><tspan
           x="292.9631 303.8551"
           y="-360.2262"
           sodipodi:role="line"
           id="tspan1564">OK</tspan></text><text
         transform="scale(1,-1)"
         style="font-variant:normal;font-weight:normal;font-size:14px;font-family:Arial;-inkscape-font-specification:Arial;writing-mode:lr-tb;fill:#231f20;fill-opacity:1;fill-rule:nonzero;stroke:none"
         id="text1570"
         x="465.58209"
         y="-360.2262"><tspan
           x="465.58209 475.69009 483.47409 491.25809 498.25809 506.04211"
           y="-360.2262"
           sodipodi:role="line"
           id="tspan1568">Cancel</tspan></text><path
         d="m 234.252,422.5973 c 0,3.3995 2.7557,6.1552 6.155,6.1552 3.3994,0 6.155,-2.7557 6.155,-6.1552 0,-3.3994 -2.7556,-6.1552 -6.155,-6.1552 -3.3993,0 -6.155,2.7558 -6.155,6.1552 z"
         style="fill:none;stroke:#231f20;stroke-width:2;stroke-linecap:butt;stroke-linejoin:miter;stroke-miterlimit:3.8636;stroke-dasharray:none;stroke-opacity:1"
         id="path1572" /><path
         d="m 231.9261,407.995 c 0.6066,4.7785 4.1721,8.4471 8.4801,8.4471 4.3117,0 7.8369,-3.6625 8.4818,-8.4471"
         style="fill:none;stroke:#231f20;stroke-width:2;stroke-linecap:butt;stroke-linejoin:miter;stroke-miterlimit:3.8636;stroke-dasharray:none;stroke-opacity:1"
         id="path1574" /><path
         d="m 223.926,418.6291 c 0,9.1026 7.3787,16.4816 16.481,16.4816 9.1023,0 16.481,-7.379 16.481,-16.4816 0,-9.1026 -7.3787,-16.4815 -16.481,-16.4815 -9.1023,0 -16.481,7.3789 -16.481,16.4815 z"
         style="fill:none;stroke:#231f20;stroke-width:2;stroke-linecap:butt;stroke-linejoin:miter;stroke-miterlimit:3.8636;stroke-dasharray:none;stroke-opacity:1"
         id="path1576" /><path
         d="M 269.1477,434.963 H 514.9261 V 410.0738 H 269.1477 Z"
         style="fill:none;stroke:#231f20;stroke-width:1;stroke-linecap:butt;stroke-linejoin:miter;stroke-miterlimit:3.8637;stroke-dasharray:none;stroke-opacity:1"
         id="path1578" /><text
         transform="scale(1,-1)"
         style="font-variant:normal;font-weight:normal;font-size:13px;font-family:Arial;-inkscape-font-specification:Arial;writing-mode:lr-tb;fill:#999999;fill-opacity:1;fill-rule:nonzero;stroke:none"
         id="text1582"
         x="278.85229"
         y="-417.72601"><tspan
           x="278.85229 287.52328 294.75131 301.25131 308.47931 312.80829 315.69431 319.30829 325.80829 329.4223 338.09329 345.32129 351.82129 355.4353 364.10629 367.72031"
           y="-417.72601"
           sodipodi:role="line"
           id="tspan1580">Security Key PIN</tspan></text><path
         d="M 279.25,430.25 V 414"
         style="fill:none;stroke:#231f20;stroke-width:1;stroke-linecap:butt;stroke-linejoin:miter;stroke-miterlimit:3.8637;stroke-dasharray:none;stroke-opacity:1"
         id="path1584" /><path
         d="m 594.7499,576.5783 -7.1478,-7.1476"
         style="fill:none;stroke:#231f20;stroke-width:1;stroke-linecap:butt;stroke-linejoin:miter;stroke-miterlimit:3.8637;stroke-dasharray:none;stroke-opacity:1"
         id="path1586" /><path
         d="m 594.7499,569.4307 -7.1478,7.1476"
         style="fill:none;stroke:#231f20;stroke-width:1;stroke-linecap:butt;stroke-linejoin:miter;stroke-miterlimit:3.8637;stroke-dasharray:none;stroke-opacity:1"
         id="path1588" /></g></g></svg>
