<?xml version="1.0" encoding="UTF-8" standalone="no"?>
<!-- Created with Inkscape (http://www.inkscape.org/) -->

<svg
   version="1.1"
   id="svg2671"
   xml:space="preserve"
   width="950.61731"
   height="639.16089"
   viewBox="0 0 950.61731 639.16089"
   sodipodi:docname="yubi-mobile.svg"
   inkscape:version="1.1.1 (3bf5ae0d25, 2021-09-20)"
   xmlns:inkscape="http://www.inkscape.org/namespaces/inkscape"
   xmlns:sodipodi="http://sodipodi.sourceforge.net/DTD/sodipodi-0.dtd"
   xmlns="http://www.w3.org/2000/svg"
   xmlns:svg="http://www.w3.org/2000/svg"><defs
     id="defs2675" /><sodipodi:namedview
     id="namedview2673"
     pagecolor="#ffffff"
     bordercolor="#666666"
     borderopacity="1.0"
     inkscape:pageshadow="2"
     inkscape:pageopacity="0.0"
     inkscape:pagecheckerboard="0"
     showgrid="false"
     fit-margin-top="0"
     fit-margin-left="0"
     fit-margin-right="0"
     fit-margin-bottom="0"
     inkscape:zoom="0.97426471"
     inkscape:cx="489.08679"
     inkscape:cy="383.36604"
     inkscape:window-width="1920"
     inkscape:window-height="1013"
     inkscape:window-x="-9"
     inkscape:window-y="-9"
     inkscape:window-maximized="1"
     inkscape:current-layer="g2677" /><g
     id="g2677"
     inkscape:groupmode="layer"
     inkscape:label="yubi-mobile"
     transform="matrix(1.3333333,0,0,-1.3333333,-38.863599,791.85198)"><g
       id="g2679"
       transform="translate(-8028,-1584)"><path
         d="M 8767.1107,2116.5183 V 1731.889 c 0,-16.5688 -13.4313,-30 -30,-30 h -278.963 c -16.5688,0 -30,13.4312 -30,30 v 384.6293"
         style="fill:none;stroke:#231f20;stroke-width:6;stroke-linecap:butt;stroke-linejoin:miter;stroke-miterlimit:3.8636;stroke-dasharray:none;stroke-opacity:1"
         id="path2681" /><path
         d="m 8060.1477,1698.5183 v 446.3707 c 0,16.5687 13.4312,30 30,30 h 278.963 c 16.5687,0 30,-13.4313 30,-30 v -446.3707"
         style="fill:none;stroke:#231f20;stroke-width:6;stroke-linecap:butt;stroke-linejoin:miter;stroke-miterlimit:3.8636;stroke-dasharray:none;stroke-opacity:1"
         id="path2683" /><path
         d="m 8192.9999,2148 c 0,4.4183 3.5817,8 8,8 h 57.2585 c 4.4184,0 8,-3.5817 8,-8 v 0 c 0,-4.4184 -3.5816,-8 -8,-8 h -57.2585 c -4.4183,0 -8,3.5816 -8,8 z"
         style="fill:#231f20;fill-opacity:1;fill-rule:nonzero;stroke:none"
         id="path2685" /><text
         transform="matrix(1,0,0,-1,8354.8523,2111.7999)"
         style="font-variant:normal;font-weight:normal;font-size:13px;font-family:Arial;-inkscape-font-specification:Arial;writing-mode:lr-tb;fill:#231f20;fill-opacity:1;fill-rule:nonzero;stroke:none"
         id="text2689"><tspan
           x="0 7.2280002 14.456 18.07 25.298"
           y="0"
           sodipodi:role="line"
           id="tspan2687">13:48</tspan></text><path
         d="m 8328.5,2122 h 17.75 v -10 h -17.75 z"
         style="fill:none;stroke:#231f20;stroke-width:1;stroke-linecap:butt;stroke-linejoin:miter;stroke-miterlimit:3.8637;stroke-dasharray:none;stroke-opacity:1"
         id="path2691" /><path
         d="m 8346.75,2119.625 h 1.75 v -5.25 h -1.75 z"
         style="fill:#231f20;fill-opacity:1;fill-rule:nonzero;stroke:none"
         id="path2693" /><path
         d="m 8329.75,2120.6 h 11.5 v -7.2 h -11.5 z"
         style="fill:#231f20;fill-opacity:1;fill-rule:nonzero;stroke:none"
         id="path2695" /><path
         d="m 8073.3793,2113.75 h 1.4 v -3 h -1.4 z"
         style="fill:#231f20;fill-opacity:1;fill-rule:evenodd;stroke:none"
         id="path2697" /><path
         d="m 8076.347,2110.75 v 0 5.5625 0 h 1.4 v 0 -5.5625 0 z"
         style="fill:#231f20;fill-opacity:1;fill-rule:evenodd;stroke:none"
         id="path2699" /><path
         d="m 8079.3146,2110.75 v 0 8.125 0 h 1.4 v 0 -8.125 0 z"
         style="fill:#231f20;fill-opacity:1;fill-rule:evenodd;stroke:none"
         id="path2701" /><path
         d="m 8082.2823,2110.75 v 0 10.6875 0 h 1.4 v 0 -10.6875 0 z"
         style="fill:#999999;fill-opacity:1;fill-rule:evenodd;stroke:none"
         id="path2703" /><path
         d="m 8085.2499,2124 h 1.4 v -13.25 h -1.4 z"
         style="fill:#999999;fill-opacity:1;fill-rule:evenodd;stroke:none"
         id="path2705" /><path
         d="m 8094.25,2057.75 c 0,-1.795 1.455,-3.25 3.25,-3.25 1.7949,0 3.25,1.455 3.25,3.25 0,1.7949 -1.4551,3.25 -3.25,3.25 -1.795,0 -3.25,-1.4551 -3.25,-3.25 z m 10.2205,2 H 8118 v -4.5 h -2.25 V 2050 h -5 v 5.25 h -6.4427 c -1.0184,-2.7723 -3.6818,-4.75 -6.8073,-4.75 -4.0042,0 -7.25,3.2458 -7.25,7.25 0,4.0041 3.2458,7.25 7.25,7.25 3.3103,0 6.1024,-2.2186 6.9705,-5.25 z"
         style="fill:#3a3aa5;fill-opacity:1;fill-rule:nonzero;stroke:none"
         id="path2707" /><text
         transform="matrix(1,0,0,-1,8089,1992)"
         style="font-variant:normal;font-weight:normal;font-size:24px;font-family:Arial;-inkscape-font-specification:Arial;writing-mode:lr-tb;fill:#231f20;fill-opacity:1;fill-rule:nonzero;stroke:none"
         id="text2713"><tspan
           x="0 17.327999 30.672001 44.015999 57.360001 69.360001 82.704002 89.375999 102.72 116.064 133.392 140.064 146.73599 160.08 166.752 180.09599 192.09599 205.44 212.112 224.112 237.45599 250.8"
           y="0"
           sodipodi:role="line"
           id="tspan2709">Choose how to use your</tspan><tspan
           x="0 12 25.344 37.344002 50.688 58.68 64.008003 70.68 82.68 89.351997 101.352 114.696"
           y="29"
           sodipodi:role="line"
           id="tspan2711">security key</tspan></text><text
         transform="matrix(1,0,0,-1,8087,1925.9999)"
         style="font-variant:normal;font-weight:normal;font-size:14px;font-family:Arial;-inkscape-font-specification:Arial;writing-mode:lr-tb;fill:#231f20;fill-opacity:1;fill-rule:nonzero;stroke:none"
         id="text2719"><tspan
           x="0 9.3380003 17.122 24.122 31.906 36.568001 39.675999 43.568001 50.568001 54.459999 61.459999 69.244003 76.244003 83.244003 87.136002 97.244003 105.028 109.69 116.69 120.582 130.69 133.798 137.69 145.474 149.366 158.70399 161.812 169.59599 177.38 181.272 189.056 196.84 200.73199 208.51601 212.408 216.3 226.408 234.96201 245.07001 248.96201 256.746 264.53"
           y="0"
           sodipodi:role="line"
           id="tspan2715">Security keys work with Bluetooth, NFC and</tspan><tspan
           x="0 10.108 19.445999 28.784 32.675999 36.568001 46.675999 54.459999 62.243999 70.028 77.028 84.811996 88.704002 96.487999 104.272 114.38 118.272 125.272 133.056 140.84 144.73199 154.84 162.62399 170.408 174.3 178.192 182.084 189.868 193.75999 201.54401 208.54401 216.328 220.22 227.22 235.004 242.78799 247.45 251.342 258.34201 266.12601 272.20209"
           y="24"
           sodipodi:role="line"
           id="tspan2717">USB. Choose how you want to use your key.</tspan></text><path
         d="m 8138,1838 h 241"
         style="fill:none;stroke:#666666;stroke-width:1;stroke-linecap:butt;stroke-linejoin:miter;stroke-miterlimit:3.8637;stroke-dasharray:none;stroke-opacity:1"
         id="path2721" /><path
         d="m 8138,1793.8855 h 241"
         style="fill:none;stroke:#666666;stroke-width:1;stroke-linecap:butt;stroke-linejoin:miter;stroke-miterlimit:3.8637;stroke-dasharray:none;stroke-opacity:1"
         id="path2723" /><path
         d="m 8138,1749.7711 h 241"
         style="fill:none;stroke:#666666;stroke-width:1;stroke-linecap:butt;stroke-linejoin:miter;stroke-miterlimit:3.8637;stroke-dasharray:none;stroke-opacity:1"
         id="path2725" /><path
         d="m 8138,1705.6567 h 241"
         style="fill:none;stroke:#666666;stroke-width:1;stroke-linecap:butt;stroke-linejoin:miter;stroke-miterlimit:3.8637;stroke-dasharray:none;stroke-opacity:1"
         id="path2727" /><path
         d="m 8094.5,1864.5 10.75,-10 -5,-4.5 v 18.25 l 4.75,-4.75 -10.5,-10.75"
         style="fill:none;stroke:#231f20;stroke-width:1;stroke-linecap:butt;stroke-linejoin:miter;stroke-miterlimit:3.8637;stroke-dasharray:none;stroke-opacity:1"
         id="path2729" /><path
         d="m 8098,1819.25 h -2.5 v -10 h 10.5 v 10.25 h -5.5 v -4.75"
         style="fill:none;stroke:#231f20;stroke-width:1;stroke-linecap:butt;stroke-linejoin:miter;stroke-miterlimit:3.8637;stroke-dasharray:none;stroke-opacity:1"
         id="path2731" /><path
         d="m 8098.5,1814.75 c 0,0.9665 0.7834,1.75 1.75,1.75 0.9665,0 1.75,-0.7835 1.75,-1.75 0,-0.9666 -0.7835,-1.75 -1.75,-1.75 -0.9666,0 -1.75,0.7834 -1.75,1.75 z"
         style="fill:#231f20;fill-opacity:1;fill-rule:nonzero;stroke:none"
         id="path2733" /><path
         d="m 8091.5,1821.5 c 0,1.1045 0.8954,2 2,2 h 14.25 c 1.1045,0 2,-0.8955 2,-2 v -14.25 c 0,-1.1046 -0.8955,-2 -2,-2 h -14.25 c -1.1046,0 -2,0.8954 -2,2 z"
         style="fill:none;stroke:#231f20;stroke-width:1;stroke-linecap:butt;stroke-linejoin:miter;stroke-miterlimit:3.8637;stroke-dasharray:none;stroke-opacity:1"
         id="path2735" /><path
         d="M 8100.25,1779.75 V 1762"
         style="fill:none;stroke:#231f20;stroke-width:1;stroke-linecap:butt;stroke-linejoin:miter;stroke-miterlimit:3.8637;stroke-dasharray:none;stroke-opacity:1"
         id="path2737" /><path
         d="m 8095.5,1773.25 v -5 h 9.5 v 5"
         style="fill:none;stroke:#231f20;stroke-width:1;stroke-linecap:butt;stroke-linejoin:miter;stroke-miterlimit:3.8637;stroke-dasharray:none;stroke-opacity:1"
         id="path2739" /><path
         d="m 8093.625,1773.2499 c 0,0.9665 0.7835,1.75 1.75,1.75 0.9665,0 1.75,-0.7835 1.75,-1.75 0,-0.9665 -0.7835,-1.75 -1.75,-1.75 -0.9665,0 -1.75,0.7835 -1.75,1.75 z"
         style="fill:#231f20;fill-opacity:1;fill-rule:nonzero;stroke:none"
         id="path2741" /><path
         d="m 8103.25,1774.625 h 3.5 v -3.5 h -3.5 z"
         style="fill:#231f20;fill-opacity:1;fill-rule:nonzero;stroke:none"
         id="path2743" /><path
         d="m 8098.5,1762.2817 c 0,0.9665 0.7834,1.75 1.75,1.75 0.9665,0 1.75,-0.7835 1.75,-1.75 0,-0.9665 -0.7835,-1.75 -1.75,-1.75 -0.9666,0 -1.75,0.7835 -1.75,1.75 z"
         style="fill:#231f20;fill-opacity:1;fill-rule:nonzero;stroke:none"
         id="path2745" /><path
         d="m 8100.25,1780 -2.25,-2.75 h 4.5 z"
         style="fill:#231f20;fill-opacity:1;fill-rule:evenodd;stroke:none"
         id="path2747" /><path
         d="m 8092.625,1727.125 c 0,0.5522 0.4477,1 1,1 h 13.125 c 0.5522,0 1,-0.4478 1,-1 v -10.875 h -15.125 z"
         style="fill:none;stroke:#231f20;stroke-width:1;stroke-linecap:butt;stroke-linejoin:miter;stroke-miterlimit:3.8637;stroke-dasharray:none;stroke-opacity:1"
         id="path2749" /><path
         d="m 8098.625,1722.375 c 0,0.9665 0.7834,1.75 1.75,1.75 0.9665,0 1.75,-0.7835 1.75,-1.75 0,-0.9666 -0.7835,-1.75 -1.75,-1.75 -0.9666,0 -1.75,0.7834 -1.75,1.75 z"
         style="fill:#231f20;fill-opacity:1;fill-rule:nonzero;stroke:none"
         id="path2751" /><path
         d="m 8096.125,1731 v 0.5 c 0,2.2091 1.7908,4 4,4 h 0.5 c 2.2091,0 4,-1.7909 4,-4 v -3.5"
         style="fill:none;stroke:#231f20;stroke-width:1;stroke-linecap:butt;stroke-linejoin:miter;stroke-miterlimit:3.8637;stroke-dasharray:none;stroke-opacity:1"
         id="path2753" /><text
         transform="matrix(1,0,0,-1,8135,1854.9999)"
         style="font-variant:normal;font-weight:normal;font-size:14px;font-family:Arial;-inkscape-font-specification:Arial;writing-mode:lr-tb;fill:#231f20;fill-opacity:1;fill-rule:nonzero;stroke:none"
         id="text2757"><tspan
           x="0 10.108 17.108 24.892 28.784 35.784 43.568001 50.568001 58.352001 63.014 66.122002 70.014 77.014 80.905998 87.905998 95.690002 102.69 106.582 116.69 119.798 123.69 131.474 135.366 144.70399 147.812 155.59599 163.38 167.272 175.056 182.84 186.73199"
           y="0"
           sodipodi:role="line"
           id="tspan2755">Use security key with Bluetooth</tspan></text><text
         transform="matrix(1,0,0,-1,8135,1810.3189)"
         style="font-variant:normal;font-weight:normal;font-size:14px;font-family:Arial;-inkscape-font-specification:Arial;writing-mode:lr-tb;fill:#231f20;fill-opacity:1;fill-rule:nonzero;stroke:none"
         id="text2761"><tspan
           x="0 10.108 17.108 24.892 28.784 35.784 43.568001 50.568001 58.352001 63.014 66.122002 70.014 77.014 80.905998 87.905998 95.690002 102.69 106.582 116.69 119.798 123.69 131.474 135.366 145.474 154.028"
           y="0"
           sodipodi:role="line"
           id="tspan2759">Use security key with NFC</tspan></text><text
         transform="matrix(1,0,0,-1,8135,1765.6378)"
         style="font-variant:normal;font-weight:normal;font-size:14px;font-family:Arial;-inkscape-font-specification:Arial;writing-mode:lr-tb;fill:#231f20;fill-opacity:1;fill-rule:nonzero;stroke:none"
         id="text2765"><tspan
           x="0 10.108 17.108 24.892 28.784 35.784 43.568001 50.568001 58.352001 63.014 66.122002 70.014 77.014 80.905998 87.905998 95.690002 102.69 106.582 116.69 119.798 123.69 131.474 135.366 145.474 154.812"
           y="0"
           sodipodi:role="line"
           id="tspan2763">Use security key with USB</tspan></text><text
         transform="matrix(1,0,0,-1,8135,1720.9568)"
         style="font-variant:normal;font-weight:normal;font-size:14px;font-family:Arial;-inkscape-font-specification:Arial;writing-mode:lr-tb;fill:#231f20;fill-opacity:1;fill-rule:nonzero;stroke:none"
         id="text2769"><tspan
           x="0 10.108 17.108 24.892 28.784 32.675999 40.459999 43.568001 50.568001 54.459999 62.243999 70.028 77.028 80.136002 87.136002 94.919998 98.811996 108.92 112.028 115.92 123.704 127.596 134.59599 141.59599 146.258 154.04201 161.826 169.61 173.502 176.61 184.394 191.394"
           y="0"
           sodipodi:role="line"
           id="tspan2767">Use this device with screen lock</tspan></text><text
         transform="matrix(1,0,0,-1,8460,1968.3999)"
         style="font-variant:normal;font-weight:normal;font-size:16px;font-family:Arial;-inkscape-font-specification:Arial;writing-mode:lr-tb;fill:#000000;fill-opacity:1;fill-rule:nonzero;stroke:none"
         id="text2779"><tspan
           x="0 8.8959999 15.12 21.344 27.568001 32.015999 38.240002 44.464001 48.911999 57.807999 64.031998 70.255997 74.704002 80.928001 87.152 93.375999 102.272 111.168 117.392 123.616"
           y="0"
           sodipodi:role="line"
           id="tspan2771">#*** ** #** *** #***</tspan><tspan
           x="129.84"
           y="0"
           id="tspan2773"> </tspan><tspan
           x="134.28799 143.18401 152.08 160.976 169.87199 177.87199 182.32001 186.76801 195.664 200.112 208.112 217.008 222.336 225.888 230.336 238.336 242.784 247.23199 256.12799 265.02399"
           y="0"
           sodipodi:role="line"
           id="tspan2775">needs to verify that</tspan><tspan
           x="0 3.552 8 11.296141 19.296141 23.744141 31.744141 40.640141 49.53614"
           y="19"
           sodipodi:role="line"
           id="tspan2777">it’s you.</tspan></text><text
         transform="matrix(1,0,0,-1,8521,1805.7999)"
         style="font-variant:normal;font-weight:normal;font-size:13px;font-family:Arial;-inkscape-font-specification:Arial;writing-mode:lr-tb;fill:#231f20;fill-opacity:1;fill-rule:nonzero;stroke:none"
         id="text2783"><tspan
           x="0 6.6431198 13.871119 21.099119 27.599119 34.827118 38.44112 42.055119 49.283119 56.51112 60.125118 63.73912 66.625122 73.853119 81.081123 88.30912 92.638123 99.866119 104.19512 107.08112 114.30912 117.92312 121.53712 128.03712 135.26512 142.49312 148.99312 156.22112"
           y="0"
           sodipodi:role="line"
           id="tspan2781">Touch the fingerprint sensor</tspan></text><path
         d="m 8428,2045 h 339"
         style="fill:none;stroke:#231f20;stroke-width:1;stroke-linecap:butt;stroke-linejoin:miter;stroke-miterlimit:3.8637;stroke-dasharray:none;stroke-opacity:1"
         id="path2785" /><text
         transform="matrix(1,0,0,-1,8457,2000.4)"
         style="font-variant:normal;font-weight:normal;font-size:21px;font-family:Arial;-inkscape-font-specification:Arial;writing-mode:lr-tb;fill:#000000;fill-opacity:1;fill-rule:nonzero;stroke:none"
         id="text2789"><tspan
           x="0 12.978086 24.654085 31.647085 36.309086 42.147087 52.647087 58.485085 68.985085 80.661087 92.33709 99.330086 105.16808 109.83009 121.50609 133.18208 144.85809 150.69609 155.35809 161.19609"
           y="0"
           sodipodi:role="line"
           id="tspan2787">Verify your identity</tspan></text><text
         transform="matrix(1,0,0,-1,8462,1724.9999)"
         style="font-variant:normal;font-weight:normal;font-size:14px;font-family:Arial;-inkscape-font-specification:Arial;writing-mode:lr-tb;fill:#000000;fill-opacity:1;fill-rule:nonzero;stroke:none"
         id="text2793"><tspan
           x="0 10.108 19.445999 28.784 32.675999 42.014 45.905998"
           y="0"
           sodipodi:role="line"
           id="tspan2791">USE PIN</tspan></text><path
         d="m 8615.5,1848.25 c -13.75,0.25 -15.25,5 -16.25,12.5"
         style="fill:none;stroke:#231f20;stroke-width:2;stroke-linecap:butt;stroke-linejoin:miter;stroke-miterlimit:3.8636;stroke-dasharray:none;stroke-opacity:1"
         id="path2795" /><path
         d="m 8606.25,1843 c -9.75,4 -13,8.75 -14,14.5 -0.7711,4.4337 2.5,9.25 7,9.25 11,0 2.5,-12.25 14,-12.5 3.8743,-0.084 6.25,3.125 6.25,7 0,11.75 -9.75,18 -21.5,18 -5.1875,0 -17,-5 -18.75,-15.25 -0.3577,-2.0948 0.75,-9.75 1,-13"
         style="fill:none;stroke:#231f20;stroke-width:2;stroke-linecap:butt;stroke-linejoin:miter;stroke-miterlimit:3.8636;stroke-dasharray:none;stroke-opacity:1"
         id="path2797" /><path
         d="m 8593,1843 c -4.5,6 -6.5475,9.7676 -7,15.5 -0.75,9.5 7.75,15 15,15 6.875,0 11.4375,-6.125 12,-13"
         style="fill:none;stroke:#231f20;stroke-width:2;stroke-linecap:butt;stroke-linejoin:miter;stroke-miterlimit:3.8636;stroke-dasharray:none;stroke-opacity:1"
         id="path2799" /><path
         d="m 8621.75,1874.75 c -7.75,7.5 -11.8125,11.25 -22,11.25 -8.875,0 -16.25,-5 -22.75,-11"
         style="fill:none;stroke:#231f20;stroke-width:2;stroke-linecap:butt;stroke-linejoin:miter;stroke-miterlimit:3.8636;stroke-dasharray:none;stroke-opacity:1"
         id="path2801" /><path
         d="m 8584,1888.25 c 5.375,2.6875 9.5,4.5 15.25,4.5 6.0625,0 9.4375,-1.6875 15,-4"
         style="fill:none;stroke:#231f20;stroke-width:2;stroke-linecap:butt;stroke-linejoin:miter;stroke-miterlimit:3.8636;stroke-dasharray:none;stroke-opacity:1"
         id="path2803" /></g></g></svg>
