<?xml version="1.0" encoding="UTF-8" standalone="no"?>
<!-- Created with Inkscape (http://www.inkscape.org/) -->

<svg
   version="1.1"
   id="svg2066"
   xml:space="preserve"
   width="920"
   height="330.42053"
   viewBox="0 0 920 330.42053"
   sodipodi:docname="yubi-touch.svg"
   inkscape:version="1.1.1 (3bf5ae0d25, 2021-09-20)"
   xmlns:inkscape="http://www.inkscape.org/namespaces/inkscape"
   xmlns:sodipodi="http://sodipodi.sourceforge.net/DTD/sodipodi-0.dtd"
   xmlns="http://www.w3.org/2000/svg"
   xmlns:svg="http://www.w3.org/2000/svg"><defs
     id="defs2070" /><sodipodi:namedview
     id="namedview2068"
     pagecolor="#ffffff"
     bordercolor="#666666"
     borderopacity="1.0"
     inkscape:pageshadow="2"
     inkscape:pageopacity="0.0"
     inkscape:pagecheckerboard="0"
     showgrid="false"
     fit-margin-top="0"
     fit-margin-left="0"
     fit-margin-right="0"
     fit-margin-bottom="0"
     inkscape:zoom="0.97426471"
     inkscape:cx="436.73962"
     inkscape:cy="159.60755"
     inkscape:window-width="1920"
     inkscape:window-height="1013"
     inkscape:window-x="-9"
     inkscape:window-y="-9"
     inkscape:window-maximized="1"
     inkscape:current-layer="g2072" /><g
     id="g2072"
     inkscape:groupmode="layer"
     inkscape:label="yubi-auth"
     transform="matrix(1.3333333,0,0,-1.3333333,-245.95066,386.08586)"><g
       id="g2366"
       transform="translate(130.5)"><path
         d="M 184.963,289.0644 H 607.0369 V 42.249 H 184.963 Z"
         style="fill:none;stroke:#231f20;stroke-width:1;stroke-linecap:butt;stroke-linejoin:miter;stroke-miterlimit:3.8637;stroke-dasharray:none;stroke-opacity:1"
         id="path2120" /><text
         transform="scale(1,-1)"
         style="font-variant:normal;font-weight:normal;font-size:10px;font-family:Arial;-inkscape-font-specification:Arial;writing-mode:lr-tb;fill:#231f20;fill-opacity:1;fill-rule:nonzero;stroke:none"
         id="text2124"
         x="196.14771"
         y="-275.59671"><tspan
           x="196.14771 205.58769 207.80769 213.36771 218.9277 224.4877 231.7077 236.7077 239.4877 246.1577 251.7177 256.71771 262.27771 265.6077 267.8277 270.6077"
           y="-275.59671"
           sodipodi:role="line"
           id="tspan2122">Windows Security</tspan></text><text
         transform="scale(1,-1)"
         style="font-variant:normal;font-weight:normal;font-size:15px;font-family:Arial;-inkscape-font-specification:Arial;writing-mode:lr-tb;fill:#231f20;fill-opacity:1;fill-rule:nonzero;stroke:none"
         id="text2128"
         x="196.07381"
         y="-254.3382"><tspan
           x="196.07381 208.5688 216.9088 224.4088 227.7388 236.0788 244.41881 248.58881 256.08881 264.4288 269.4238 277.76379 281.93381 285.26379 289.43381 292.52393 300.02393 304.19394 311.69394 320.03394"
           y="-254.3382"
           sodipodi:role="line"
           id="tspan2126">Making sure it’s you</tspan></text><text
         transform="scale(1,-1)"
         style="font-variant:normal;font-weight:normal;font-size:18px;font-family:Arial;-inkscape-font-specification:Arial;writing-mode:lr-tb;fill:#231f20;fill-opacity:1;fill-rule:nonzero;stroke:none"
         id="text2132"
         x="299.88971"
         y="-113.086"><tspan
           x="299.88971 309.08786 319.09586 329.10385 338.10385 348.11188 353.11588 362.11588 372.12387 382.13187 388.12585 393.12985 402.12988 412.13788 421.13788 431.14587 437.13986 441.13586 446.13986 455.13986 460.14386 469.14386 479.15186 486.96396"
           y="-113.086"
           sodipodi:role="line"
           id="tspan2130">Touch your security key.</tspan></text><path
         d="m 400.5553,81.6198 h 168 V 59.5459 h -168 z"
         style="fill:none;stroke:#231f20;stroke-width:1;stroke-linecap:butt;stroke-linejoin:miter;stroke-miterlimit:3.8637;stroke-dasharray:none;stroke-opacity:1"
         id="path2134" /><text
         transform="scale(1,-1)"
         style="font-variant:normal;font-weight:normal;font-size:14px;font-family:Arial;-inkscape-font-specification:Arial;writing-mode:lr-tb;fill:#231f20;fill-opacity:1;fill-rule:nonzero;stroke:none"
         id="text2138"
         x="465.58209"
         y="-64.883003"><tspan
           x="465.58209 475.69009 483.47409 491.25809 498.25809 506.04211"
           y="-64.883003"
           sodipodi:role="line"
           id="tspan2136">Cancel</tspan></text><path
         d="m 594.7499,281.2351 -7.1478,-7.1476"
         style="fill:none;stroke:#231f20;stroke-width:1;stroke-linecap:butt;stroke-linejoin:miter;stroke-miterlimit:3.8637;stroke-dasharray:none;stroke-opacity:1"
         id="path2140" /><path
         d="m 594.7499,274.0875 -7.1478,7.1476"
         style="fill:none;stroke:#231f20;stroke-width:1;stroke-linecap:butt;stroke-linejoin:miter;stroke-miterlimit:3.8637;stroke-dasharray:none;stroke-opacity:1"
         id="path2142" /><path
         d="m 389.9521,165.1119 h 12.0957 v -10.752 c 0,-1.8557 -1.5043,-3.3599 -3.3599,-3.3599 h -5.3759 c -1.8557,0 -3.3599,1.5042 -3.3599,3.3599 z"
         style="fill:none;stroke:#231f20;stroke-width:1;stroke-linecap:butt;stroke-linejoin:miter;stroke-miterlimit:3.8637;stroke-dasharray:none;stroke-opacity:1"
         id="path2144" /><path
         d="m 391.968,171.9999 h 8.0639 v -6.72 h -8.0639 z"
         style="fill:none;stroke:#231f20;stroke-width:1;stroke-linecap:butt;stroke-linejoin:miter;stroke-miterlimit:3.8637;stroke-dasharray:none;stroke-opacity:1"
         id="path2146" /><path
         d="m 393.7893,169.9839 h 1.344 v -2.688 h -1.344 z"
         style="fill:#231f20;fill-opacity:1;fill-rule:nonzero;stroke:none"
         id="path2148" /><path
         d="m 396.8666,169.9839 h 1.344 v -2.688 h -1.344 z"
         style="fill:#231f20;fill-opacity:1;fill-rule:nonzero;stroke:none"
         id="path2150" /></g></g></svg>
