<?xml version="1.0" encoding="UTF-8" standalone="no"?>
<!-- Created with Inkscape (http://www.inkscape.org/) -->

<svg
   version="1.1"
   id="svg824"
   xml:space="preserve"
   width="944"
   height="665.33331"
   viewBox="0 0 944 665.33331"
   sodipodi:docname="yubi-disable-fido2.svg"
   inkscape:version="1.1.1 (3bf5ae0d25, 2021-09-20)"
   xmlns:inkscape="http://www.inkscape.org/namespaces/inkscape"
   xmlns:sodipodi="http://sodipodi.sourceforge.net/DTD/sodipodi-0.dtd"
   xmlns="http://www.w3.org/2000/svg"
   xmlns:svg="http://www.w3.org/2000/svg"><defs
     id="defs828" /><sodipodi:namedview
     id="namedview826"
     pagecolor="#ffffff"
     bordercolor="#666666"
     borderopacity="1.0"
     inkscape:pageshadow="2"
     inkscape:pageopacity="0.0"
     inkscape:pagecheckerboard="0"
     showgrid="false"
     fit-margin-top="0"
     fit-margin-left="0"
     fit-margin-right="0"
     fit-margin-bottom="0"
     inkscape:zoom="0.97426471"
     inkscape:cx="467.53208"
     inkscape:cy="356.67925"
     inkscape:window-width="1920"
     inkscape:window-height="1013"
     inkscape:window-x="-9"
     inkscape:window-y="-9"
     inkscape:window-maximized="1"
     inkscape:current-layer="g830" /><g
     id="g830"
     inkscape:groupmode="layer"
     inkscape:label="yubi-fido"
     transform="matrix(1.3333333,0,0,-1.3333333,-60.666665,764.66665)"><g
       id="g832"
       transform="translate(-9036,-1584)"><path
         d="m 9082,2157 h 707 v -498 h -707 z"
         style="fill:none;stroke:#231f20;stroke-width:1;stroke-linecap:butt;stroke-linejoin:miter;stroke-miterlimit:3.8637;stroke-dasharray:none;stroke-opacity:1"
         id="path834" /><path
         d="m 9115.4892,2038.5058 4.7539,13.463 h 6.8664 l -11.5736,-28.4686 h -7.2475 l 3.3109,7.8002 -8.0994,20.6684 h 7.0113 z"
         style="fill:#748b3d;fill-opacity:1;fill-rule:nonzero;stroke:none"
         id="path836" /><path
         d="m 9151.3428,2031.1413 h -6.696 v 2.2986 c -1.0541,-0.8259 -2.1897,-1.5435 -3.388,-2.1417 -1.0259,-0.4892 -2.2484,-0.7325 -3.6678,-0.7311 -2.2972,0 -4.0633,0.6604 -5.2977,1.9826 -1.2351,1.3215 -1.8559,3.2758 -1.8623,5.8622 v 13.5569 h 6.689 v -10.3307 c 0,-1.0522 0.034,-1.9268 0.1019,-2.6246 0.042,-0.6038 0.2022,-1.1935 0.4729,-1.7343 0.2263,-0.4491 0.6038,-0.8033 1.0655,-1.0006 0.4771,-0.2107 1.1417,-0.316 1.9951,-0.316 0.642,0.013 1.2789,0.1189 1.8905,0.316 0.7071,0.2165 1.3808,0.5282 2.003,0.9271 v 14.7631 h 6.6939 z"
         style="fill:#748b3d;fill-opacity:1;fill-rule:nonzero;stroke:none"
         id="path838" /><path
         d="m 9178.2796,2041.8418 c 0,-3.2773 -0.905,-5.9479 -2.7142,-8.0131 -1.8092,-2.0646 -4.0653,-3.0968 -6.7688,-3.0968 -1.0309,-0.016 -2.0595,0.1087 -3.0564,0.3705 -0.8767,0.2489 -1.7165,0.6109 -2.5001,1.0761 l -0.2792,-1.0372 h -6.4146 v 28.8581 h 6.696 v -10.2005 c 0.9665,0.7798 2.0199,1.4459 3.1399,1.9847 1.1587,0.5267 2.4215,0.7861 3.694,0.7601 2.6301,0 4.655,-0.951 6.076,-2.853 1.4211,-1.902 2.1302,-4.5181 2.1274,-7.8489 z m -6.8792,-0.1387 c 0,1.8526 -0.3146,3.2793 -0.9452,4.2791 -0.63,0.9997 -1.7527,1.4997 -3.3661,1.4997 -0.6582,0 -1.3129,-0.1012 -1.9435,-0.2871 -0.6682,-0.1881 -1.3087,-0.4625 -1.9055,-0.8152 v -10.4431 c 0.4435,-0.164 0.9023,-0.2822 1.3696,-0.3528 0.5155,-0.067 1.0344,-0.098 1.554,-0.094 1.7662,0 3.0796,0.5189 3.9408,1.557 0.8611,1.0379 1.2939,2.5898 1.2981,4.6565 v 0 z"
         style="fill:#748b3d;fill-opacity:1;fill-rule:nonzero;stroke:none"
         id="path840" /><path
         d="m 9189.5675,2054.9356 h -7.0657 v 5.0638 h 7.0657 z m -0.1851,-23.7943 h -6.6953 v 20.8275 h 6.6953 z"
         style="fill:#748b3d;fill-opacity:1;fill-rule:nonzero;stroke:none"
         id="path842" /><path
         d="m 9206.4799,2030.5854 c -1.6793,-0.017 -3.3528,0.2009 -4.9717,0.6477 -1.4295,0.3953 -2.7636,1.077 -3.9225,2.0031 -1.112,0.9177 -1.9895,2.0879 -2.5592,3.4129 -0.6046,1.3711 -0.9072,2.978 -0.9086,4.8214 0,1.9429 0.3245,3.6187 0.9742,5.0271 0.6158,1.3667 1.5463,2.5673 2.7157,3.5049 1.158,0.8944 2.4823,1.5505 3.8962,1.9303 1.4917,0.4099 3.0331,0.6157 4.58,0.6109 1.3249,0.011 2.6456,-0.1436 3.9308,-0.4625 1.1553,-0.2934 2.2802,-0.6971 3.3576,-1.2062 v -5.6939 h -0.9451 c -0.2581,0.2234 -0.57,0.4822 -0.9354,0.7785 -0.4186,0.3338 -0.8682,0.6257 -1.3426,0.8725 -0.5303,0.2814 -1.0881,0.5077 -1.6651,0.6766 -0.6893,0.1894 -1.4033,0.2785 -2.1189,0.2644 -1.7795,0 -3.1475,-0.5656 -4.1033,-1.6969 -0.9567,-1.132 -1.4318,-2.6684 -1.4268,-4.6093 0,-2.0037 0.4907,-3.5245 1.4713,-4.5626 0.9806,-1.0379 2.3734,-1.5568 4.177,-1.5568 0.7656,-0.01 1.5292,0.087 2.268,0.2871 0.5846,0.1562 1.1482,0.3831 1.6771,0.6766 0.3916,0.2269 0.7627,0.4878 1.1105,0.7785 0.3219,0.2729 0.6109,0.5381 0.8882,0.7989 h 0.9451 v -5.7058 c -1.0611,-0.4914 -2.1676,-0.8811 -3.3024,-1.1639 -1.2407,-0.3004 -2.5134,-0.4461 -3.7901,-0.4335 z"
         style="fill:#748b3d;fill-opacity:1;fill-rule:nonzero;stroke:none"
         id="path844" /><path
         d="m 9240.2569,2041.5455 c 0,-3.4258 -0.9976,-6.1245 -2.9949,-8.0957 -1.9972,-1.9713 -4.8005,-2.9576 -8.412,-2.9583 -3.6092,0 -6.4138,0.9856 -8.4096,2.9583 -1.9975,1.9726 -2.9964,4.6714 -2.9964,8.0957 0,3.451 1.006,6.1584 3.0154,8.1225 2.0106,1.965 4.8077,2.9477 8.3906,2.9492 3.6354,0 6.4459,-0.9892 8.4305,-2.9674 1.9844,-1.9777 2.9764,-4.6794 2.9764,-8.1043 z m -8.2154,-5.0633 c 0.4505,0.5678 0.7813,1.2205 0.9721,1.919 0.2184,0.7488 0.3274,1.7845 0.3259,3.1082 0.021,1.0352 -0.091,2.0695 -0.3344,3.0764 -0.1711,0.7191 -0.4893,1.395 -0.9325,1.9854 -0.3662,0.4844 -0.8604,0.8576 -1.4268,1.0754 -0.5746,0.2143 -1.1855,0.3211 -1.7985,0.316 -0.5833,0.01 -1.1623,-0.079 -1.716,-0.2587 -0.5578,-0.2179 -1.0492,-0.5755 -1.4266,-1.0395 -0.461,-0.5853 -0.7925,-1.2612 -0.9743,-1.9847 -0.2644,-1.035 -0.386,-2.102 -0.3627,-3.1703 -0.016,-0.9955 0.09,-1.9896 0.316,-2.959 0.1613,-0.7297 0.4773,-1.4169 0.9276,-2.013 0.3776,-0.4681 0.869,-0.8322 1.4253,-1.0578 1.1646,-0.434 2.4442,-0.4433 3.6156,-0.027 0.5487,0.2085 1.0302,0.5642 1.3893,1.0294 z"
         style="fill:#748b3d;fill-opacity:1;fill-rule:nonzero;stroke:none"
         id="path846" /><path
         d="m 9092.8671,2143.513 c 0,3.3704 2.7324,6.1026 6.1031,6.1026 3.3706,0 6.103,-2.7322 6.103,-6.1026 0,-3.3704 -2.7324,-6.1025 -6.103,-6.1025 -3.3707,0 -6.1031,2.7321 -6.1031,6.1025 z"
         style="fill:#000000;fill-opacity:1;fill-rule:evenodd;stroke:none"
         id="path848" /><path
         d="m 9094.3929,2146.9806 -0.329,1.9782 c 0,0 0.4162,0.5113 1.1785,0.9514 0.7624,0.4401 1.4134,0.5449 1.4134,0.5449 l 1.5996,-1.2447 z"
         style="fill:#748b3d;fill-opacity:1;fill-rule:evenodd;stroke:none"
         id="path850" /><path
         d="m 9103.5473,2140.0452 0.3291,-1.9782 c 0,0 -0.4162,-0.5114 -1.1786,-0.9515 -0.7623,-0.4401 -1.4133,-0.5449 -1.4133,-0.5449 l -1.5996,1.2448 z"
         style="fill:#748b3d;fill-opacity:1;fill-rule:evenodd;stroke:none"
         id="path852" /><path
         d="m 9093.6782,2141.2831 -1.8778,0.7042 c 0,0 -0.2348,0.6161 -0.2348,1.4963 0,0.8802 0.2348,1.4963 0.2348,1.4963 l 1.8778,0.7628 z"
         style="fill:#748b3d;fill-opacity:1;fill-rule:evenodd;stroke:none"
         id="path854" /><path
         d="m 9104.2621,2145.7428 1.8779,-0.7042 c 0,0 0.2348,-0.6161 0.2348,-1.4963 0,-0.8801 -0.2348,-1.4963 -0.2348,-1.4963 l -1.8779,-0.7628 z"
         style="fill:#748b3d;fill-opacity:1;fill-rule:evenodd;stroke:none"
         id="path856" /><path
         d="m 9098.2554,2137.8155 -1.5488,-1.2741 c 0,0 -0.651,0.1048 -1.4133,0.5449 -0.7623,0.4401 -1.1786,0.9514 -1.1786,0.9514 l 0.2782,2.0076 z"
         style="fill:#748b3d;fill-opacity:1;fill-rule:evenodd;stroke:none"
         id="path858" /><path
         d="m 9099.6849,2149.2106 1.5488,1.2741 c 0,0 0.6509,-0.1048 1.4133,-0.5449 0.7623,-0.4401 1.1786,-0.9514 1.1786,-0.9514 l -0.2783,-2.0076 z"
         style="fill:#748b3d;fill-opacity:1;fill-rule:evenodd;stroke:none"
         id="path860" /><path
         d="m 9094.6863,2143.513 c 0,2.3658 1.9179,4.2836 4.2839,4.2836 2.3659,0 4.2838,-1.9178 4.2838,-4.2836 0,-2.3657 -1.9179,-4.2835 -4.2838,-4.2835 -2.366,0 -4.2839,1.9178 -4.2839,4.2835 z m -1.8192,0 c 0,3.3704 2.7324,6.1026 6.1031,6.1026 3.3706,0 6.103,-2.7322 6.103,-6.1026 0,-3.3704 -2.7324,-6.1025 -6.103,-6.1025 -3.3707,0 -6.1031,2.7321 -6.1031,6.1025 z"
         style="fill:#b2b2b2;fill-opacity:1;fill-rule:evenodd;stroke:none"
         id="path862" /><path
         d="m 9099.1695,2143.292 0.9501,2.6906 h 1.3724 l -2.3132,-5.6895 h -1.4486 l 0.6618,1.5589 -1.6189,4.1306 h 1.4014 z"
         style="fill:#748b3d;fill-opacity:1;fill-rule:nonzero;stroke:none"
         id="path864" /><text
         transform="matrix(1,0,0,-1,9111,2138.3998)"
         style="font-variant:normal;font-weight:normal;font-size:11px;font-family:Arial;-inkscape-font-specification:Arial;writing-mode:lr-tb;fill:#231f20;fill-opacity:1;fill-rule:nonzero;stroke:none"
         id="text868"><tspan
           x="0 6.7980452 12.914045 19.030045 21.472046 28.809046 34.925045 40.425045 43.483044 52.646046 58.762047 64.878044 70.994041 77.110046 83.226044"
           y="0"
           sodipodi:role="line"
           id="tspan866">YubiKey Manager</tspan></text><path
         d="m 9678,2143.4766 h 9"
         style="fill:none;stroke:#231f20;stroke-width:1;stroke-linecap:butt;stroke-linejoin:miter;stroke-miterlimit:3.8637;stroke-dasharray:none;stroke-opacity:1"
         id="path870" /><path
         d="m 9720.5,2147.9766 h 9 v -9 h -9 z"
         style="fill:none;stroke:#231f20;stroke-width:1;stroke-linecap:butt;stroke-linejoin:miter;stroke-miterlimit:3.8637;stroke-dasharray:none;stroke-opacity:1"
         id="path872" /><path
         d="m 9763.5397,2148.2266 9.5,-9.5"
         style="fill:none;stroke:#231f20;stroke-width:1;stroke-linecap:butt;stroke-linejoin:miter;stroke-miterlimit:3.8637;stroke-dasharray:none;stroke-opacity:1"
         id="path874" /><path
         d="m 9773.0397,2148.2266 -9.5,-9.5"
         style="fill:none;stroke:#231f20;stroke-width:1;stroke-linecap:butt;stroke-linejoin:miter;stroke-miterlimit:3.8637;stroke-dasharray:none;stroke-opacity:1"
         id="path876" /><text
         transform="matrix(1,0,0,-1,9530,2090.5999)"
         style="font-variant:normal;font-weight:normal;font-size:12px;font-family:Arial;-inkscape-font-specification:Arial;writing-mode:lr-tb;fill:#231f20;fill-opacity:1;fill-rule:nonzero;stroke:none"
         id="text880"><tspan
           x="0 8.0039997 14.676 20.676001 27.348 31.344 34.007999 37.344002 43.344002 46.68 54.683998 61.355999 67.356003 70.692001 79.356003 86.688004"
           y="0"
           sodipodi:role="line"
           id="tspan878">Security Key NFC</tspan></text><text
         transform="matrix(1,0,0,-1,9660.3745,2091.5999)"
         style="font-variant:normal;font-weight:normal;font-size:12px;font-family:Arial;-inkscape-font-specification:Arial;writing-mode:lr-tb;fill:#231f20;fill-opacity:1;fill-rule:nonzero;stroke:none"
         id="text884"><tspan
           x="0 8.6639996 15.336 18"
           y="0"
           sodipodi:role="line"
           id="tspan882">Help</tspan></text><text
         transform="matrix(1,0,0,-1,9734.7059,2091.5999)"
         style="font-variant:normal;font-weight:normal;font-size:12px;font-family:Arial;-inkscape-font-specification:Arial;writing-mode:lr-tb;fill:#231f20;fill-opacity:1;fill-rule:nonzero;stroke:none"
         id="text888"><tspan
           x="0 8.0039997 14.676 21.348 28.02"
           y="0"
           sodipodi:role="line"
           id="tspan886">About</tspan></text><text
         transform="matrix(1,0,0,-1,9643.75,2091.8998)"
         style="font-variant:normal;font-weight:normal;font-size:11px;font-family:Arial;-inkscape-font-specification:Arial;writing-mode:lr-tb;fill:#231f20;fill-opacity:1;fill-rule:nonzero;stroke:none"
         id="text892"><tspan
           x="0"
           y="0"
           id="tspan890">?</tspan></text><text
         transform="matrix(1,0,0,-1,9720.5721,2091.8568)"
         style="font-variant:normal;font-weight:normal;font-size:11px;font-family:Arial;-inkscape-font-specification:Arial;writing-mode:lr-tb;fill:#231f20;fill-opacity:1;fill-rule:nonzero;stroke:none"
         id="text896"><tspan
           x="0"
           y="0"
           id="tspan894">i</tspan></text><path
         d="m 9641.5,2096.2033 c 0,3.3138 2.6862,6 6,6 3.3137,0 6,-2.6862 6,-6 0,-3.3137 -2.6863,-6 -6,-6 -3.3138,0 -6,2.6863 -6,6 z"
         style="fill:none;stroke:#231f20;stroke-width:1;stroke-linecap:butt;stroke-linejoin:miter;stroke-miterlimit:3.8637;stroke-dasharray:none;stroke-opacity:1"
         id="path898" /><path
         d="m 9715.7044,2096.2033 c 0,3.3138 2.6862,6 6,6 3.3137,0 6,-2.6862 6,-6 0,-3.3137 -2.6863,-6 -6,-6 -3.3138,0 -6,2.6863 -6,6 z"
         style="fill:none;stroke:#231f20;stroke-width:1;stroke-linecap:butt;stroke-linejoin:miter;stroke-miterlimit:3.8637;stroke-dasharray:none;stroke-opacity:1"
         id="path900" /><path
         d="m 9082,2008 h 707 v -3 h -707 z"
         style="fill:#748b3d;fill-opacity:1;fill-rule:evenodd;stroke:none"
         id="path902" /><text
         transform="matrix(1,0,0,-1,9260,2034.2159)"
         style="font-variant:normal;font-weight:normal;font-size:18px;font-family:Arial;-inkscape-font-specification:Arial;writing-mode:lr-tb;fill:#231f20;fill-opacity:1;fill-rule:nonzero;stroke:none"
         id="text906"><tspan
           x="0 12.996 23.004 37.998001"
           y="0"
           sodipodi:role="line"
           id="tspan904">Home</tspan></text><text
         transform="matrix(1,0,0,-1,9335.7769,2034.2159)"
         style="font-variant:normal;font-weight:normal;font-size:18px;font-family:Arial;-inkscape-font-specification:Arial;writing-mode:lr-tb;fill:#231f20;fill-opacity:1;fill-rule:nonzero;stroke:none"
         id="text910"><tspan
           x="0 12.006 22.014 32.021999 36.018002 40.014 49.014 59.021999 64.026001 68.022003 78.029999 88.038002"
           y="0"
           sodipodi:role="line"
           id="tspan908">Applications</tspan></text><text
         transform="matrix(1,0,0,-1,9458.7533,2034.2159)"
         style="font-variant:normal;font-weight:normal;font-size:18px;font-family:Arial;-inkscape-font-specification:Arial;writing-mode:lr-tb;fill:#231f20;fill-opacity:1;fill-rule:nonzero;stroke:none"
         id="text914"><tspan
           x="0 5.0040002 15.012 20.016001 30.024 36.018002 41.021999 51.029999 60.029999 70.038002"
           y="0"
           sodipodi:role="line"
           id="tspan912">Interfaces</tspan></text><path
         d="m 9135.7749,1955.7951 v -0.595 h -12.075 v 0.595 h 0.7668 c 0.6704,0 1.2102,0.1207 1.6193,0.362 0.2953,0.1608 0.5224,0.4364 0.6814,0.8269 0.125,0.2756 0.1875,0.9993 0.1875,2.1711 v 15.295 c 0,1.1947 -0.063,1.9414 -0.1875,2.24 -0.1251,0.2986 -0.3778,0.5599 -0.7583,0.7839 -0.3804,0.2241 -0.8946,0.3361 -1.5424,0.3361 h -0.7668 v 0.595 h 12.075 v -0.595 h -0.7628 c -0.6669,0 -1.2037,-0.1207 -1.6106,-0.3621 -0.2939,-0.1607 -0.5255,-0.4364 -0.6951,-0.8268 -0.1243,-0.2757 -0.1865,-0.9993 -0.1865,-2.1711 v -15.295 c 0,-1.1948 0.065,-1.9414 0.195,-2.24 0.13,-0.2986 0.3843,-0.5599 0.7629,-0.784 0.3786,-0.224 0.89,-0.336 1.5343,-0.336 z"
         style="fill:#231f20;fill-opacity:1;fill-rule:evenodd;stroke:none"
         id="path916" /><path
         d="m 9144.371,1971.1951 v -2.065 c 0.8193,0.8794 1.6044,1.5192 2.3554,1.9195 0.7511,0.4003 1.559,0.6005 2.4238,0.6005 1.0354,0 1.8944,-0.288 2.5771,-0.8641 0.6827,-0.576 1.138,-1.2917 1.3659,-2.147 0.1819,-0.6501 0.2728,-1.899 0.2728,-3.7467 v -6.2272 c 0,-1.2301 0.1104,-1.996 0.3312,-2.2977 0.2207,-0.3017 0.682,-0.4925 1.3838,-0.5723 v -0.595 h -8.085 v 0.595 c 0.6049,0.08 1.0386,0.3303 1.3011,0.7514 0.1826,0.2847 0.2739,0.9909 0.2739,2.1186 v 7.1165 c 0,1.3117 -0.051,2.1387 -0.1531,2.4809 -0.1021,0.3421 -0.275,0.6073 -0.5187,0.7954 -0.2437,0.1881 -0.5129,0.2822 -0.8075,0.2822 -0.9749,0 -1.8818,-0.6884 -2.7207,-2.065 v -8.61 c 0,-1.1959 0.1113,-1.9532 0.3339,-2.272 0.2226,-0.3188 0.6363,-0.5182 1.2411,-0.598 v -0.595 h -8.085 v 0.595 c 0.668,0.068 1.1434,0.2845 1.4263,0.6491 0.1925,0.2505 0.2887,0.9908 0.2887,2.2209 v 9.065 c 0,1.2217 -0.1103,1.9824 -0.3311,2.2821 -0.2207,0.2997 -0.682,0.4956 -1.3839,0.5879 v 0.595 z"
         style="fill:#231f20;fill-opacity:1;fill-rule:evenodd;stroke:none"
         id="path918" /><path
         d="m 9163.6306,1977.0751 v -5.88 h 3.78 v -1.68 h -3.78 v -9.8777 c 0,-0.9242 0.043,-1.5204 0.1277,-1.7885 0.085,-0.2682 0.2355,-0.485 0.4509,-0.6505 0.2155,-0.1656 0.414,-0.2483 0.5956,-0.2483 0.7375,0 1.4353,0.56 2.0934,1.68 l 0.5124,-0.3741 c -0.9224,-2.1773 -2.4199,-3.2659 -4.4925,-3.2659 -1.0136,0 -1.8705,0.2822 -2.5709,0.8468 -0.7004,0.5646 -1.1473,1.1947 -1.3409,1.8903 -0.1138,0.3879 -0.1707,1.4374 -0.1707,3.1483 v 8.6396 h -2.1 v 0.5999 c 1.4409,1.0172 2.6672,2.0858 3.6791,3.2058 1.0119,1.12 1.8952,2.3714 2.6499,3.7543 z"
         style="fill:#231f20;fill-opacity:1;fill-rule:evenodd;stroke:none"
         id="path920" /><path
         d="m 9182.5071,1963.7751 h -8.785 c 0.1028,-2.1183 0.6681,-3.7922 1.6959,-5.022 0.7879,-0.9453 1.7356,-1.418 2.8432,-1.418 0.685,0 1.3073,0.1903 1.8668,0.5709 0.5594,0.3806 1.1589,1.0653 1.7983,2.0541 l 0.5808,-0.385 c -0.8662,-1.7573 -1.8236,-3.0016 -2.8722,-3.733 -1.0485,-0.7313 -2.2624,-1.097 -3.6416,-1.097 -2.3709,0 -4.1661,0.9098 -5.3856,2.7294 -0.9804,1.4671 -1.4706,3.2867 -1.4706,5.4589 0,2.6611 0.721,4.7792 2.1629,6.3542 1.4419,1.575 3.1316,2.3625 5.069,2.3625 1.6188,0 3.0237,-0.6619 4.2148,-1.9857 1.1911,-1.3238 1.8322,-3.2869 1.9233,-5.8893 z m -4.2,1.12 c 0,1.8327 -0.1,3.0906 -0.2994,3.7737 -0.1996,0.683 -0.5105,1.201 -0.9327,1.5539 -0.2395,0.2049 -0.5591,0.3074 -0.9587,0.3074 -0.5931,0 -1.078,-0.2902 -1.4546,-0.8706 -0.6731,-1.0132 -1.0096,-2.4021 -1.0096,-4.1667 v -0.5977 z"
         style="fill:#231f20;fill-opacity:1;fill-rule:evenodd;stroke:none"
         id="path922" /><path
         d="m 9191.107,1971.1951 0.01,-3.6389 c 1.0537,1.649 1.9772,2.7436 2.7705,3.2837 0.7933,0.5401 1.5582,0.8102 2.2947,0.8102 0.6373,0 1.1466,-0.1961 1.528,-0.5882 0.3813,-0.3921 0.572,-0.9463 0.572,-1.6628 0,-0.7616 -0.1845,-1.3527 -0.5534,-1.7732 -0.369,-0.4206 -0.8145,-0.6308 -1.3366,-0.6308 -0.599,0 -1.119,0.1932 -1.56,0.5797 -0.4409,0.3864 -0.701,0.6024 -0.7801,0.648 -0.113,0.068 -0.243,0.1023 -0.3899,0.1023 -0.3285,0 -0.64,-0.1253 -0.9346,-0.3757 -0.4645,-0.3876 -0.8158,-0.9403 -1.0539,-1.6581 -0.3623,-1.1051 -0.5435,-2.3241 -0.5435,-3.657 l 0.01,-3.6745 v -0.9597 c 0,-0.6544 0.04,-1.0735 0.1203,-1.2573 0.1378,-0.3102 0.3415,-0.5371 0.6111,-0.6806 0.2696,-0.1434 0.7258,-0.2325 1.3686,-0.2671 v -0.595 h -8.68 v 0.595 c 0.6978,0.057 1.1698,0.2484 1.4159,0.5737 0.246,0.3252 0.3691,1.1839 0.3691,2.5763 v 8.855 c 0,0.9275 -0.046,1.5188 -0.1373,1.774 -0.1145,0.3245 -0.2804,0.5621 -0.4979,0.7129 -0.2175,0.1507 -0.6008,0.2551 -1.1498,0.3131 v 0.595 h 6.545 z"
         style="fill:#231f20;fill-opacity:1;fill-rule:evenodd;stroke:none"
         id="path924" /><path
         d="m 9206.9748,1969.5151 0.043,-11.095 c 0,-1.0821 0.1132,-1.7613 0.3396,-2.0377 0.3628,-0.4258 1.0313,-0.6216 2.0054,-0.5873 v -0.595 h -9.415 v 0.595 c 0.7241,0.012 1.2384,0.095 1.543,0.2504 0.3046,0.1554 0.5145,0.3712 0.6295,0.6475 0.115,0.2764 0.1725,0.8521 0.1725,1.7271 l -0.026,11.095 h -2.2488 v 1.68 h 2.2444 v 1.1632 0.8066 c 0,1.6472 0.5991,3.0199 1.7973,4.118 1.1982,1.0981 2.8194,1.6472 4.8637,1.6472 1.3967,0 2.4329,-0.2611 3.1087,-0.7831 0.6757,-0.5221 1.0136,-1.1011 1.0136,-1.7369 0,-0.5108 -0.2107,-0.9535 -0.6322,-1.3281 -0.4214,-0.3746 -0.9798,-0.5619 -1.6751,-0.5619 -0.5924,0 -1.0624,0.1528 -1.4098,0.4585 -0.3475,0.3057 -0.5212,0.6453 -0.5212,1.0186 0,0.1021 0.035,0.3115 0.105,0.6283 0.047,0.1925 0.07,0.3737 0.07,0.5436 0,0.2377 -0.068,0.4131 -0.2045,0.5261 -0.1819,0.1699 -0.4038,0.2549 -0.6655,0.2549 -0.3296,0 -0.6053,-0.1373 -0.8272,-0.4118 -0.2218,-0.2746 -0.3328,-0.7152 -0.3328,-1.3218 l 0.012,-3.0035 0.01,-2.0179 h 2.3947 v -1.68 h -2.3882 z"
         style="fill:#231f20;fill-opacity:1;fill-rule:evenodd;stroke:none"
         id="path926" /><path
         d="m 9220.5083,1957.5801 c -1.9505,-1.7267 -3.7014,-2.59 -5.2527,-2.59 -0.9125,0 -1.6711,0.2989 -2.2755,0.8969 -0.6045,0.5979 -0.9068,1.3467 -0.9068,2.2465 0,1.2188 0.5248,2.3151 1.5742,3.2889 1.0495,0.9738 3.3364,2.2694 6.8608,3.8867 v 1.6023 c 0,1.2046 -0.066,1.9632 -0.1977,2.2758 -0.1318,0.3127 -0.381,0.5855 -0.7478,0.8184 -0.3668,0.233 -0.7793,0.3495 -1.2376,0.3495 -0.7448,0 -1.3566,-0.165 -1.8353,-0.495 -0.2964,-0.2048 -0.4446,-0.4438 -0.4446,-0.7169 0,-0.2388 0.1595,-0.5347 0.4785,-0.8876 0.4331,-0.4892 0.6497,-0.9614 0.6497,-1.4164 0,-0.5578 -0.2079,-1.0329 -0.6237,-1.4254 -0.4158,-0.3925 -0.9599,-0.5887 -1.6322,-0.5887 -0.7178,0 -1.3188,0.2161 -1.803,0.6483 -0.4842,0.4322 -0.7263,0.9383 -0.7263,1.5184 0,0.8192 0.3251,1.6013 0.9751,2.3464 0.6501,0.745 1.5566,1.3166 2.7196,1.7147 1.163,0.3981 2.3718,0.5972 3.6264,0.5972 1.5166,0 2.7168,-0.321 3.6006,-0.9631 0.8837,-0.642 1.4567,-1.338 1.7188,-2.0879 0.1597,-0.4776 0.2395,-1.5743 0.2395,-3.29 v -6.1879 c 0,-0.7274 0.029,-1.1847 0.086,-1.3721 0.057,-0.1874 0.1435,-0.3266 0.2584,-0.4176 0.1148,-0.091 0.245,-0.1364 0.3904,-0.1364 0.3019,0 0.6094,0.2051 0.9226,0.6152 l 0.5124,-0.3992 c -0.5702,-0.8469 -1.1604,-1.4622 -1.7707,-1.8457 -0.6104,-0.3835 -1.3034,-0.5753 -2.0793,-0.5753 -0.9125,0 -1.6255,0.2143 -2.1388,0.6431 -0.5133,0.4287 -0.827,1.0777 -0.9412,1.9469 z m 0,1.26 v 5.3194 c -1.3795,-0.8079 -2.4055,-1.6729 -3.0778,-2.5949 -0.4448,-0.6147 -0.6672,-1.235 -0.6672,-1.861 0,-0.5236 0.1882,-0.9844 0.5644,-1.3825 0.2851,-0.3074 0.6842,-0.461 1.1971,-0.461 0.5699,0 1.231,0.3266 1.9835,0.98 z"
         style="fill:#231f20;fill-opacity:1;fill-rule:evenodd;stroke:none"
         id="path928" /><path
         d="m 9242.2034,1959.347 0.5299,-0.4085 c -0.7532,-1.4149 -1.692,-2.4676 -2.8164,-3.1579 -1.1243,-0.6903 -2.32,-1.0355 -3.5869,-1.0355 -2.1343,0 -3.8406,0.8017 -5.119,2.4051 -1.2784,1.6035 -1.9177,3.5312 -1.9177,5.7832 0,2.1719 0.5817,4.0823 1.7451,5.7313 1.4026,1.9902 3.3356,2.9854 5.7991,2.9854 1.6537,0 2.9681,-0.4153 3.9432,-1.2458 0.9751,-0.8305 1.4626,-1.7577 1.4626,-2.7814 0,-0.6482 -0.1967,-1.1658 -0.59,-1.5526 -0.3934,-0.3868 -0.9093,-0.5802 -1.5477,-0.5802 -0.673,0 -1.229,0.222 -1.668,0.6661 -0.4389,0.444 -0.7098,1.2354 -0.8126,2.374 -0.069,0.7171 -0.2339,1.218 -0.496,1.5028 -0.2625,0.2847 -0.5704,0.4271 -0.9237,0.4271 -0.5472,0 -1.0148,-0.2897 -1.4027,-0.869 -0.5929,-0.8746 -0.8893,-2.2152 -0.8893,-4.0217 0,-1.4996 0.2398,-2.9338 0.7194,-4.3028 0.4797,-1.3691 1.1362,-2.3886 1.9696,-3.0587 0.6282,-0.4886 1.3705,-0.7328 2.2269,-0.7328 0.5596,0 1.0907,0.1304 1.5931,0.3913 0.5023,0.2608 1.0961,0.7544 1.7811,1.4806 z"
         style="fill:#231f20;fill-opacity:1;fill-rule:evenodd;stroke:none"
         id="path930" /><path
         d="m 9258.2632,1963.7751 h -8.785 c 0.1028,-2.1183 0.6681,-3.7922 1.6959,-5.022 0.7878,-0.9453 1.7356,-1.418 2.8432,-1.418 0.685,0 1.3073,0.1903 1.8667,0.5709 0.5595,0.3806 1.1589,1.0653 1.7984,2.0541 l 0.5808,-0.385 c -0.8662,-1.7573 -1.8236,-3.0016 -2.8722,-3.733 -1.0485,-0.7313 -2.2624,-1.097 -3.6416,-1.097 -2.3709,0 -4.1661,0.9098 -5.3856,2.7294 -0.9804,1.4671 -1.4706,3.2867 -1.4706,5.4589 0,2.6611 0.721,4.7792 2.1629,6.3542 1.4419,1.575 3.1316,2.3625 5.069,2.3625 1.6187,0 3.0237,-0.6619 4.2147,-1.9857 1.1911,-1.3238 1.8323,-3.2869 1.9234,-5.8893 z m -4.2,1.12 c 0,1.8327 -0.1,3.0906 -0.2994,3.7737 -0.1996,0.683 -0.5105,1.201 -0.9327,1.5539 -0.2395,0.2049 -0.5591,0.3074 -0.9587,0.3074 -0.5932,0 -1.078,-0.2902 -1.4547,-0.8706 -0.673,-1.0132 -1.0095,-2.4021 -1.0095,-4.1667 v -0.5977 z"
         style="fill:#231f20;fill-opacity:1;fill-rule:evenodd;stroke:none"
         id="path932" /><path
         d="m 9270.3281,1971.6151 0.245,-5.46 h -0.595 c -0.6876,1.6162 -1.4007,2.7202 -2.1391,3.3121 -0.7385,0.5919 -1.4741,0.8879 -2.207,0.8879 -0.4623,0 -0.8568,-0.1563 -1.1837,-0.4687 -0.3268,-0.3124 -0.4902,-0.6732 -0.4902,-1.0823 0,-0.3066 0.1132,-0.6019 0.3396,-0.8859 0.3624,-0.4659 1.3756,-1.2641 3.0398,-2.3945 1.6641,-1.1304 2.7594,-2.0903 3.2859,-2.8798 0.5264,-0.7895 0.7897,-1.6728 0.7897,-2.6499 0,-0.8863 -0.2209,-1.7555 -0.6626,-2.6075 -0.4417,-0.852 -1.0646,-1.5053 -1.8687,-1.9597 -0.804,-0.4545 -1.693,-0.6817 -2.6668,-0.6817 -0.759,0 -1.7728,0.2404 -3.0412,0.7213 -0.3397,0.1258 -0.5718,0.1887 -0.6961,0.1887 -0.3741,0 -0.6856,-0.2917 -0.9346,-0.875 h -0.595 l -0.28,5.74 h 0.595 c 0.5096,-1.4934 1.2092,-2.6134 2.0986,-3.36 0.8894,-0.7467 1.7308,-1.12 2.5241,-1.12 0.5436,0 0.9882,0.1676 1.3338,0.5028 0.3457,0.3353 0.5185,0.7413 0.5185,1.2182 0,0.5454 -0.1701,1.0169 -0.5103,1.4145 -0.3401,0.3976 -1.0999,0.9998 -2.2793,1.8066 -1.7351,1.2042 -2.8577,2.1244 -3.3677,2.7606 -0.7485,0.9315 -1.1227,1.9596 -1.1227,3.0844 0,1.2272 0.4226,2.3378 1.2679,3.3318 0.8453,0.9941 2.0678,1.4911 3.6676,1.4911 0.8623,0 1.6961,-0.2159 2.5014,-0.6475 0.3063,-0.175 0.5558,-0.2625 0.7487,-0.2625 0.2045,0 0.3691,0.044 0.4938,0.1312 0.1247,0.088 0.3232,0.3354 0.5956,0.7438 z"
         style="fill:#231f20;fill-opacity:1;fill-rule:evenodd;stroke:none"
         id="path934" /><text
         transform="matrix(1,0,0,-1,9121,1930.7999)"
         style="font-variant:normal;font-weight:normal;font-size:13px;font-family:Arial;-inkscape-font-specification:Arial;writing-mode:lr-tb;fill:#748b3d;fill-opacity:1;fill-rule:nonzero;stroke:none"
         id="text938"><tspan
           x="0 9.3859997 16.614 27.443001"
           y="0"
           sodipodi:role="line"
           id="tspan936">Home</tspan></text><text
         transform="matrix(1,0,0,-1,9159.9526,1930.6319)"
         style="font-variant:normal;font-weight:normal;font-size:13px;font-family:Arial;-inkscape-font-specification:Arial;writing-mode:lr-tb;fill:#666666;fill-opacity:1;fill-rule:nonzero;stroke:none"
         id="text942"><tspan
           x="0 3.6140001 14.456 18.07 25.298 28.912001 36.139999 40.469002 44.083 51.311001 57.811001 65.039001"
           y="0"
           sodipodi:role="line"
           id="tspan940">/ Interfaces</tspan></text><path
         d="m 9184.5572,1865.7898 v -14.9089"
         style="fill:none;stroke:#231f20;stroke-width:1;stroke-linecap:butt;stroke-linejoin:miter;stroke-miterlimit:3.8637;stroke-dasharray:none;stroke-opacity:1"
         id="path944" /><path
         d="m 9180.5676,1860.3302 v -4.1997 h 7.9791 v 4.1997"
         style="fill:none;stroke:#231f20;stroke-width:1;stroke-linecap:butt;stroke-linejoin:miter;stroke-miterlimit:3.8637;stroke-dasharray:none;stroke-opacity:1"
         id="path946" /><path
         d="m 9178.9928,1860.3302 c 0,0.8118 0.658,1.4699 1.4698,1.4699 0.8118,0 1.4699,-0.6581 1.4699,-1.4699 0,-0.8118 -0.6581,-1.4699 -1.4699,-1.4699 -0.8118,0 -1.4698,0.6581 -1.4698,1.4699 z"
         style="fill:#231f20;fill-opacity:1;fill-rule:nonzero;stroke:none"
         id="path948" /><path
         d="m 9187.0769,1861.4851 h 2.9397 v -2.9398 h -2.9397 z"
         style="fill:#231f20;fill-opacity:1;fill-rule:nonzero;stroke:none"
         id="path950" /><path
         d="m 9183.0873,1851.1175 c 0,0.8118 0.6581,1.4699 1.4699,1.4699 0.8118,0 1.4698,-0.6581 1.4698,-1.4699 0,-0.8117 -0.658,-1.4698 -1.4698,-1.4698 -0.8118,0 -1.4699,0.6581 -1.4699,1.4698 z"
         style="fill:#231f20;fill-opacity:1;fill-rule:nonzero;stroke:none"
         id="path952" /><path
         d="m 9184.5572,1865.9998 -1.8898,-2.3098 h 3.7796 z"
         style="fill:#231f20;fill-opacity:1;fill-rule:evenodd;stroke:none"
         id="path954" /><text
         transform="matrix(1,0,0,-1,9200.75,1849.4)"
         style="font-variant:normal;font-weight:normal;font-size:21px;font-family:Arial;-inkscape-font-specification:Arial;writing-mode:lr-tb;fill:#231f20;fill-opacity:1;fill-rule:nonzero;stroke:none"
         id="text958"><tspan
           x="0 15.162 29.169001"
           y="0"
           sodipodi:role="line"
           id="tspan956">USB</tspan></text><text
         transform="matrix(1,0,0,-1,9278.5,1853.5499)"
         style="font-variant:normal;font-weight:normal;font-size:13px;font-family:Arial;-inkscape-font-specification:Arial;writing-mode:lr-tb;fill:#231f20;fill-opacity:1;fill-rule:nonzero;stroke:none"
         id="text962"><tspan
           x="0 8.6709995 15.899 23.127001 30.355 33.241001 40.469002 44.083 51.311001 54.196999"
           y="0"
           sodipodi:role="line"
           id="tspan960">Enable all</tspan></text><path
         d="m 9498.75,1862 c 0,0 2.25,-2.125 2,-4.375 -0.25,-2.25 -2,-4.375 -2,-4.375"
         style="fill:none;stroke:#231f20;stroke-width:2;stroke-linecap:butt;stroke-linejoin:miter;stroke-miterlimit:3.8636;stroke-dasharray:none;stroke-opacity:1"
         id="path964" /><path
         d="m 9503.25,1863.5 c 0,0 2,-2.875 2,-6.125 0,-3.25 -2,-6.125 -2,-6.125"
         style="fill:none;stroke:#231f20;stroke-width:2;stroke-linecap:butt;stroke-linejoin:miter;stroke-miterlimit:3.8636;stroke-dasharray:none;stroke-opacity:1"
         id="path966" /><path
         d="m 9507,1864.75 c 0,0 3.5,-4 3.5,-7.5 0,-3.5 -3.5,-7.5 -3.5,-7.5"
         style="fill:none;stroke:#231f20;stroke-width:2;stroke-linecap:butt;stroke-linejoin:miter;stroke-miterlimit:3.8636;stroke-dasharray:none;stroke-opacity:1"
         id="path968" /><text
         transform="matrix(1,0,0,-1,9519.0563,1849.4)"
         style="font-variant:normal;font-weight:normal;font-size:21px;font-family:Arial;-inkscape-font-specification:Arial;writing-mode:lr-tb;fill:#231f20;fill-opacity:1;fill-rule:nonzero;stroke:none"
         id="text972"><tspan
           x="0 15.162 27.993"
           y="0"
           sodipodi:role="line"
           id="tspan970">NFC</tspan></text><text
         transform="matrix(1,0,0,-1,9599.0607,1853.5499)"
         style="font-variant:normal;font-weight:normal;font-size:13px;font-family:Arial;-inkscape-font-specification:Arial;writing-mode:lr-tb;fill:#231f20;fill-opacity:1;fill-rule:nonzero;stroke:none"
         id="text976"><tspan
           x="0 9.3859997 12.272 18.771999 26 33.228001 36.113998 43.341999 46.956001 54.183998 57.07"
           y="0"
           sodipodi:role="line"
           id="tspan974">Disable all</tspan></text><path
         d="m 9438,1867 v -55"
         style="fill:none;stroke:#231f20;stroke-width:1;stroke-linecap:butt;stroke-linejoin:miter;stroke-miterlimit:3.8637;stroke-dasharray:none;stroke-opacity:1"
         id="path978" /><text
         transform="matrix(1,0,0,-1,9152,1693.7999)"
         style="font-variant:normal;font-weight:normal;font-size:13px;font-family:Arial;-inkscape-font-specification:Arial;writing-mode:lr-tb;fill:#231f20;fill-opacity:1;fill-rule:nonzero;stroke:none"
         id="text982"><tspan
           x="0 8.6709995 15.899 22.399"
           y="0"
           sodipodi:role="line"
           id="tspan980">Back</tspan></text><path
         d="m 9141.5,1702 -3.5,-3.125 3.5,-3.125"
         style="fill:none;stroke:#231f20;stroke-width:1;stroke-linecap:butt;stroke-linejoin:miter;stroke-miterlimit:3.8637;stroke-dasharray:none;stroke-opacity:1"
         id="path984" /><text
         transform="matrix(1,0,0,-1,9206,1800.5999)"
         style="font-variant:normal;font-weight:normal;font-size:17px;font-family:'Times New Roman';-inkscape-font-specification:TimesNewRoman;writing-mode:lr-tb;fill:#231f20;fill-opacity:1;fill-rule:nonzero;stroke:none"
         id="text988"><tspan
           x="0 9.4519997 15.113 27.386999 39.660999"
           y="0"
           sodipodi:role="line"
           id="tspan986">FIDO2</tspan></text><text
         transform="matrix(1,0,0,-1,9298.7776,1800.5999)"
         style="font-variant:normal;font-weight:normal;font-size:17px;font-family:'Times New Roman';-inkscape-font-specification:TimesNewRoman;writing-mode:lr-tb;fill:#231f20;fill-opacity:1;fill-rule:nonzero;stroke:none"
         id="text992"><tspan
           x="0 9.4519997 15.113 27.386999 39.660999"
           y="0"
           sodipodi:role="line"
           id="tspan990">FIDO </tspan></text><text
         transform="matrix(1,0,0,-1,9342.6886,1800.5999)"
         style="font-variant:normal;font-weight:normal;font-size:17px;font-family:Arial;-inkscape-font-specification:Arial;writing-mode:lr-tb;fill:#231f20;fill-opacity:1;fill-rule:nonzero;stroke:none"
         id="text996"><tspan
           x="0 12.274 21.726"
           y="0"
           sodipodi:role="line"
           id="tspan994">U2F</tspan></text><text
         transform="matrix(1,0,0,-1,9524.9328,1800.5999)"
         style="font-variant:normal;font-weight:normal;font-size:17px;font-family:'Times New Roman';-inkscape-font-specification:TimesNewRoman;writing-mode:lr-tb;fill:#231f20;fill-opacity:1;fill-rule:nonzero;stroke:none"
         id="text1000"><tspan
           x="0 9.4519997 15.113 27.386999 39.660999"
           y="0"
           sodipodi:role="line"
           id="tspan998">FIDO2</tspan></text><text
         transform="matrix(1,0,0,-1,9617.7104,1800.5999)"
         style="font-variant:normal;font-weight:normal;font-size:17px;font-family:'Times New Roman';-inkscape-font-specification:TimesNewRoman;writing-mode:lr-tb;fill:#231f20;fill-opacity:1;fill-rule:nonzero;stroke:none"
         id="text1004"><tspan
           x="0 9.4519997 15.113 27.386999 39.660999"
           y="0"
           sodipodi:role="line"
           id="tspan1002">FIDO </tspan></text><text
         transform="matrix(1,0,0,-1,9661.6214,1800.5999)"
         style="font-variant:normal;font-weight:normal;font-size:17px;font-family:Arial;-inkscape-font-specification:Arial;writing-mode:lr-tb;fill:#231f20;fill-opacity:1;fill-rule:nonzero;stroke:none"
         id="text1008"><tspan
           x="0 12.274 21.726"
           y="0"
           sodipodi:role="line"
           id="tspan1006">U2F</tspan></text><path
         d="m 9183,1814.5 h 15 v -15 h -15 z"
         style="fill:none;stroke:#231f20;stroke-width:1;stroke-linecap:butt;stroke-linejoin:miter;stroke-miterlimit:3.8637;stroke-dasharray:none;stroke-opacity:1"
         id="path1010" /><path
         d="m 9275.399,1814.5 h 15 v -15 h -15 z"
         style="fill:#231f20;fill-opacity:1;fill-rule:nonzero;stroke:#231f20;stroke-width:1;stroke-linecap:butt;stroke-linejoin:miter;stroke-miterlimit:3.8637;stroke-dasharray:none;stroke-opacity:1"
         id="path1012" /><path
         d="m 9277.5,1807.5 3.75,-3.75 7.75,7.75"
         style="fill:none;stroke:#ffffff;stroke-width:2;stroke-linecap:butt;stroke-linejoin:miter;stroke-miterlimit:3.8636;stroke-dasharray:none;stroke-opacity:1"
         id="path1014" /><path
         d="m 9503.149,1814.5 h 15 v -15 h -15 z"
         style="fill:#231f20;fill-opacity:1;fill-rule:nonzero;stroke:#231f20;stroke-width:1;stroke-linecap:butt;stroke-linejoin:miter;stroke-miterlimit:3.8637;stroke-dasharray:none;stroke-opacity:1"
         id="path1016" /><path
         d="m 9505.25,1807.5 3.75,-3.75 7.75,7.75"
         style="fill:none;stroke:#ffffff;stroke-width:2;stroke-linecap:butt;stroke-linejoin:miter;stroke-miterlimit:3.8636;stroke-dasharray:none;stroke-opacity:1"
         id="path1018" /><path
         d="m 9594.149,1814.5 h 15 v -15 h -15 z"
         style="fill:#231f20;fill-opacity:1;fill-rule:nonzero;stroke:#231f20;stroke-width:1;stroke-linecap:butt;stroke-linejoin:miter;stroke-miterlimit:3.8637;stroke-dasharray:none;stroke-opacity:1"
         id="path1020" /><path
         d="m 9596.25,1807.5 3.75,-3.75 7.75,7.75"
         style="fill:none;stroke:#ffffff;stroke-width:2;stroke-linecap:butt;stroke-linejoin:miter;stroke-miterlimit:3.8636;stroke-dasharray:none;stroke-opacity:1"
         id="path1022" /><path
         d="m 9289.9261,1706.8892 -72.6307,73.963"
         style="fill:none;stroke:#db0000;stroke-width:4;stroke-linecap:butt;stroke-linejoin:miter;stroke-miterlimit:3.8636;stroke-dasharray:none;stroke-opacity:1"
         id="path1024" /><path
         d="m 9218.1058,1780.013 -5.0354,-4.8626 -7.1209,17.451 17.1917,-7.7258 -5.0354,-4.8626"
         style="fill:#db0000;fill-opacity:1;fill-rule:nonzero;stroke:none"
         id="path1026" /><path
         d="m 9616.9629,1714.1477 c 0,1.1045 0.8955,2 2,2 H 9750 c 1.1045,0 2,-0.8955 2,-2 v -30.2216 c 0,-1.1046 -0.8955,-2 -2,-2 h -131.0371 c -1.1045,0 -2,0.8954 -2,2 z"
         style="fill:none;stroke:#231f20;stroke-width:1;stroke-linecap:butt;stroke-linejoin:miter;stroke-miterlimit:3.8637;stroke-dasharray:none;stroke-opacity:1"
         id="path1028" /><text
         transform="matrix(1,0,0,-1,9647,1693.9999)"
         style="font-variant:normal;font-weight:normal;font-size:14px;font-family:Arial;-inkscape-font-specification:Arial;writing-mode:lr-tb;fill:#231f20;fill-opacity:1;fill-rule:nonzero;stroke:none"
         id="text1032"><tspan
           x="0 9.3380003 17.122 24.122 31.906 35.798 39.689999 47.473999 51.366001 59.150002 63.812 67.704002 75.487999 82.487999 90.272003"
           y="0"
           sodipodi:role="line"
           id="tspan1030">Save Interfaces</tspan></text><path
         d="m 9630.75,1698.5 2.75,-3 6.75,7.25"
         style="fill:none;stroke:#231f20;stroke-width:2;stroke-linecap:butt;stroke-linejoin:miter;stroke-miterlimit:3.8636;stroke-dasharray:none;stroke-opacity:1"
         id="path1034" /></g></g></svg>
