<?xml version="1.0" encoding="UTF-8" standalone="no"?>
<!-- Created with Inkscape (http://www.inkscape.org/) -->

<svg
   version="1.1"
   id="svg824"
   xml:space="preserve"
   width="820"
   height="420"
   viewBox="0 0 820 420"
   sodipodi:docname="yubi-config.svg"
   inkscape:version="1.1.1 (3bf5ae0d25, 2021-09-20)"
   xmlns:inkscape="http://www.inkscape.org/namespaces/inkscape"
   xmlns:sodipodi="http://sodipodi.sourceforge.net/DTD/sodipodi-0.dtd"
   xmlns="http://www.w3.org/2000/svg"
   xmlns:svg="http://www.w3.org/2000/svg"><defs
     id="defs828"><clipPath
       clipPathUnits="userSpaceOnUse"
       id="clipPath876"><path
         d="m 6567,2105.875 c 0,3.5898 2.9101,6.5 6.5,6.5 3.5898,0 6.5,-2.9102 6.5,-6.5 0,-3.5899 -2.9102,-6.5 -6.5,-6.5 -3.5899,0 -6.5,2.9101 -6.5,6.5 z"
         id="path874" /></clipPath></defs><sodipodi:namedview
     id="namedview826"
     pagecolor="#ffffff"
     bordercolor="#666666"
     borderopacity="1.0"
     inkscape:pageshadow="2"
     inkscape:pageopacity="0.0"
     inkscape:pagecheckerboard="0"
     showgrid="false"
     fit-margin-top="0"
     fit-margin-left="0"
     fit-margin-right="0"
     fit-margin-bottom="0"
     inkscape:zoom="0.97426471"
     inkscape:cx="440.84528"
     inkscape:cy="297.14717"
     inkscape:window-width="1920"
     inkscape:window-height="1013"
     inkscape:window-x="-9"
     inkscape:window-y="-9"
     inkscape:window-maximized="1"
     inkscape:current-layer="g830" /><g
     id="g830"
     inkscape:groupmode="layer"
     inkscape:label="yubi-config"
     transform="matrix(1.3333333,0,0,-1.3333333,-87.566798,705.49998)"><g
       id="g832"
       transform="translate(-6012,-1591.5)"><path
         d="M 6077.6751,2092.1236 H 6661.957"
         style="fill:none;stroke:#231f20;stroke-width:1.9292;stroke-linecap:butt;stroke-linejoin:miter;stroke-miterlimit:3.8637;stroke-dasharray:none;stroke-opacity:1"
         id="path834" /><path
         d="m 6338.6241,2056.1631 v 19.1964 c 0,1.6102 1.3053,2.9155 2.9154,2.9155 h 70.2913 c 1.6102,0 2.9155,-1.3053 2.9155,-2.9155 v -19.1964"
         style="fill:none;stroke:#231f20;stroke-width:1.9292;stroke-linecap:butt;stroke-linejoin:miter;stroke-miterlimit:3.8637;stroke-dasharray:none;stroke-opacity:1"
         id="path836" /><path
         d="m 6289.7731,2052.0355 v 23.324 c 0,1.6102 1.3052,2.9155 2.9154,2.9155 h 37.6927 c 1.6102,0 2.9154,-1.3053 2.9154,-2.9155 v -19.1919"
         style="fill:none;stroke:#231f20;stroke-width:1.9292;stroke-linecap:butt;stroke-linejoin:miter;stroke-miterlimit:3.8637;stroke-dasharray:none;stroke-opacity:1"
         id="path838" /><path
         d="M 6414.2944,2055.6799 H 6661.957"
         style="fill:none;stroke:#231f20;stroke-width:1.9292;stroke-linecap:butt;stroke-linejoin:miter;stroke-miterlimit:3.8637;stroke-dasharray:none;stroke-opacity:1"
         id="path840" /><path
         d="m 6289.7731,1808.0948 v 247.5851 h 49.8802"
         style="fill:none;stroke:#231f20;stroke-width:1.9292;stroke-linecap:butt;stroke-linejoin:miter;stroke-miterlimit:3.8637;stroke-dasharray:none;stroke-opacity:1"
         id="path842" /><path
         d="m 6402.6413,2068.5718 4.7376,-4.7377"
         style="fill:none;stroke:#231f20;stroke-width:1.9292;stroke-linecap:butt;stroke-linejoin:miter;stroke-miterlimit:3.8637;stroke-dasharray:none;stroke-opacity:1"
         id="path844" /><path
         d="m 6407.3789,2068.5718 -4.7376,-4.7377"
         style="fill:none;stroke:#231f20;stroke-width:1.9292;stroke-linecap:butt;stroke-linejoin:miter;stroke-miterlimit:3.8637;stroke-dasharray:none;stroke-opacity:1"
         id="path846" /><path
         d="M 6651.753,2056.4087 V 1818.0948"
         style="fill:none;stroke:#231f20;stroke-width:1.9292;stroke-linecap:butt;stroke-linejoin:miter;stroke-miterlimit:3.8637;stroke-dasharray:none;stroke-opacity:1"
         id="path848" /><path
         d="m 6092.9811,1818.0948 v 257.2647 c 0,1.6102 1.3053,2.9155 2.9155,2.9155 h 179.2993 c 1.6102,0 2.9155,-1.3053 2.9155,-2.9155 v -267.2647"
         style="fill:none;stroke:#231f20;stroke-width:1.9292;stroke-linecap:butt;stroke-linejoin:miter;stroke-miterlimit:3.8637;stroke-dasharray:none;stroke-opacity:1"
         id="path850" /><path
         d="m 6092.9811,2054.951 h 185.8591"
         style="fill:none;stroke:#231f20;stroke-width:1.9292;stroke-linecap:butt;stroke-linejoin:miter;stroke-miterlimit:3.8637;stroke-dasharray:none;stroke-opacity:1"
         id="path852" /><path
         d="m 6651.753,2041.8312 h 10.9329"
         style="fill:none;stroke:#231f20;stroke-width:1.9292;stroke-linecap:butt;stroke-linejoin:miter;stroke-miterlimit:3.8637;stroke-dasharray:none;stroke-opacity:1"
         id="path854" /><path
         d="m 6655.0329,2046.5689 2.0954,3.4622 2.0955,-3.4622"
         style="fill:none;stroke:#231f20;stroke-width:1.9292;stroke-linecap:butt;stroke-linejoin:miter;stroke-miterlimit:3.8637;stroke-dasharray:none;stroke-opacity:1"
         id="path856" /><text
         transform="matrix(1,0,0,-1,6297.1477,2061.9782)"
         style="font-variant:normal;font-weight:normal;font-size:10px;font-family:Arial;-inkscape-font-specification:Arial;writing-mode:lr-tb;fill:#231f20;fill-opacity:1;fill-rule:nonzero;stroke:none"
         id="text860"><tspan
           x="0 7.2199998 12.78 21.110001"
           y="0"
           sodipodi:role="line"
           id="tspan858">Home</tspan></text><text
         transform="matrix(1,0,0,-1,6345.6931,2061.9782)"
         style="font-variant:normal;font-weight:normal;font-size:10px;font-family:Arial;-inkscape-font-specification:Arial;writing-mode:lr-tb;fill:#231f20;fill-opacity:1;fill-rule:nonzero;stroke:none"
         id="text864"><tspan
           x="0 8.3299999 13.33 15.620041 22.290041 27.290041 32.290043 37.85004 43.410042 48.970039"
           y="0"
           sodipodi:role="line"
           id="tspan862">My Account</tspan></text><path
         d="m 6639.0648,2110.7843 c 1.7576,-1.0464 2.9352,-2.9653 2.9352,-5.1593 0,-3.3138 -2.6863,-6 -6,-6 -3.3138,0 -6,2.6862 -6,6 0,2.1528 1.0713,4.0408 2.8369,5.0994"
         style="fill:none;stroke:#231f20;stroke-width:2;stroke-linecap:butt;stroke-linejoin:miter;stroke-miterlimit:3.8636;stroke-dasharray:none;stroke-opacity:1"
         id="path866" /><path
         d="m 6636,2105.125 v 7"
         style="fill:none;stroke:#231f20;stroke-width:2;stroke-linecap:round;stroke-linejoin:miter;stroke-miterlimit:3.8636;stroke-dasharray:none;stroke-opacity:1"
         id="path868" /><g
         id="g870"><g
           id="g872"
           clip-path="url(#clipPath876)"><path
             d="m 6568.625,2100.625 c 0,1.1045 2.1825,2 4.875,2 2.6924,0 4.875,-0.8955 4.875,-2 0,-1.1046 -2.1826,-2 -4.875,-2 -2.6925,0 -4.875,0.8954 -4.875,2 z"
             style="fill:#231f20;fill-opacity:1;fill-rule:nonzero;stroke:#231f20;stroke-width:1;stroke-linecap:butt;stroke-linejoin:miter;stroke-miterlimit:3.8637;stroke-dasharray:none;stroke-opacity:1"
             id="path878" /><path
             d="m 6571,2106.5 c 0,1.7259 1.1192,3.125 2.5,3.125 1.3807,0 2.5,-1.3991 2.5,-3.125 0,-1.726 -1.1193,-3.125 -2.5,-3.125 -1.3808,0 -2.5,1.399 -2.5,3.125 z"
             style="fill:#231f20;fill-opacity:1;fill-rule:nonzero;stroke:#231f20;stroke-width:1;stroke-linecap:butt;stroke-linejoin:miter;stroke-miterlimit:3.8637;stroke-dasharray:none;stroke-opacity:1"
             id="path880" /></g></g><path
         d="m 6567,2105.875 c 0,3.5898 2.9101,6.5 6.5,6.5 3.5898,0 6.5,-2.9102 6.5,-6.5 0,-3.5899 -2.9102,-6.5 -6.5,-6.5 -3.5899,0 -6.5,2.9101 -6.5,6.5 z"
         style="fill:none;stroke:#231f20;stroke-width:1;stroke-linecap:butt;stroke-linejoin:miter;stroke-miterlimit:3.8637;stroke-dasharray:none;stroke-opacity:1"
         id="path882" /><text
         transform="matrix(1,0,0,-1,6586,2101.3998)"
         style="font-variant:normal;font-weight:normal;font-size:11px;font-family:Arial;-inkscape-font-specification:Arial;writing-mode:lr-tb;fill:#231f20;fill-opacity:1;fill-rule:nonzero;stroke:none"
         id="text886"><tspan
           x="0 7.3369999 13.453"
           y="0"
           sodipodi:role="line"
           id="tspan884">Bob</tspan></text><path
         d="m 6654,1939 h 9 v -92 h -9 z"
         style="fill:#000000;fill-opacity:1;fill-rule:nonzero;stroke:none"
         id="path888" /><path
         d="m 6316.0738,2054.0738 v -8.9631 h 224 v 9.9262"
         style="fill:none;stroke:#231f20;stroke-width:0.25;stroke-linecap:butt;stroke-linejoin:miter;stroke-miterlimit:3.8636;stroke-dasharray:none;stroke-opacity:1"
         id="path890" /><path
         d="m 6316.9059,2031.074 h 9 v -9 h -9 z"
         style="fill:none;stroke:#231f20;stroke-width:1;stroke-linecap:butt;stroke-linejoin:miter;stroke-miterlimit:3.8637;stroke-dasharray:none;stroke-opacity:1"
         id="path892" /><text
         transform="matrix(1,0,0,-1,6331.0536,2023.3475)"
         style="font-variant:normal;font-weight:normal;font-size:10px;font-family:Arial;-inkscape-font-specification:Arial;writing-mode:lr-tb;fill:#231f20;fill-opacity:1;fill-rule:nonzero;stroke:none"
         id="text896"><tspan
           x="0 5.5599999 10.56 16.120001 18.9 25.57 33.900002 40.57 43.349998 48.349998 53.91 59.470001 65.029999 67.809998 70.589996 76.150002 78.93 84.489998 90.050003 95.610001 101.17 106.73 111.73 117.29 120.07 122.29 127.85 133.41 135.63"
           y="0"
           sodipodi:role="line"
           id="tspan894">use SMS code to enhance login</tspan></text><path
         d="m 6316.9059,2011.8162 h 9 v -9 h -9 z"
         style="fill:none;stroke:#231f20;stroke-width:1;stroke-linecap:butt;stroke-linejoin:miter;stroke-miterlimit:3.8637;stroke-dasharray:none;stroke-opacity:1"
         id="path898" /><text
         transform="matrix(1,0,0,-1,6331.0536,2004.0898)"
         style="font-variant:normal;font-weight:normal;font-size:10px;font-family:Arial;-inkscape-font-specification:Arial;writing-mode:lr-tb;fill:#231f20;fill-opacity:1;fill-rule:nonzero;stroke:none"
         id="text902"><tspan
           x="0 5.5599999 10.56 16.120001 18.9 26.68 32.240002 37.799999 43.360001 45.580002 51.139999 53.430042 60.10004 65.660042 68.440041 74.000038 79.560043 85.120041 87.90004 90.120041 95.120041 100.68004 103.46004 109.02004"
           y="0"
           sodipodi:role="line"
           id="tspan900">use Google Authenticator</tspan></text><text
         transform="matrix(1,0,0,-1,6331.0536,1984.8321)"
         style="font-variant:normal;font-weight:normal;font-size:10px;font-family:Arial;-inkscape-font-specification:Arial;writing-mode:lr-tb;fill:#231f20;fill-opacity:1;fill-rule:nonzero;stroke:none"
         id="text906"><tspan
           x="0 5.5599999 11.12 16.68 22.24 24.459999 30.02 32.799999 38.360001 43.919998 47.25 52.810001 60.029999 65.589996 68.919998 74.480003 77.260002 82.260002 87.82 92.82 98.379997 101.71 103.93 106.71 111.71 114.49 119.49 125.05 130.05 135.05 137.83 143.39 148.95 154.50999 157.28999 162.28999 167.28999 170.62 176.17999 181.74001 187.3 190.08 192.3 197.86 202.86"
           y="0"
           sodipodi:role="line"
           id="tspan904">enable hardware security keys and screen lock</tspan></text><path
         d="m 6346.7951,1973.3007 h 9 v -9 h -9 z"
         style="fill:none;stroke:#231f20;stroke-width:1;stroke-linecap:butt;stroke-linejoin:miter;stroke-miterlimit:3.8637;stroke-dasharray:none;stroke-opacity:1"
         id="path908" /><text
         transform="matrix(1,0,0,-1,6360.9428,1965.5743)"
         style="font-variant:normal;font-weight:normal;font-size:10px;font-family:Arial;-inkscape-font-specification:Arial;writing-mode:lr-tb;fill:#231f20;fill-opacity:1;fill-rule:nonzero;stroke:none"
         id="text912"><tspan
           x="0 5 10.56 15.56 21.120001 24.450001 26.67 29.450001 34.450001 37.23 42.23 47.790001 52.790001 57.790001 60.57 66.129997 69.459999 75.019997 77.800003 83.360001 88.919998 91.699997 93.919998 99.480003 105.04 110.6"
           y="0"
           sodipodi:role="line"
           id="tspan910">security keys are optional</tspan></text><path
         d="m 6316.9059,1874.043 h 9 v -9 h -9 z"
         style="fill:none;stroke:#231f20;stroke-width:1;stroke-linecap:butt;stroke-linejoin:miter;stroke-miterlimit:3.8637;stroke-dasharray:none;stroke-opacity:1"
         id="path914" /><text
         transform="matrix(1,0,0,-1,6331.0536,1866.3166)"
         style="font-variant:normal;font-weight:normal;font-size:10px;font-family:Arial;-inkscape-font-specification:Arial;writing-mode:lr-tb;fill:#231f20;fill-opacity:1;fill-rule:nonzero;stroke:none"
         id="text918"><tspan
           x="0 5.5599999 10.56 16.120001 18.9 24.459999 27.24 32.240002 37.799999 42.799999 45.580002 48.360001 50.580002 52.799999 58.360001 61.139999 63.919998 69.480003 72.260002 77.82 83.379997 88.940002 94.5 100.06 105.06 110.62 113.4 115.62 121.18 126.74 128.96001"
           y="0"
           sodipodi:role="line"
           id="tspan916">use a key file to enhance login</tspan></text><path
         d="m 6316.9059,1854.7852 h 9 v -9 h -9 z"
         style="fill:none;stroke:#231f20;stroke-width:1;stroke-linecap:butt;stroke-linejoin:miter;stroke-miterlimit:3.8637;stroke-dasharray:none;stroke-opacity:1"
         id="path920" /><text
         transform="matrix(1,0,0,-1,6331.0536,1847.0588)"
         style="font-variant:normal;font-weight:normal;font-size:10px;font-family:Arial;-inkscape-font-specification:Arial;writing-mode:lr-tb;fill:#231f20;fill-opacity:1;fill-rule:nonzero;stroke:none"
         id="text924"><tspan
           x="0 5.5599999 11.12 16.68 22.24 27.799999 30.58 36.139999 41.700001 50.029999 55.59 61.030067 66.590065 72.150063 74.930069 79.930069 85.490067 91.050064 93.830063 97.160065 102.72006 104.94006"
           y="0"
           sodipodi:role="line"
           id="tspan922">enabe gamepad controls</tspan></text><path
         d="m 6311.7711,1832.0587 c 0,1.1046 0.8954,2 2,2 H 6386 c 1.1045,0 2,-0.8954 2,-2 V 1814.5 c 0,-1.1046 -0.8955,-2 -2,-2 h -72.2289 c -1.1046,0 -2,0.8954 -2,2 z"
         style="fill:#333333;fill-opacity:1;fill-rule:nonzero;stroke:none"
         id="path926" /><text
         transform="matrix(1,0,0,-1,6327.5,1819.4999)"
         style="font-variant:normal;font-weight:normal;font-size:14px;font-family:Arial;-inkscape-font-specification:Arial;writing-mode:lr-tb;fill:#ffffff;fill-opacity:1;fill-rule:nonzero;stroke:none"
         id="text930"><tspan
           x="0 10.108 17.892 25.676001 33.459999 37.352001"
           y="0"
           sodipodi:role="line"
           id="tspan928">Update</tspan></text><path
         d="m 6316.9059,1992.5585 h 9 v -9 h -9 z"
         style="fill:none;stroke:#231f20;stroke-width:1;stroke-linecap:butt;stroke-linejoin:miter;stroke-miterlimit:3.8637;stroke-dasharray:none;stroke-opacity:1"
         id="path932" /><path
         d="m 6317.625,1988.5 1.875,-2.375 5.125,4.625"
         style="fill:none;stroke:#231f20;stroke-width:1;stroke-linecap:butt;stroke-linejoin:miter;stroke-miterlimit:3.8637;stroke-dasharray:none;stroke-opacity:1"
         id="path934" /><path
         d="m 6344,1955.5 h 55 v -17 h -55 z"
         style="fill:none;stroke:#231f20;stroke-width:0.5;stroke-linecap:butt;stroke-linejoin:miter;stroke-miterlimit:3.8636;stroke-dasharray:none;stroke-opacity:1"
         id="path936" /><path
         d="m 6408,1948.9001 c 0,1.6568 1.3431,3 3,3 h 25.5 c 1.6568,0 3,-1.3432 3,-3 v -3.5 c 0,-1.6569 -1.3432,-3 -3,-3 H 6411 c -1.6569,0 -3,1.3431 -3,3 z"
         style="fill:none;stroke:#231f20;stroke-width:1;stroke-linecap:butt;stroke-linejoin:miter;stroke-miterlimit:3.8637;stroke-dasharray:none;stroke-opacity:1"
         id="path938" /><text
         transform="matrix(1,0,0,-1,6417.5,1944.4999)"
         style="font-variant:normal;font-weight:normal;font-size:7px;font-family:Arial;-inkscape-font-specification:Arial;writing-mode:lr-tb;fill:#231f20;fill-opacity:1;fill-rule:nonzero;stroke:none"
         id="text942"><tspan
           x="0 3.5770645 7.4690642 10.969065"
           y="0"
           sodipodi:role="line"
           id="tspan940">Test</tspan></text><text
         transform="matrix(1,0,0,-1,6350,1943.5001)"
         style="font-variant:normal;font-weight:normal;font-size:10px;font-family:Arial;-inkscape-font-specification:Arial;writing-mode:lr-tb;fill:#231f20;fill-opacity:1;fill-rule:nonzero;stroke:none"
         id="text946"><tspan
           x="0 6.6700001 13.34 18.9 23.9 26.68"
           y="0"
           sodipodi:role="line"
           id="tspan944">YKey 1</tspan></text><path
         d="m 6459.2711,1951.5 h 9 v -9 h -9 z"
         style="fill:none;stroke:#231f20;stroke-width:1;stroke-linecap:butt;stroke-linejoin:miter;stroke-miterlimit:3.8637;stroke-dasharray:none;stroke-opacity:1"
         id="path948" /><path
         d="m 6459.9901,1947.4414 1.875,-2.375 5.125,4.625"
         style="fill:none;stroke:#231f20;stroke-width:1;stroke-linecap:butt;stroke-linejoin:miter;stroke-miterlimit:3.8637;stroke-dasharray:none;stroke-opacity:1"
         id="path950" /><text
         transform="matrix(1,0,0,-1,6474.7923,1945.1001)"
         style="font-variant:normal;font-weight:normal;font-size:8px;font-family:Arial;-inkscape-font-specification:Arial;writing-mode:lr-tb;fill:#231f20;fill-opacity:1;fill-rule:nonzero;stroke:none"
         id="text954"><tspan
           x="0 4.3520527 8.8000526 12.800053 16.800053 22.576054 27.024054 29.688053 34.136051 36.800053 38.576054 43.024052 47.024052"
           y="0"
           sodipodi:role="line"
           id="tspan952">password-less</tspan></text><path
         d="m 6532.5211,1948.9001 c 0,1.6568 1.3432,3 3,3 h 25.5 c 1.6569,0 3,-1.3432 3,-3 v -3.5 c 0,-1.6569 -1.3431,-3 -3,-3 h -25.5 c -1.6568,0 -3,1.3431 -3,3 z"
         style="fill:none;stroke:#231f20;stroke-width:1;stroke-linecap:butt;stroke-linejoin:miter;stroke-miterlimit:3.8637;stroke-dasharray:none;stroke-opacity:1"
         id="path956" /><text
         transform="matrix(1,0,0,-1,6536.0212,1944.4999)"
         style="font-variant:normal;font-weight:normal;font-size:7px;font-family:Arial;-inkscape-font-specification:Arial;writing-mode:lr-tb;fill:#231f20;fill-opacity:1;fill-rule:nonzero;stroke:none"
         id="text960"><tspan
           x="0 5.0539999 8.9460001 14.777 18.669001 22.169001"
           y="0"
           sodipodi:role="line"
           id="tspan958">Remove</tspan></text><path
         d="m 6344,1931.8087 h 55 v -17 h -55 z"
         style="fill:none;stroke:#231f20;stroke-width:0.5;stroke-linecap:butt;stroke-linejoin:miter;stroke-miterlimit:3.8636;stroke-dasharray:none;stroke-opacity:1"
         id="path962" /><path
         d="m 6408,1925.2088 c 0,1.6569 1.3431,3 3,3 h 25.5 c 1.6568,0 3,-1.3431 3,-3 v -3.5 c 0,-1.6568 -1.3432,-3 -3,-3 H 6411 c -1.6569,0 -3,1.3432 -3,3 z"
         style="fill:none;stroke:#231f20;stroke-width:1;stroke-linecap:butt;stroke-linejoin:miter;stroke-miterlimit:3.8637;stroke-dasharray:none;stroke-opacity:1"
         id="path964" /><text
         transform="matrix(1,0,0,-1,6417.5,1920.8087)"
         style="font-variant:normal;font-weight:normal;font-size:7px;font-family:Arial;-inkscape-font-specification:Arial;writing-mode:lr-tb;fill:#231f20;fill-opacity:1;fill-rule:nonzero;stroke:none"
         id="text968"><tspan
           x="0 3.5770645 7.4690642 10.969065"
           y="0"
           sodipodi:role="line"
           id="tspan966">Test</tspan></text><text
         transform="matrix(1,0,0,-1,6350,1919.8088)"
         style="font-variant:normal;font-weight:normal;font-size:10px;font-family:Arial;-inkscape-font-specification:Arial;writing-mode:lr-tb;fill:#231f20;fill-opacity:1;fill-rule:nonzero;stroke:none"
         id="text972"><tspan
           x="0 6.6700001 13.34 18.9 23.9 26.68"
           y="0"
           sodipodi:role="line"
           id="tspan970">YKey 2</tspan></text><path
         d="m 6459.2711,1927.8087 h 9 v -9 h -9 z"
         style="fill:none;stroke:#231f20;stroke-width:1;stroke-linecap:butt;stroke-linejoin:miter;stroke-miterlimit:3.8637;stroke-dasharray:none;stroke-opacity:1"
         id="path974" /><text
         transform="matrix(1,0,0,-1,6474.7923,1921.4088)"
         style="font-variant:normal;font-weight:normal;font-size:8px;font-family:Arial;-inkscape-font-specification:Arial;writing-mode:lr-tb;fill:#231f20;fill-opacity:1;fill-rule:nonzero;stroke:none"
         id="text978"><tspan
           x="0 4.3520527 8.8000526 12.800053 16.800053 22.576054 27.024054 29.688053 34.136051 36.800053 38.576054 43.024052 47.024052"
           y="0"
           sodipodi:role="line"
           id="tspan976">password-less</tspan></text><path
         d="m 6532.5211,1925.2088 c 0,1.6569 1.3432,3 3,3 h 25.5 c 1.6569,0 3,-1.3431 3,-3 v -3.5 c 0,-1.6568 -1.3431,-3 -3,-3 h -25.5 c -1.6568,0 -3,1.3432 -3,3 z"
         style="fill:none;stroke:#231f20;stroke-width:1;stroke-linecap:butt;stroke-linejoin:miter;stroke-miterlimit:3.8637;stroke-dasharray:none;stroke-opacity:1"
         id="path980" /><text
         transform="matrix(1,0,0,-1,6536.0212,1920.8087)"
         style="font-variant:normal;font-weight:normal;font-size:7px;font-family:Arial;-inkscape-font-specification:Arial;writing-mode:lr-tb;fill:#231f20;fill-opacity:1;fill-rule:nonzero;stroke:none"
         id="text984"><tspan
           x="0 5.0539999 8.9460001 14.777 18.669001 22.169001"
           y="0"
           sodipodi:role="line"
           id="tspan982">Remove</tspan></text><path
         d="m 6343.6567,1904.6069 c 0,1.0292 0.8343,1.8635 1.8634,1.8635 h 87.3006 c 1.0292,0 1.8635,-0.8343 1.8635,-1.8635 v -16.3609 c 0,-1.0292 -0.8343,-1.8635 -1.8635,-1.8635 h -87.3006 c -1.0291,0 -1.8634,0.8343 -1.8634,1.8635 z"
         style="fill:#333333;fill-opacity:1;fill-rule:evenodd;stroke:none"
         id="path986" /><text
         transform="matrix(0.99998474,0,0,-1,6348.3123,1892.6131)"
         style="font-variant:normal;font-weight:normal;font-size:11.0447px;font-family:Arial;-inkscape-font-specification:Arial;writing-mode:lr-tb;fill:#ffffff;fill-opacity:1;fill-rule:nonzero;stroke:none"
         id="text990"><tspan
           x="0 7.3667026 13.507462 19.648222 22.718601 28.859362 31.929741 39.903893 43.581722 49.722481 55.863239 62.003998 68.14476 71.215141 73.667023 79.807785"
           y="0"
           sodipodi:role="line"
           id="tspan988">Add a Credential</tspan></text><path
         d="m 6444.7574,1904.6069 c 0,1.0292 0.8343,1.8635 1.8634,1.8635 h 42.3006 c 1.0292,0 1.8635,-0.8343 1.8635,-1.8635 v -16.3609 c 0,-1.0292 -0.8343,-1.8635 -1.8635,-1.8635 h -42.3006 c -1.0291,0 -1.8634,0.8343 -1.8634,1.8635 z"
         style="fill:#333333;fill-opacity:1;fill-rule:evenodd;stroke:none"
         id="path992" /><text
         transform="matrix(0.99998474,0,0,-1,6450.413,1892.6131)"
         style="font-variant:normal;font-weight:normal;font-size:11.0447px;font-family:Arial;-inkscape-font-specification:Arial;writing-mode:lr-tb;fill:#ffffff;fill-opacity:1;fill-rule:nonzero;stroke:none"
         id="text996"><tspan
           x="0 5.6438403 11.7846 17.306866 20.377245 22.906481 30.273182 32.725067"
           y="0"
           sodipodi:role="line"
           id="tspan994">Test All</tspan></text><path
         d="m 6454,2048.5 93.5,46.5"
         style="fill:none;stroke:#da0000;stroke-width:4;stroke-linecap:butt;stroke-linejoin:miter;stroke-miterlimit:3.8636;stroke-dasharray:none;stroke-opacity:1"
         id="path998" /><path
         d="m 6546.4514,2094.4885 -3.0686,6.2916 18.7972,1.3798 -12.66,-13.9629 -3.0686,6.2915"
         style="fill:#da0000;fill-opacity:1;fill-rule:nonzero;stroke:none"
         id="path1000" /><path
         d="m 6203.0211,1930.0587 93.5,46.5"
         style="fill:none;stroke:#da0000;stroke-width:4;stroke-linecap:butt;stroke-linejoin:miter;stroke-miterlimit:3.8636;stroke-dasharray:none;stroke-opacity:1"
         id="path1002" /><path
         d="m 6295.4726,1976.0473 -3.0686,6.2915 18.7972,1.3799 -12.66,-13.9629 -3.0686,6.2915"
         style="fill:#da0000;fill-opacity:1;fill-rule:nonzero;stroke:none"
         id="path1004" /><path
         d="m 6229.5211,1840.0587 93.5,46.5"
         style="fill:none;stroke:#da0000;stroke-width:4;stroke-linecap:butt;stroke-linejoin:miter;stroke-miterlimit:3.8636;stroke-dasharray:none;stroke-opacity:1"
         id="path1006" /><path
         d="m 6321.9726,1886.0473 -3.0686,6.2915 18.7972,1.3799 -12.66,-13.9629 -3.0686,6.2915"
         style="fill:#da0000;fill-opacity:1;fill-rule:nonzero;stroke:none"
         id="path1008" /></g></g></svg>
